<?xml version="1.0" standalone="no"?><!DOCTYPE svg PUBLIC "-//W3C//DTD SVG 1.1//EN" "http://www.w3.org/Graphics/SVG/1.1/DTD/svg11.dtd"><svg width="100%" height="100%" viewBox="0 0 2600 257" version="1.1" xmlns="http://www.w3.org/2000/svg" xmlns:xlink="http://www.w3.org/1999/xlink" xml:space="preserve" style="fill-rule:evenodd;clip-rule:evenodd;stroke-linejoin:round;stroke-miterlimit:1.41421;"><rect x="0" y="0" width="2600" height="257" style="fill:#fff;fill-rule:nonzero;"/><path d="M416.89,21.08c1.59,-0.04 3.19,-0.07 4.79,-0.11c-0.01,1.8 -0.01,3.59 -0.01,5.39c-1.59,-0.01 -3.18,-0.03 -4.77,-0.04c-0.01,-1.75 -0.01,-3.49 -0.01,-5.24Z" style="fill:#96be77;fill-rule:nonzero;"/><path d="M9.14,22.32c12.82,0.01 25.65,-0.03 38.47,0.02c-3.2,3.19 -6.42,6.38 -9.6,9.6c11.07,11.13 22.22,22.18 33.37,33.23c-4.36,2.75 -9.1,4.93 -13.22,8.04c-0.07,1.04 0.33,1.85 1.19,2.45c2.7,2.42 5.54,4.68 8.26,7.08c-2.16,1.18 -4.3,2.37 -6.45,3.55c0.32,1 0.64,2 0.96,3.01c-1.28,0.19 -2.55,0.46 -3.82,0.71c-13.02,-13.11 -26.05,-26.21 -39.28,-39.11c-3.31,3.25 -6.59,6.54 -9.87,9.83c-0.04,-12.8 -0.02,-25.61 -0.01,-38.41Z" style="fill:#75ae50;fill-rule:nonzero;"/><path d="M47.61,22.34c10.43,-0.01 20.87,0 31.3,-0.01c-5.99,5.33 -12.2,10.41 -18.21,15.72c0.68,1.31 1.41,2.62 2.49,3.66c5.85,5.99 11.74,11.94 17.45,18.06c-3.06,1.85 -6.15,3.65 -9.26,5.4c-11.15,-11.05 -22.3,-22.1 -33.37,-33.23c3.18,-3.22 6.4,-6.41 9.6,-9.6Z" style="fill:#d3e2c3;fill-rule:nonzero;"/><path d="M83.74,22.76c4.51,-1.03 9.33,-0.17 13.95,-0.41c0.86,0.78 1.73,1.56 2.59,2.34c1.74,-1.54 3.77,-2.66 6.17,-2.47c3.08,3.25 6.3,6.37 9.39,9.62c-6.15,6.62 -12.79,12.75 -19.07,19.24c-1.7,-1.74 -3.51,-3.37 -5.33,-4.98c-0.74,0.73 -1.47,1.46 -2.2,2.19c1.73,1.78 3.46,3.56 5.25,5.28c-6.08,5.46 -11.54,11.56 -17.56,17.09c-1.08,-1.01 -2.15,-2.01 -3.23,-3.01c3.85,-2.25 7.73,-4.45 11.54,-6.75c-0.51,-1.17 -0.96,-2.41 -1.91,-3.3c-6.04,-6.39 -12.48,-12.41 -18.26,-19.04c6.31,-5.17 12.3,-10.73 18.67,-15.8Z" style="fill:#d3e2c3;fill-rule:nonzero;"/><path d="M106.45,22.22c12.8,0.14 25.6,0.03 38.4,0.06c0.05,12.77 0.05,25.53 0,38.3c-3.31,-3.2 -6.55,-6.48 -9.91,-9.63c-13.2,12.67 -25.87,25.9 -38.94,38.71c-4.92,-0.07 -9.83,0.01 -14.73,0.36c-1.38,-1.16 -2.73,-2.35 -4.04,-3.58c-0.3,-1.62 -0.54,-3.26 -0.99,-4.85c2.75,-1.4 5.47,-2.85 8.16,-4.37c-0.39,-0.71 -1.17,-2.15 -1.56,-2.87c-1.95,1.03 -3.89,2.06 -5.81,3.13c-0.04,-2.27 -0.08,-4.55 -0.1,-6.82c6.02,-5.53 11.48,-11.63 17.56,-17.09c0.57,0.54 1.7,1.61 2.27,2.14c0.72,-0.79 1.45,-1.58 2.17,-2.36c-0.71,-0.76 -1.43,-1.52 -2.16,-2.27c6.28,-6.49 12.92,-12.62 19.07,-19.24c-3.09,-3.25 -6.31,-6.37 -9.39,-9.62Z" style="fill:#b5cf9f;fill-rule:nonzero;"/><path d="M209.52,22.39c2.51,-0.03 5.03,-0.07 7.55,-0.13c0.25,13.15 0.18,26.31 0.04,39.46c-2.53,-0.04 -5.06,-0.07 -7.59,-0.09c0.01,-13.08 0.01,-26.16 0,-39.24Z" style="fill:#96be77;fill-rule:nonzero;"/><path d="M260.53,25.17c1.55,0.02 3.1,0.05 4.65,0.08c0,2.65 0.01,5.31 0.01,7.96c2.85,0.01 5.69,0.01 8.54,0.02c0.02,1.38 0.03,2.76 0.05,4.15c-2.86,0.04 -5.72,0.06 -8.58,0.05c0.14,6.07 -0.35,12.18 0.23,18.23c1.25,3.61 5.83,2.76 8.78,2.41c-0.01,1.35 -0.02,2.7 -0.03,4.05c-3.45,0.55 -7.3,1.12 -10.44,-0.83c-2.22,-1.25 -3.31,-3.82 -3.22,-6.3c-0.1,-5.85 0.03,-11.7 -0.03,-17.55c-1.87,-0.01 -3.73,-0.03 -5.6,-0.05c0,-1.38 0,-2.76 0.01,-4.14c1.83,-0.01 3.67,-0.01 5.52,-0.01c0.07,-2.69 0.1,-5.38 0.11,-8.07Z" style="fill:#96be77;fill-rule:nonzero;"/><path d="M396.77,25.2c1.53,0.01 3.08,0.01 4.63,0.02c0,2.66 0,5.32 0.01,7.99c2.88,0 5.77,0.01 8.66,0.05c0,1.38 0,2.75 0.01,4.13c-2.9,0.03 -5.78,0.04 -8.67,0.04c0.16,6.05 -0.37,12.13 0.25,18.15c1.22,3.65 5.85,2.9 8.81,2.48c-0.02,1.35 -0.04,2.7 -0.05,4.06c-4.8,1.18 -12.07,0.86 -13.42,-5.03c-0.62,-6.54 -0.02,-13.13 -0.29,-19.69c-1.83,0.01 -3.65,0.02 -5.47,0.04c-0.01,-1.4 -0.02,-2.8 -0.02,-4.2c1.84,-0.02 3.68,-0.03 5.53,-0.04c0,-2.67 0.01,-5.33 0.02,-8Z" style="fill:#96be77;fill-rule:nonzero;"/><path d="M87.77,31.59c2.01,-2.2 4.23,-4.24 6.84,-5.71c0.4,0.57 1.2,1.71 1.6,2.28c-1.95,2.02 -4.07,3.87 -6.28,5.6c-0.54,-0.54 -1.62,-1.62 -2.16,-2.17Z" style="fill:#fffffe;fill-rule:nonzero;"/><path d="M232.23,36.99c2.26,-3.08 5.81,-5.36 9.76,-4.95c4.52,-0.48 8.1,3.69 8.32,7.94c0.26,7.21 0,14.45 0.11,21.67c-2.59,0.06 -5.18,0.02 -7.76,-0.17c-0.01,-7 0.46,-14.05 -0.24,-21.02c-1.26,-3.7 -6.6,-1.83 -7.95,0.97c-3.38,6.18 -1.27,13.53 -1.86,20.23c-2.45,0.01 -4.9,0.01 -7.35,0.01c0.02,-9.7 -0.09,-19.4 0.06,-29.1c2.32,0.02 4.65,0.03 6.98,0.04c-0.02,1.46 -0.04,2.92 -0.07,4.38Z" style="fill:#96be77;fill-rule:nonzero;"/><path d="M348.82,37.64c2.76,-3.42 6.93,-5.61 11.39,-5.18c-0.02,1.44 -0.03,2.88 -0.04,4.32c-3.94,0.52 -9.1,1.24 -10.95,5.24c-0.34,6.59 -0.01,13.2 -0.13,19.8c-1.58,0.01 -3.14,0.03 -4.7,0.05c0,-9.56 -0.02,-19.11 0.01,-28.67c1.21,0.02 2.42,0.04 3.64,0.06c0.26,1.46 0.52,2.92 0.78,4.38Z" style="fill:#96be77;fill-rule:nonzero;"/><path d="M365.79,34c4.9,-1.63 10.48,-2.49 15.31,-0.17c3.14,1.44 5.25,4.71 5.14,8.18c0.15,6.61 0.01,13.23 0.04,19.85c-1.32,0 -2.64,0.01 -3.95,0.01c-0.09,-0.74 -0.27,-2.24 -0.36,-2.98c-3.68,3.18 -9.04,5.03 -13.68,2.83c-6.03,-2.51 -6.67,-12.15 -1.2,-15.59c4.36,-2.88 9.85,-1.8 14.6,-0.66c-0.26,-2.4 0.17,-5.4 -2.07,-7.02c-3.97,-3.16 -9.37,-1.55 -13.81,-0.46c-0.01,-1.33 -0.02,-2.66 -0.02,-3.99Z" style="fill:#96be77;fill-rule:nonzero;"/><path d="M280.6,39.56c2.96,-6.81 12.7,-9.51 18.52,-4.7c3.99,3.43 4.41,9.1 4.41,14.01c-6.74,0.03 -13.47,-0.02 -20.2,0.03c0.4,2.7 0.9,5.75 3.32,7.42c4.55,3.23 10.49,2.15 15.58,1.05c-0.01,1.28 -0.01,2.55 -0.01,3.83c-6.07,1.96 -13.45,2.45 -18.8,-1.57c-5.55,-4.89 -5.7,-13.72 -2.82,-20.07Z" style="fill:#96be77;fill-rule:nonzero;"/><path d="M313.54,36.56c4.28,-5.26 13,-5.51 17.41,-0.25c0.27,-1.04 0.55,-2.08 0.84,-3.12c0.88,0.01 2.65,0.03 3.53,0.04c-0.04,10.6 0.13,21.21 -0.07,31.81c-0.07,5.63 -4.72,10.58 -10.27,11.2c-4.45,0.3 -9.05,0.53 -13.32,-1c-0.01,-1.01 -0.03,-3.04 -0.04,-4.05c5.12,1.43 11.22,2.57 15.93,-0.65c3.49,-2.56 3.03,-7.31 3.18,-11.12c-5.04,4.61 -13.74,4.27 -17.97,-1.24c-4.37,-6.29 -3.99,-15.65 0.78,-21.62Z" style="fill:#96be77;fill-rule:nonzero;"/><path d="M417.17,33.22c1.53,0 3.07,0 4.61,0c0.02,9.55 0.01,19.09 0.01,28.64c-1.55,0 -3.09,0 -4.62,0c-0.01,-9.55 -0.02,-19.09 0,-28.64Z" style="fill:#96be77;fill-rule:nonzero;"/><path d="M427.67,33.23c1.55,0 3.12,0 4.68,0.01c2.87,7.98 5.74,15.95 8.62,23.93c2.78,-7.98 5.81,-15.87 8.56,-23.86c1.58,-0.04 3.17,-0.07 4.77,-0.1c-3.59,9.55 -7.28,19.07 -10.84,28.63c-1.66,0 -3.31,0 -4.95,-0.01c-3.57,-9.55 -7.26,-19.05 -10.84,-28.6Z" style="fill:#96be77;fill-rule:nonzero;"/><path d="M462.86,35.82c4.35,-4.25 12.23,-4.7 16.57,-0.23c3.28,3.58 3.58,8.67 3.56,13.27c-6.69,0.05 -13.38,-0.02 -20.06,0.04c0.22,2.83 0.92,5.93 3.47,7.59c4.55,3.02 10.34,1.96 15.35,0.89c0,1.24 0,2.48 0.02,3.72c-5.32,1.96 -11.46,2.29 -16.7,-0.1c-4.16,-1.91 -6.35,-6.5 -6.65,-10.88c-0.47,-5.07 0.58,-10.7 4.44,-14.3Z" style="fill:#96be77;fill-rule:nonzero;"/><path d="M493.76,33.83c4.42,-2.33 9.57,-1.37 14.1,0.06c0.03,0.95 0.08,2.85 0.1,3.8c-3.53,-0.91 -7.41,-2.27 -10.99,-0.81c-2.91,0.92 -3.72,5.62 -0.83,7.06c3.29,1.6 7.29,1.46 10.35,3.6c3.98,3.21 3.34,10.28 -0.92,12.98c-4.84,3.02 -11,2.5 -16.18,0.71c-0.01,-0.95 -0.03,-2.85 -0.04,-3.8c3.96,1.2 8.48,2.3 12.41,0.38c2.83,-1.12 3.37,-5.68 0.65,-7.22c-3.63,-1.94 -8.38,-1.5 -11.4,-4.58c-2.94,-3.75 -1.59,-10.08 2.75,-12.18Z" style="fill:#96be77;fill-rule:nonzero;"/><path d="M79.75,38.06c1.38,-1.1 2.75,-2.21 4.13,-3.31c0.37,0.37 1.1,1.13 1.47,1.5c-0.02,1.92 0.16,3.82 0.5,5.7c-0.43,0.37 -1.29,1.11 -1.72,1.48c-1.71,-1.57 -3.41,-3.22 -4.38,-5.37Z" style="fill:#fffffe;fill-rule:nonzero;"/><path d="M283.62,44.68c0.52,-4.55 4.5,-8.93 9.39,-7.96c3.84,0.53 5.36,4.53 5.76,7.9c-5.05,0.11 -10.1,0.04 -15.15,0.06Z" style="fill:#fff;fill-rule:nonzero;"/><path d="M319.51,37.51c3.81,-2.13 8.33,-0.23 11.12,2.67c-0.05,5.17 -0.01,10.34 -0.04,15.51c-2.65,2.12 -6.03,3.92 -9.52,2.9c-3.95,-0.77 -6.1,-4.9 -6.28,-8.63c-0.42,-4.48 0.34,-10.08 4.72,-12.45Z" style="fill:#fff;fill-rule:nonzero;"/><path d="M463.02,44.62c0.81,-4.27 4.19,-8.59 8.98,-7.97c4.06,0.27 5.97,4.41 6.19,7.98c-5.05,0.07 -10.11,0.09 -15.17,-0.01Z" style="fill:#fff;fill-rule:nonzero;"/><path d="M91.44,46.1c1.82,1.61 3.63,3.24 5.33,4.98c0.73,0.75 1.45,1.51 2.16,2.27c-0.72,0.78 -1.45,1.57 -2.17,2.36c-0.57,-0.53 -1.7,-1.6 -2.27,-2.14c-1.79,-1.72 -3.52,-3.5 -5.25,-5.28c0.73,-0.73 1.46,-1.46 2.2,-2.19Z" style="fill:#fffffe;fill-rule:nonzero;"/><path d="M370.93,48.82c3.4,-1.49 7.2,-0.4 10.65,0.33c-0.01,2.07 -0.02,4.14 -0.01,6.2c-2.82,2.17 -6.46,4.5 -10.15,3.08c-3.98,-1.32 -4.36,-7.94 -0.49,-9.61Z" style="fill:#fff;fill-rule:nonzero;"/><path d="M9.15,60.73c3.28,-3.29 6.56,-6.58 9.87,-9.83c13.23,12.9 26.26,26 39.28,39.11c-0.35,0.06 -1.06,0.18 -1.41,0.24c-0.63,-0.2 -1.26,-0.41 -1.88,-0.64c-1.62,1.04 -3.21,2.13 -4.77,3.25c0.56,0.54 1.68,1.63 2.25,2.17c-11.16,11.41 -22.42,22.74 -33.84,33.9c-3.17,-3.16 -6.33,-6.34 -9.5,-9.51c-0.01,-19.56 -0.01,-39.12 0,-58.69Z" style="fill:#d3e2c3;fill-rule:nonzero;"/><path d="M96,89.66c13.07,-12.81 25.74,-26.04 38.94,-38.71c3.36,3.15 6.6,6.43 9.91,9.63c-0.03,19.62 -0.01,39.24 -0.01,58.86c-3.17,3.13 -6.3,6.31 -9.52,9.39c-13.15,-13.01 -26.19,-26.14 -39.32,-39.17Z" style="fill:#d3e2c3;fill-rule:nonzero;"/><path d="M101.97,60.19c0.5,-0.49 1.5,-1.48 2,-1.97c1.54,1.49 3.2,2.91 4.35,4.75c-0.7,2.16 -3.39,2.66 -5.12,3.84c-0.3,-0.51 -0.9,-1.53 -1.21,-2.03c0.31,-0.82 0.61,-1.63 0.92,-2.44c-0.24,-0.54 -0.71,-1.61 -0.94,-2.15Z" style="fill:#fffffe;fill-rule:nonzero;"/><path d="M450.59,68.62c3.14,-3.3 8.07,-3.23 12.26,-2.64c0.03,1.3 0.06,2.61 0.11,3.91c-3.05,0.1 -6.84,-0.65 -9.09,1.96c-2.13,2.81 -1.33,6.58 -1.51,9.86c2.9,0 5.81,0.02 8.72,0.04c0,1.37 0,2.73 0.01,4.1c-2.9,0.06 -5.81,0.09 -8.71,0.09c-0.02,8.14 0.01,16.28 -0.01,24.42c-1.56,-0.01 -3.1,-0.01 -4.64,-0.01c-0.03,-8.14 0,-16.27 -0.02,-24.41c-1.7,-0.01 -3.4,-0.02 -5.08,-0.04c-0.01,-1.38 0,-2.77 0,-4.16c1.69,-0.01 3.38,-0.02 5.08,-0.03c-0.04,-4.45 -0.48,-9.61 2.88,-13.09Z" style="fill:#96be77;fill-rule:nonzero;"/><path d="M673.91,66.46c1.56,0 3.14,-0.01 4.72,-0.02c0.01,14.65 0.04,29.29 -0.01,43.94c-1.58,-0.02 -3.15,-0.03 -4.72,-0.04c-0.01,-14.63 -0.02,-29.25 0.01,-43.88Z" style="fill:#96be77;fill-rule:nonzero;"/><path d="M88.14,71.38c2.75,-1.61 5.51,-3.23 8.49,-4.39c0.4,0.92 0.8,1.84 1.21,2.77c-2.76,1.6 -5.5,3.27 -8.52,4.36c-0.39,-0.92 -0.79,-1.83 -1.18,-2.74Z" style="fill:#fffffe;fill-rule:nonzero;"/><path d="M640.58,66.45c1.56,0 3.13,0.01 4.71,0.01c-0.01,5.92 0.04,11.84 -0.04,17.75c5.25,-4.92 14.66,-4.2 18.52,2.05c3.56,6.17 3.23,14.69 -1.07,20.43c-4.18,5.5 -13.17,6.02 -17.69,0.65c-0.21,0.75 -0.64,2.26 -0.85,3.01c-0.9,0 -2.69,0.01 -3.58,0.01c-0.02,-14.64 -0.01,-29.27 0,-43.91Z" style="fill:#96be77;fill-rule:nonzero;"/><path d="M62.71,74.1c3.66,-2.15 7.35,-4.26 10.99,-6.45c1.08,1 2.15,2 3.23,3.01c0.02,2.27 0.06,4.55 0.1,6.82c-0.84,0.47 -1.69,0.95 -2.52,1.42c0.43,0.67 1.3,2.01 1.73,2.69c0.45,1.59 0.69,3.23 0.99,4.85c-4.93,-4 -9.72,-8.18 -14.52,-12.34Z" style="fill:#75ae50;fill-rule:nonzero;"/><path d="M466.36,69.51c1.55,-0.01 3.1,-0.02 4.66,-0.03c0.05,1.77 0.1,3.54 0.15,5.32c-1.61,0.02 -3.22,0.04 -4.82,0.06c0,-1.79 0,-3.57 0.01,-5.35Z" style="fill:#96be77;fill-rule:nonzero;"/><path d="M626.01,69.48c1.54,0.01 3.09,0.02 4.65,0.03c-0.01,1.78 -0.01,3.56 0.01,5.35c-1.62,-0.02 -3.23,-0.05 -4.83,-0.07c0.04,-1.77 0.1,-3.54 0.17,-5.31Z" style="fill:#96be77;fill-rule:nonzero;"/><path d="M209.78,70.55c7.92,0 16.39,-1.62 23.8,1.97c5.12,2.37 8.17,7.95 8.53,13.44c0.32,4.68 0.3,9.7 -2.1,13.9c-2.44,5.16 -7.72,8.39 -13.14,9.6c-5.64,0.93 -11.37,0.32 -17.05,0.25c-0.04,-13.05 0.03,-26.1 -0.04,-39.16Z" style="fill:#96be77;fill-rule:nonzero;"/><path d="M77.03,77.48c1.92,-1.07 3.86,-2.1 5.81,-3.13c0.39,0.72 1.17,2.16 1.56,2.87c-2.69,1.52 -5.41,2.97 -8.16,4.37c-0.43,-0.68 -1.3,-2.02 -1.73,-2.69c0.83,-0.47 1.68,-0.95 2.52,-1.42Z" style="fill:#fffffe;fill-rule:nonzero;"/><path d="M217.31,76.85c4.27,-0.17 9.04,-0.64 12.62,2.21c4.4,3.17 4.19,9.25 3.85,14.08c-0.31,4.77 -4.06,8.96 -8.7,9.94c-2.57,0.49 -5.19,0.25 -7.77,0.14c-0.02,-8.79 -0.02,-17.58 0,-26.37Z" style="fill:#fff;fill-rule:nonzero;"/><path d="M249.72,84.65c4.76,-5.89 15.13,-6.25 19.83,-0.1c2.5,3.46 2.53,7.89 2.3,11.97c-6.09,0.01 -12.18,-0.05 -18.27,0.04c0.46,2.63 1.14,5.77 3.84,7c4.08,2.14 8.77,0.41 12.86,-0.82c0.18,2.02 0.34,4.05 0.48,6.08c-4.81,1.37 -9.91,1.77 -14.86,1.04c-4.86,-0.68 -8.82,-5.06 -9.19,-9.93c-0.56,-5.16 -0.68,-11.16 3.01,-15.28Z" style="fill:#96be77;fill-rule:nonzero;"/><path d="M282.67,85.42c2.8,-2.68 6.37,-5.06 10.46,-4.43c3.47,0.09 5.94,2.77 7.66,5.51c2.65,-3.49 6.78,-6.24 11.35,-5.48c4.24,0.18 7.9,3.76 8.13,8c0.44,7.1 0.07,14.23 0.18,21.34c-1.58,-0.01 -3.15,-0.01 -4.71,-0.01c-0.1,-6.47 0.13,-12.95 -0.09,-19.42c0.08,-2.75 -1.84,-5.51 -4.7,-5.75c-3.82,-0.61 -7.05,1.98 -9.35,4.71c0.06,6.83 0.05,13.66 0.01,20.49c-1.56,-0.02 -3.12,-0.03 -4.67,-0.05c-0.07,-6.47 0.11,-12.94 -0.07,-19.41c0.16,-2.84 -1.99,-5.62 -4.91,-5.76c-3.77,-0.51 -6.93,2.07 -9.17,4.79c0.1,6.8 0.03,13.6 0.05,20.4c-1.55,0 -3.09,0 -4.63,0c-0.01,-9.54 -0.01,-19.08 0,-28.62c1.17,0 2.35,-0.01 3.53,-0.01c0.23,0.92 0.7,2.77 0.93,3.7Z" style="fill:#96be77;fill-rule:nonzero;"/><path d="M337.4,81.46c5.86,-1.72 13.06,0.58 15.78,6.31c2.62,5.67 2.54,12.97 -1.08,18.2c-5.08,7.31 -17.77,6.83 -22.14,-0.98c-4.53,-7.89 -2.3,-20.88 7.44,-23.53Z" style="fill:#96be77;fill-rule:nonzero;"/><path d="M363.42,86.43c3.78,-6.33 13.64,-7.47 18.4,-1.62c0.29,-1.03 0.58,-2.07 0.88,-3.1c0.88,0.01 2.65,0.02 3.53,0.03c0.01,10.08 0.02,20.16 0.01,30.24c0.12,4.21 -1.64,8.65 -5.35,10.89c-5.48,3.3 -12.37,2.87 -18.26,0.95c-0.04,-1.38 -0.08,-2.76 -0.11,-4.14c5.05,1.41 11.01,2.52 15.71,-0.48c3.66,-2.45 3.3,-7.34 3.38,-11.2c-4.81,4.18 -12.66,4.25 -17.16,-0.41c-5,-5.69 -4.84,-14.88 -1.03,-21.16Z" style="fill:#96be77;fill-rule:nonzero;"/><path d="M399.75,86.16c2.73,-3.45 6.89,-5.6 11.36,-5.23c-0.02,1.46 -0.04,2.93 -0.05,4.4c-3.93,0.45 -8.53,1.17 -10.87,4.76c-0.7,6.71 -0.08,13.52 -0.29,20.27c-1.54,-0.01 -3.08,-0.01 -4.61,-0.02c0.01,-9.54 0,-19.08 0.01,-28.62c1.22,0.01 2.44,0.02 3.68,0.04c0.25,1.46 0.51,2.93 0.77,4.4Z" style="fill:#96be77;fill-rule:nonzero;"/><path d="M416.7,82.54c4.78,-1.68 10.28,-2.46 15.06,-0.33c3.05,1.36 5.36,4.4 5.35,7.82c0.22,6.79 0.02,13.6 0.07,20.4c-1.26,-0.02 -2.52,-0.07 -3.77,-0.18c-0.19,-0.71 -0.56,-2.15 -0.75,-2.86c-3.52,3.42 -9.05,4.93 -13.62,2.76c-6.07,-2.67 -6.46,-12.58 -0.65,-15.76c4.33,-2.61 9.56,-1.53 14.18,-0.4c-0.18,-2.53 0.12,-5.67 -2.3,-7.26c-4.03,-2.82 -9.23,-1.36 -13.57,-0.18c0,-1 0,-3 0,-4.01Z" style="fill:#96be77;fill-rule:nonzero;"/><path d="M482.52,85.37c4.09,-5.11 12.71,-6.11 17.46,-1.4c3.38,3.57 3.75,8.75 3.68,13.41c-6.75,0.04 -13.5,-0.1 -20.24,0.08c0.51,2.7 1.05,5.8 3.53,7.45c4.56,3.12 10.4,2.03 15.46,1c-0.03,1.29 -0.06,2.59 -0.08,3.89c-5.2,1.5 -10.95,2.09 -16.06,-0.06c-3.92,-1.58 -6.45,-5.57 -6.97,-9.67c-0.63,-5.04 -0.22,-10.67 3.22,-14.7Z" style="fill:#96be77;fill-rule:nonzero;"/><path d="M514.34,82.36c4.43,-2.36 9.69,-1.4 14.25,0.04c0,1.28 0.01,2.55 0.03,3.83c-3.62,-1.02 -7.64,-2.4 -11.28,-0.72c-2.61,1.03 -3.22,5.45 -0.66,6.83c3.6,1.97 8.39,1.38 11.37,4.53c2.94,3.59 2.1,9.8 -1.96,12.24c-4.79,2.93 -10.78,2.28 -15.92,0.72c-0.03,-1.28 -0.04,-2.56 -0.06,-3.84c3.95,1.12 8.38,2.23 12.29,0.35c2.84,-1.13 3.41,-5.74 0.64,-7.25c-3.63,-1.98 -8.47,-1.49 -11.44,-4.68c-2.81,-3.72 -1.48,-9.93 2.74,-12.05Z" style="fill:#96be77;fill-rule:nonzero;"/><path d="M537.09,87.96c3,-6.76 12.69,-9.36 18.47,-4.6c4,3.43 4.4,9.09 4.4,13.99c-6.69,0.07 -13.38,-0.01 -20.07,0.05c0.23,2.75 0.82,5.8 3.27,7.48c4.56,3.17 10.43,2.01 15.53,1.1c-0.04,1.25 -0.07,2.51 -0.08,3.77c-6.08,1.86 -13.43,2.39 -18.76,-1.63c-5.55,-4.93 -5.68,-13.78 -2.76,-20.16Z" style="fill:#96be77;fill-rule:nonzero;"/><path d="M572.39,85.53c3.12,-3.45 7.89,-5.56 12.55,-4.25c4,0.76 6.44,4.87 6.4,8.74c0.13,6.78 0,13.56 0.03,20.34c-1.56,-0.01 -3.11,-0.01 -4.65,-0.01c-0.05,-6.14 0.06,-12.29 -0.02,-18.43c-0.01,-2.42 -0.54,-5.42 -3.13,-6.35c-4.2,-1.6 -8.41,1.2 -11.06,4.28c0.08,6.84 0.05,13.68 0.02,20.52c-1.55,-0.01 -3.09,-0.02 -4.63,-0.03c-0.01,-9.53 -0.02,-19.06 0,-28.59c0.88,-0.02 2.63,-0.05 3.51,-0.07c0.32,1.28 0.65,2.56 0.98,3.85Z" style="fill:#96be77;fill-rule:nonzero;"/><path d="M602.67,82.64c4.5,-2.67 10.13,-1.85 14.82,-0.1c-0.03,0.91 -0.08,2.73 -0.1,3.64c-3.57,-0.95 -7.48,-2.27 -11.08,-0.76c-2.54,0.94 -3.45,4.78 -1.34,6.6c3.54,2.27 8.36,1.61 11.57,4.5c3.27,3.5 2.55,9.92 -1.53,12.51c-4.81,3.03 -10.9,2.37 -16.1,0.79c-0.04,-1.28 -0.06,-2.56 -0.08,-3.84c4.04,1.11 8.57,2.3 12.53,0.28c2.71,-1.24 3.21,-5.63 0.52,-7.15c-3.73,-2.09 -8.96,-1.45 -11.79,-5.1c-2.2,-3.64 -1.2,-9.14 2.58,-11.37Z" style="fill:#96be77;fill-rule:nonzero;"/><path d="M690.62,84.64c4.35,-4.56 12.7,-5.18 17.08,-0.35c3.17,3.54 3.37,8.55 3.54,13.05c-6.75,0.09 -13.5,-0.02 -20.25,0.08c0.33,2.7 0.88,5.72 3.28,7.4c4.55,3.2 10.5,2.22 15.57,1.02c-0.02,1.3 -0.03,2.61 -0.03,3.91c-5.3,1.6 -11.24,2.17 -16.41,-0.15c-3.79,-1.67 -6.13,-5.61 -6.69,-9.61c-0.8,-5.32 0.03,-11.34 3.91,-15.35Z" style="fill:#96be77;fill-rule:nonzero;"/><path d="M721.56,82.51c4.41,-2.54 9.74,-1.53 14.37,-0.22c0.07,1.32 0.14,2.63 0.22,3.94c-3.72,-0.99 -7.94,-2.51 -11.62,-0.59c-2.32,1.18 -2.9,4.93 -0.72,6.53c3.42,1.98 7.82,1.57 11.01,4.03c3.86,3.42 2.99,10.57 -1.51,13.07c-4.8,2.74 -10.63,2.06 -15.72,0.6c-0.05,-1.31 -0.09,-2.63 -0.12,-3.94c4.04,1.2 8.64,2.37 12.6,0.28c2.6,-1.26 3.16,-5.4 0.6,-6.99c-3.69,-2.24 -8.92,-1.49 -11.81,-5.08c-2.54,-3.69 -1.24,-9.44 2.7,-11.63Z" style="fill:#96be77;fill-rule:nonzero;"/><path d="M466.51,110.37c-0.04,-9.55 -0.04,-19.1 0,-28.66c1.56,0.01 3.12,0.02 4.7,0.03c0.01,9.53 0.01,19.06 0,28.6c-1.57,0.01 -3.14,0.02 -4.7,0.03Z" style="fill:#96be77;fill-rule:nonzero;"/><path d="M626.15,81.72c1.53,0.01 3.07,0.01 4.62,0.01c0,9.54 0.01,19.08 0,28.62c-1.55,0 -3.09,0.01 -4.62,0.01c-0.01,-9.55 -0.01,-19.09 0,-28.64Z" style="fill:#96be77;fill-rule:nonzero;"/><path d="M63.07,89.3c2.3,-1.69 4.85,-2.99 7.42,-4.22c1.65,1.48 3.32,2.95 4.97,4.44c-4.13,0.25 -8.27,0.15 -12.39,-0.22Z" style="fill:#75ae50;fill-rule:nonzero;"/><path d="M338.27,85.35c4.09,-1.85 9.28,0.49 10.74,4.7c1.9,5.01 1.65,11.65 -2.5,15.47c-3.99,3.58 -10.85,1.61 -12.69,-3.32c-2.18,-5.59 -1.69,-14 4.45,-16.85Z" style="fill:#fff;fill-rule:nonzero;"/><path d="M365.89,93.01c0.48,-3.69 3.12,-7.37 7.02,-7.81c3.3,-0.6 6.25,1.31 8.62,3.38c-0.19,5.19 0.32,10.42 -0.22,15.59c-3.15,3.39 -9.02,4.45 -12.64,1.23c-3.25,-3.16 -3.42,-8.18 -2.78,-12.39Z" style="fill:#fff;fill-rule:nonzero;"/><path d="M483.65,93.13c0.84,-4.37 4.45,-8.78 9.34,-7.94c3.9,0.45 5.61,4.47 5.92,7.93c-5.09,0.1 -10.18,0.09 -15.26,0.01Z" style="fill:#fff;fill-rule:nonzero;"/><path d="M539.96,93.13c0.75,-4.37 4.32,-8.68 9.16,-7.97c3.96,0.41 5.79,4.45 6.01,7.99c-5.06,0.04 -10.12,0.06 -15.17,-0.02Z" style="fill:#fff;fill-rule:nonzero;"/><path d="M645.3,88.16c2.76,-1.98 6.12,-3.81 9.64,-2.78c3.89,0.84 6.02,4.87 6.2,8.59c0.46,4.69 -0.47,10.73 -5.35,12.81c-3.78,1.67 -7.8,-0.37 -10.48,-3.05c-0.03,-5.19 -0.02,-10.38 -0.01,-15.57Z" style="fill:#fff;fill-rule:nonzero;"/><path d="M691.14,93.14c0.71,-4.59 4.77,-9.03 9.75,-7.87c3.72,0.69 5.07,4.58 5.52,7.87c-5.09,0.06 -10.18,0.07 -15.27,0Z" style="fill:#fff;fill-rule:nonzero;"/><path d="M253.67,91.39c1,-3.03 3.55,-6.71 7.24,-5.56c2.64,0.64 3.31,3.28 3.88,5.57c-3.71,0.1 -7.42,0.1 -11.12,-0.01Z" style="fill:#fffffe;fill-rule:nonzero;"/><path d="M55.01,89.61c0.62,0.23 1.25,0.44 1.88,0.64c-0.1,2.25 -0.28,4.49 -0.7,6.7c-1.25,-0.62 -2.5,-1.23 -3.7,-1.92c-0.57,-0.54 -1.69,-1.63 -2.25,-2.17c1.56,-1.12 3.15,-2.21 4.77,-3.25Z" style="fill:#fff;fill-rule:nonzero;"/><path d="M62.12,89.3l0.95,0c4.12,0.37 8.26,0.47 12.39,0.22l0.29,-0.01c0.33,0.34 1,1.03 1.34,1.38c-0.09,4.54 0.11,9.15 -0.85,13.62c-0.32,0.68 -0.95,2.03 -1.27,2.71c0.39,0.34 1.17,1.02 1.55,1.36c-6.41,4.55 -12.74,9.24 -19.01,13.98c-2.12,1.24 0.04,3.13 1.25,4.01c-6.87,7.26 -14.17,14.08 -21.09,21.29c3.28,3.32 6.61,6.61 9.91,9.92c-12.81,0.06 -25.63,0.01 -38.45,0.02c0,-12.79 -0.03,-25.58 0.02,-38.38c3.17,3.17 6.33,6.35 9.5,9.51c11.42,-11.16 22.68,-22.49 33.84,-33.9c1.2,0.69 2.45,1.3 3.7,1.92c0.42,-2.21 0.6,-4.45 0.7,-6.7c0.35,-0.06 1.06,-0.18 1.41,-0.24c1.27,-0.25 2.54,-0.52 3.82,-0.71Z" style="fill:#8ab667;fill-rule:nonzero;"/><path d="M81.27,90.02c4.9,-0.35 9.81,-0.43 14.73,-0.36c13.13,13.03 26.17,26.16 39.32,39.17c3.22,-3.08 6.35,-6.26 9.52,-9.39c0.07,12.79 0.02,25.58 0.03,38.37c-12.83,-0.03 -25.66,0.06 -38.49,-0.05c3.33,-3.3 6.67,-6.59 9.93,-9.95c-5.65,-5.89 -11.46,-11.63 -17.36,-17.28c-0.32,-0.34 -0.98,-1.02 -1.3,-1.37c-4.71,-4.89 -9.54,-9.66 -14.43,-14.38c-1.32,-1.25 -2.44,-2.72 -3.2,-4.38c0.78,0.35 2.35,1.04 3.13,1.39c1.56,-1.32 1.3,-2.79 0.06,-4.17c3.22,-2.46 6.79,-4.51 9.53,-7.54c-3.62,-3.58 -7.63,-6.73 -11.47,-10.06Z" style="fill:#a1c482;fill-rule:nonzero;"/><path d="M77.09,90.89c3.66,2.99 7.2,6.11 10.82,9.16c-2.7,2.01 -5.42,4 -8.12,6.02c-1.18,-0.52 -2.37,-1.04 -3.55,-1.56c0.96,-4.47 0.76,-9.08 0.85,-13.62Z" style="fill:#a1c482;fill-rule:nonzero;"/><path d="M62.47,96.94c2.95,1.29 5.74,2.92 8.53,4.52c-0.52,0.97 -1.03,1.94 -1.55,2.92c-2.76,-1.53 -5.53,-3.05 -8.29,-4.59c0.43,-0.95 0.87,-1.9 1.31,-2.85Z" style="fill:#fffffe;fill-rule:nonzero;"/><path d="M421.53,97.47c3.46,-1.75 7.4,-0.52 10.98,0.16c-0.04,2.11 -0.06,4.22 -0.07,6.33c-2.75,1.9 -5.94,4.14 -9.47,3.2c-4.34,-0.83 -5.24,-7.62 -1.44,-9.69Z" style="fill:#fff;fill-rule:nonzero;"/><path d="M60.9,123.88c6.43,-4.45 12.85,-8.97 18.85,-13.99l0.27,0.51c0.76,1.66 1.88,3.13 3.2,4.38c4.89,4.72 9.72,9.49 14.43,14.38c-1.77,1.31 -3.52,2.63 -5.27,3.96c1.77,2.32 3.93,4.28 6.31,5.96c0.36,-0.53 1.09,-1.61 1.45,-2.14c-0.66,-1.03 -1.32,-2.05 -1.97,-3.08c0.27,-1.1 0.53,-2.21 0.78,-3.33c5.9,5.65 11.71,11.39 17.36,17.28c-3.26,3.36 -6.6,6.65 -9.93,9.95c-1.35,0.06 -2.7,0.14 -4.04,0.21c0.19,-0.94 0.37,-1.88 0.56,-2.81c-0.4,-0.4 -1.2,-1.2 -1.6,-1.59c-2.1,1.37 -3.97,3.29 -6.38,4.07c-5.36,0.38 -10.75,0.06 -16.12,0.09c5.14,-3.45 11.55,-5.1 15.91,-9.6c-11.03,-8.41 -22.58,-16.12 -33.81,-24.25Z" style="fill:#d3e2c3;fill-rule:nonzero;"/><path d="M90.02,111.97c2.83,1.5 5.63,3.06 8.39,4.67c-0.4,0.7 -1.2,2.12 -1.6,2.83c-2.76,-1.49 -5.51,-3.01 -8.27,-4.48c0.49,-1.01 0.98,-2.02 1.48,-3.02Z" style="fill:#fffffe;fill-rule:nonzero;"/><path d="M1026.57,115.33c2.49,0 4.99,-0.01 7.5,0c0.06,2.53 0.09,5.06 0.09,7.6c-2.55,0.03 -5.09,0.03 -7.62,-0.02c0.01,-2.53 0.02,-5.05 0.03,-7.58Z" style="fill:#96be77;fill-rule:nonzero;"/><path d="M210.13,118.19c2.52,0 5.05,0 7.57,0.02c0.02,5.75 -0.08,11.51 0.07,17.27c4.33,-5.61 8.34,-11.44 12.39,-17.25c3.12,-0.06 6.24,-0.06 9.35,0.05c-4.62,6.35 -9.45,12.55 -14.23,18.79c4.98,6.83 10.12,13.55 15.05,20.42c-3.36,0.04 -6.72,0.04 -10.08,0.04c-4.06,-6.27 -8.26,-12.44 -12.5,-18.58c-0.13,6.19 0,12.39 -0.08,18.58c-2.52,0 -5.03,-0.01 -7.55,-0.02c0.01,-13.11 -0.01,-26.21 0.01,-39.32Z" style="fill:#96be77;fill-rule:nonzero;"/><path d="M919.95,118.4c2.59,-0.02 5.19,-0.02 7.8,-0.01c6.93,9.92 14.32,19.55 20.58,29.93c-0.38,-9.98 -0.2,-19.96 -0.22,-29.95c2.43,0.01 4.88,0.02 7.33,0.03c-0.02,13.49 0.01,26.97 -0.01,40.45c-2.56,0 -5.11,0.02 -7.65,0.07c-7.05,-9.93 -14.52,-19.61 -20.67,-30.14c0.39,10.02 0.33,20.06 0.31,30.09c-2.52,-0.01 -5.02,-0.02 -7.52,-0.06c0.02,-13.47 -0.07,-26.94 0.05,-40.41Z" style="fill:#96be77;fill-rule:nonzero;"/><path d="M102.15,122.27c0.41,-0.69 1.25,-2.08 1.66,-2.77c1.69,1.04 3.68,1.76 4.97,3.33c-0.17,2.38 -2.99,3.31 -4.5,4.85c-0.49,-0.64 -1.47,-1.92 -1.96,-2.56c0.41,-0.37 1.24,-1.12 1.65,-1.5c-0.45,-0.34 -1.37,-1.01 -1.82,-1.35Z" style="fill:#fff;fill-rule:nonzero;"/><path d="M392.55,121.05c1.55,0.01 3.11,0.02 4.67,0.03c0,2.66 0,5.32 0.01,7.98c2.85,0.01 5.7,0.02 8.56,0.03c0,1.39 -0.01,2.78 0,4.17c-2.86,0.01 -5.71,0.02 -8.56,0.02c0.16,6.09 -0.38,12.23 0.26,18.29c1.34,3.56 5.81,2.7 8.77,2.38c-0.02,1.32 -0.02,2.64 -0.03,3.96c-4.76,1.27 -11.93,0.92 -13.44,-4.83c-0.59,-6.57 -0.08,-13.2 -0.25,-19.79c-1.83,-0.01 -3.65,-0.02 -5.47,-0.03c-0.01,-1.4 -0.01,-2.8 -0.01,-4.2c1.79,0.02 3.58,0.05 5.38,0.08c0.11,-2.7 0.14,-5.4 0.11,-8.09Z" style="fill:#96be77;fill-rule:nonzero;"/><path d="M828.17,121.06c1.51,0 3.04,0 4.58,0c-0.01,2.67 0,5.33 0.01,8c2.87,0.01 5.74,0.02 8.62,0.02c-0.02,1.39 -0.02,2.79 -0.01,4.18c-2.88,0.01 -5.74,0.02 -8.6,0.02c0.09,5.92 -0.28,11.86 0.15,17.76c0.9,4.03 5.82,3.33 8.9,2.92c-0.02,1.31 -0.03,2.63 -0.03,3.94c-3.36,0.63 -7.08,1.17 -10.19,-0.62c-2.26,-1.18 -3.54,-3.7 -3.41,-6.21c-0.12,-5.92 0.03,-11.84 -0.04,-17.76c-1.87,-0.02 -3.73,-0.04 -5.58,-0.06c-0.01,-1.39 -0.01,-2.78 -0.01,-4.16c1.85,-0.02 3.72,-0.02 5.59,-0.03c0,-2.67 0.01,-5.34 0.02,-8Z" style="fill:#96be77;fill-rule:nonzero;"/><path d="M58.76,126.57c10.31,7 20.4,14.33 30.53,21.59c-4.91,2.86 -9.99,5.39 -14.94,8.18c-1.61,0.96 -3.43,1.58 -5.33,1.47c-7.15,-0.03 -14.29,-0.02 -21.44,-0.03c-3.3,-3.31 -6.63,-6.6 -9.91,-9.92c6.92,-7.21 14.22,-14.03 21.09,-21.29Z" style="fill:#d3e2c3;fill-rule:nonzero;"/><path d="M153.18,126.15c3.16,-1.82 5.19,3.94 1.78,4.7c-2.82,1.12 -4.46,-3.67 -1.78,-4.7Z" style="fill:#96be77;fill-rule:nonzero;"/><path d="M160.11,126.5c6.9,0 13.8,-0.01 20.7,0c-0.24,1.19 0.34,2.79 -0.49,3.74c-6.74,0.21 -13.49,0.01 -20.23,0.06c0,-1.27 0.01,-2.54 0.02,-3.8Z" style="fill:#96be77;fill-rule:nonzero;"/><path d="M250.3,128.54c5.06,-1.15 11.27,-1.07 14.98,3.14c6.47,7.81 3.82,21.95 -6.15,25.53c-5.13,1.29 -11.56,1.29 -15.35,-3.01c-6.45,-7.92 -3.69,-22.33 6.52,-25.66Z" style="fill:#96be77;fill-rule:nonzero;"/><path d="M280.38,132.92c2.75,-2.91 6.53,-5.27 10.7,-4.57c3.37,0.22 5.71,2.85 7.42,5.49c2.72,-3.55 6.98,-6.35 11.64,-5.45c4.35,0.32 7.82,4.2 7.89,8.52c0.29,6.94 0.12,13.9 0.05,20.85c-1.55,-0.03 -3.09,-0.05 -4.63,-0.07c-0.1,-6.57 0.18,-13.14 -0.11,-19.69c-0.02,-2.54 -1.71,-5.01 -4.32,-5.4c-3.92,-0.83 -7.33,1.79 -9.69,4.61c0.05,6.8 -0.03,13.59 0.05,20.39c-1.53,0.08 -3.06,0.15 -4.58,0.23c-0.35,-6.61 0.12,-13.23 -0.22,-19.84c-0.01,-2.61 -1.86,-5.19 -4.58,-5.43c-3.79,-0.72 -6.98,1.88 -9.39,4.44c-0.05,6.91 -0.01,13.81 -0.03,20.71c-1.57,0 -3.14,-0.01 -4.71,-0.01c-0.03,-9.54 -0.02,-19.07 -0.01,-28.61c1.21,-0.01 2.42,-0.01 3.64,-0.01c0.29,1.28 0.58,2.56 0.88,3.84Z" style="fill:#96be77;fill-rule:nonzero;"/><path d="M331.66,132.06c2.83,-2.49 6.5,-4.44 10.4,-3.66c5.02,0.48 9.05,4.62 10.05,9.46c1.31,6.09 0.67,13.56 -4.39,17.83c-4.54,3.89 -11.73,3.68 -16.03,-0.48c0.08,5.54 0.03,11.08 0.04,16.63c-1.51,0 -3.02,0 -4.52,0.01c-0.01,-14.27 -0.02,-28.53 0,-42.8c1.16,0.02 2.33,0.03 3.5,0.05c0.24,0.74 0.71,2.22 0.95,2.96Z" style="fill:#96be77;fill-rule:nonzero;"/><path d="M360.27,135.31c3,-6.67 12.42,-9.31 18.26,-4.78c4.16,3.39 4.56,9.19 4.68,14.16c-6.75,0.1 -13.49,-0.02 -20.24,0.07c0.33,2.84 1,6.05 3.63,7.65c4.56,2.94 10.3,1.91 15.28,0.82c-0.04,1.28 -0.07,2.56 -0.09,3.85c-6.16,1.93 -13.74,2.44 -19.05,-1.84c-5.29,-5 -5.34,-13.67 -2.47,-19.93Z" style="fill:#96be77;fill-rule:nonzero;"/><path d="M412.54,135.62c2.81,-6.72 12.11,-9.62 18.09,-5.33c4.43,3.31 5.02,9.34 4.9,14.46c-6.73,-0.03 -13.45,-0.04 -20.17,0.01c0.39,2.73 0.97,5.79 3.43,7.47c4.54,3.17 10.44,2.11 15.49,0.99c-0.02,1.29 -0.03,2.58 -0.04,3.88c-6.07,1.84 -13.39,2.4 -18.75,-1.59c-5.51,-4.83 -5.73,-13.55 -2.95,-19.89Z" style="fill:#96be77;fill-rule:nonzero;"/><path d="M447.94,132.92c3.14,-3.45 7.94,-5.64 12.62,-4.28c3.78,0.73 6.3,4.49 6.3,8.22c0.17,6.95 0.01,13.91 0.05,20.86c-1.53,-0.01 -3.05,-0.01 -4.57,-0.02c-0.06,-6.24 0.09,-12.48 -0.04,-18.72c-0.01,-2.4 -0.69,-5.34 -3.3,-6.13c-4.14,-1.42 -8.22,1.27 -10.83,4.29c0.05,6.86 0.03,13.71 0.02,20.56c-1.57,0 -3.13,0 -4.68,-0.01c0.02,-9.54 -0.02,-19.08 0.02,-28.62c0.89,0 2.68,0.01 3.58,0.01c0.27,1.28 0.55,2.56 0.83,3.84Z" style="fill:#96be77;fill-rule:nonzero;"/><path d="M508.06,132.9c2.87,-2.95 6.81,-5.37 11.1,-4.5c3.21,0.31 5.42,2.9 7.05,5.44c2.75,-3.52 6.97,-6.33 11.64,-5.46c4.39,0.32 7.9,4.29 7.91,8.65c0.23,6.89 0.03,13.79 0.08,20.69c-1.55,-0.01 -3.09,-0.01 -4.62,-0.01c-0.07,-6.26 0.09,-12.52 -0.05,-18.78c0.07,-2.72 -1.31,-5.75 -4.23,-6.3c-3.94,-0.93 -7.41,1.67 -9.84,4.47c0.01,6.86 0.01,13.73 0,20.59c-1.57,0.01 -3.12,0.01 -4.67,0.02c-0.06,-6.22 0.09,-12.45 -0.04,-18.67c-0.04,-2.14 -0.57,-4.71 -2.65,-5.77c-4.04,-2.15 -9.13,0.35 -11.28,4.03c-0.36,6.8 0,13.62 -0.15,20.43c-1.58,-0.02 -3.14,-0.03 -4.71,-0.05c0.02,-9.54 -0.01,-19.07 0.02,-28.61c0.9,0 2.72,0.01 3.62,0.01c0.27,1.27 0.54,2.54 0.82,3.82Z" style="fill:#96be77;fill-rule:nonzero;"/><path d="M555.66,129.85c4.54,-1.53 9.62,-2.35 14.24,-0.63c3.26,1.17 6.04,4.17 6.1,7.78c0.33,6.89 0.05,13.8 0.12,20.69c-1.28,0.02 -2.55,0.04 -3.81,0.07c-0.16,-0.76 -0.49,-2.28 -0.65,-3.04c-3.51,3.27 -8.81,4.96 -13.37,2.93c-6.19,-2.43 -6.9,-12.27 -1.28,-15.71c4.36,-2.81 9.79,-1.77 14.51,-0.59c-0.18,-2.58 0.09,-5.83 -2.46,-7.38c-4.07,-2.68 -9.11,-1.19 -13.44,-0.09c0.01,-1.34 0.02,-2.69 0.04,-4.03Z" style="fill:#96be77;fill-rule:nonzero;"/><path d="M589.51,132.31c3.37,-2.24 7.07,-4.78 11.36,-3.93c4.39,0.28 7.69,4.34 7.67,8.63c0.17,6.9 0,13.8 0.06,20.71c-1.57,-0.02 -3.13,-0.03 -4.68,-0.03c-0.11,-6.6 0.15,-13.2 -0.11,-19.78c0.04,-2.4 -1.45,-4.82 -3.91,-5.29c-3.83,-0.74 -7.68,1.43 -9.9,4.46c-0.6,6.84 -0.06,13.76 -0.25,20.63c-1.53,0 -3.05,0 -4.56,0.01c-0.02,-9.55 -0.01,-19.1 0,-28.65c1.15,0 2.32,0.01 3.49,0.01c0.21,0.81 0.62,2.42 0.83,3.23Z" style="fill:#96be77;fill-rule:nonzero;"/><path d="M618.33,130.05c4.28,-1.81 9.19,-2.41 13.7,-1.06c3.52,1.05 6.67,4.13 6.72,7.98c0.26,6.91 0.04,13.84 0.09,20.76c-1.29,-0.01 -2.58,-0.02 -3.87,-0.03c-0.11,-0.74 -0.35,-2.22 -0.47,-2.96c-4.13,3.84 -11.05,5.4 -15.66,1.52c-4.32,-3.85 -3.71,-12.25 1.75,-14.79c4.29,-2.26 9.28,-1.2 13.74,-0.12c-0.18,-2.53 0.05,-5.71 -2.38,-7.3c-4.05,-2.77 -9.17,-1.31 -13.51,-0.16c-0.05,-1.28 -0.08,-2.56 -0.11,-3.84Z" style="fill:#96be77;fill-rule:nonzero;"/><path d="M648.53,134.46c3.47,-6.82 13.84,-8.44 18.78,-2.33c0.22,-0.75 0.66,-2.25 0.88,-3.01c1.17,-0.02 2.35,-0.05 3.54,-0.07c-0.02,10.34 0.06,20.67 -0.03,31c0.09,4.3 -2.15,8.66 -6.06,10.63c-5.43,2.72 -11.95,2.43 -17.55,0.37c-0.01,-1.33 -0.01,-2.66 -0.01,-4c5.18,1.4 11.42,2.62 16.08,-0.81c3.16,-2.45 2.91,-6.83 3.01,-10.41c-4.29,2.38 -9.58,3.87 -14.15,1.32c-7.92,-4.19 -8.35,-15.55 -4.49,-22.69Z" style="fill:#96be77;fill-rule:nonzero;"/><path d="M681.13,135.06c3.12,-6.54 12.5,-9.02 18.25,-4.45c4.07,3.42 4.5,9.16 4.48,14.1c-6.74,0.06 -13.48,-0.03 -20.22,0.05c0.43,2.66 0.93,5.67 3.3,7.35c4.54,3.36 10.59,2.2 15.71,1.15c-0.03,0.96 -0.1,2.88 -0.13,3.85c-6.3,1.92 -14.15,2.44 -19.41,-2.2c-4.93,-5.2 -4.96,-13.66 -1.98,-19.85Z" style="fill:#96be77;fill-rule:nonzero;"/><path d="M716.28,132.92c2.82,-2.89 6.59,-5.31 10.82,-4.56c3.32,0.25 5.64,2.86 7.34,5.47c2.56,-3.21 6.28,-5.98 10.62,-5.54c4.31,-0.03 8.4,3.26 8.8,7.65c0.58,7.24 0.11,14.52 0.24,21.77c-1.58,0 -3.14,0 -4.7,0c-0.1,-6.56 0.18,-13.14 -0.11,-19.69c0,-2.57 -1.74,-5.03 -4.36,-5.44c-3.91,-0.77 -7.35,1.81 -9.66,4.68c0.08,6.79 -0.02,13.58 0.06,20.37c-1.56,0.04 -3.13,0.08 -4.67,0.13c-0.11,-6.27 0.08,-12.54 -0.06,-18.8c0.06,-2.49 -0.98,-5.42 -3.62,-6.14c-4.05,-1.4 -7.86,1.33 -10.43,4.2c-0.04,6.89 -0.01,13.78 -0.02,20.67c-1.55,0.02 -3.1,0.04 -4.64,0.06c-0.19,-9.56 -0.05,-19.11 -0.07,-28.67c1.2,0 2.42,0.01 3.65,0.02c0.26,1.27 0.53,2.54 0.81,3.82Z" style="fill:#96be77;fill-rule:nonzero;"/><path d="M763.29,135.32c3,-6.67 12.42,-9.32 18.28,-4.79c4.11,3.41 4.72,9.23 4.55,14.22c-6.71,-0.03 -13.42,-0.05 -20.13,0.02c0.34,2.81 0.99,5.98 3.59,7.61c4.52,2.95 10.28,1.99 15.23,0.82c0,1.3 0.01,2.59 0.04,3.89c-6.17,1.89 -13.73,2.45 -19.04,-1.83c-5.32,-4.99 -5.4,-13.67 -2.52,-19.94Z" style="fill:#96be77;fill-rule:nonzero;"/><path d="M798.58,132.92c3,-3.34 7.53,-5.49 12.07,-4.41c4.04,0.59 6.83,4.49 6.86,8.44c0.19,6.92 0,13.84 0.07,20.76c-1.57,-0.01 -3.13,-0.02 -4.67,-0.02c-0.08,-6.26 0.07,-12.53 -0.04,-18.79c0.01,-2.29 -0.65,-5.06 -3.05,-5.95c-4.17,-1.67 -8.29,1.16 -11.05,4.08c-0.07,6.9 -0.01,13.79 -0.03,20.68c-1.54,0 -3.06,0 -4.57,0.01c-0.01,-9.56 -0.01,-19.11 0,-28.66c1.17,0.01 2.35,0.03 3.54,0.05c0.29,1.27 0.57,2.54 0.87,3.81Z" style="fill:#96be77;fill-rule:nonzero;"/><path d="M474.18,129.08c7.28,0 14.56,-0.04 21.85,0.03c-0.22,1.57 -0.09,3.34 -1.24,4.59c-5,6.59 -9.98,13.19 -14.96,19.79c5.69,0.05 11.37,0 17.07,0.03c-0.01,1.4 -0.02,2.79 -0.02,4.19c-7.85,-0.06 -15.71,0.14 -23.56,-0.11c0.25,-1.61 0.66,-3.24 1.75,-4.51c4.97,-6.6 9.98,-13.17 14.93,-19.79c-5.27,-0.05 -10.55,-0.01 -15.82,-0.03c-0.01,-1.4 -0.01,-2.79 0,-4.19Z" style="fill:#96be77;fill-rule:nonzero;"/><path d="M965.26,130.57c5.54,-1.95 11.99,-3.03 17.46,-0.25c3.24,1.51 5.38,4.99 5.17,8.59c-0.02,6.64 0.05,13.28 0.32,19.92c-2.16,0.01 -4.32,0.03 -6.46,0.05c-0.08,-0.75 -0.26,-2.25 -0.34,-2.99c-3.54,3.09 -8.64,5.01 -13.16,2.89c-6.45,-2.44 -7.26,-12.25 -1.86,-16.21c4.23,-3.27 9.84,-2.55 14.77,-1.75c-0.52,-1.9 -0.65,-4.28 -2.58,-5.35c-4.21,-2.34 -9.1,-0.45 -13.36,0.77c0,-1.89 0.02,-3.78 0.04,-5.67Z" style="fill:#96be77;fill-rule:nonzero;"/><path d="M1014.73,129.47c2.53,-0.01 5.06,-0.02 7.6,-0.01c-3.75,9.8 -7.59,19.56 -11.35,29.36c-2.38,0.03 -4.75,0.05 -7.1,0.07c-3.92,-9.77 -7.63,-19.63 -11.49,-29.42c2.51,-0.02 5.03,-0.01 7.56,0.01c2.72,6.56 4.41,13.59 7.65,19.9c2.33,-6.65 4.71,-13.29 7.13,-19.91Z" style="fill:#96be77;fill-rule:nonzero;"/><path d="M1026.74,129.51c2.36,-0.04 4.72,-0.06 7.1,-0.07c0.02,9.81 0.01,19.61 0.01,29.42c-2.37,0 -4.73,0 -7.08,0c-0.03,-9.79 0.01,-19.57 -0.03,-29.35Z" style="fill:#96be77;fill-rule:nonzero;"/><path d="M92.38,133.12c1.75,-1.33 3.5,-2.65 5.27,-3.96c0.32,0.35 0.98,1.03 1.3,1.37c-0.25,1.12 -0.51,2.23 -0.78,3.33c0.65,1.03 1.31,2.05 1.97,3.08c-0.36,0.53 -1.09,1.61 -1.45,2.14c-2.38,-1.68 -4.54,-3.64 -6.31,-5.96Z" style="fill:#fff;fill-rule:nonzero;"/><path d="M331.74,135.99c2.68,-2.48 6.42,-4.43 10.14,-3.15c4.33,1.16 5.99,6.06 5.89,10.11c0.22,4.27 -1.16,9.51 -5.57,11.18c-3.74,1.6 -7.75,-0.29 -10.53,-2.85c0.11,-5.1 0.04,-10.19 0.07,-15.29Z" style="fill:#fff;fill-rule:nonzero;"/><path d="M363.15,140.48c0.76,-4.22 4.04,-8.45 8.75,-8c4.18,0.15 6.23,4.37 6.37,8.05c-5.04,-0.01 -10.08,0.04 -15.12,-0.05Z" style="fill:#fff;fill-rule:nonzero;"/><path d="M419.64,133.72c2.65,-1.81 6.6,-1.72 8.85,0.71c1.62,1.58 1.78,3.97 2.31,6.05c-5.1,0.07 -10.19,0.1 -15.27,-0.02c0.84,-2.48 1.67,-5.33 4.11,-6.74Z" style="fill:#fff;fill-rule:nonzero;"/><path d="M656.23,133.23c3.59,-1.73 8.4,-0.35 10.61,2.92c0.55,4.88 0.3,9.86 0.16,14.77c-3.17,5.26 -12.73,5.07 -14.84,-1.16c-1.91,-5.45 -1.68,-13.5 4.07,-16.53Z" style="fill:#fff;fill-rule:nonzero;"/><path d="M683.92,140.48c0.68,-4.39 4.31,-8.71 9.15,-7.96c3.95,0.41 5.75,4.45 5.97,7.98c-5.05,0.05 -10.09,0.06 -15.12,-0.02Z" style="fill:#fff;fill-rule:nonzero;"/><path d="M768.88,134.84c2.34,-2.47 6.54,-3.27 9.37,-1.14c2.27,1.48 2.54,4.36 3.22,6.74c-5.09,0.16 -10.19,0.1 -15.28,0.04c0.66,-1.97 1.15,-4.13 2.69,-5.64Z" style="fill:#fff;fill-rule:nonzero;"/><path d="M160.11,134.06c6.88,2.63 13.76,5.24 20.63,7.88c-0.01,1.31 -0.02,2.63 -0.02,3.95c-6.88,2.58 -13.75,5.18 -20.63,7.74c0.01,-1.44 0.03,-2.88 0.05,-4.32c5.29,-1.83 10.53,-3.8 15.88,-5.49c-5.36,-1.73 -10.63,-3.73 -15.93,-5.64c0,-1.37 0.01,-2.74 0.02,-4.12Z" style="fill:#96be77;fill-rule:nonzero;"/><path d="M251.35,135.32c3.05,-2.07 8.26,-0.84 9.02,3.12c0.6,3.9 1.16,8.85 -2.15,11.74c-3.01,2.71 -8.47,1.15 -9.43,-2.85c-0.82,-4.02 -1.2,-9.3 2.56,-12.01Z" style="fill:#fff;fill-rule:nonzero;"/><path d="M107.34,142.96c2.65,1.35 5.02,3.31 6.39,6c-1.66,1.18 -3.32,2.38 -4.98,3.58c-0.59,-0.81 -1.18,-1.62 -1.77,-2.43c0.56,-0.67 1.12,-1.34 1.69,-2.01c-0.9,-0.86 -1.8,-1.72 -2.69,-2.58c0.45,-0.85 0.9,-1.71 1.36,-2.56Z" style="fill:#fffffe;fill-rule:nonzero;"/><path d="M560.68,144.7c3.41,-1.53 7.2,-0.38 10.71,0.21c0,2.08 0.02,4.15 0.06,6.22c-2.77,2.21 -6.3,4.47 -9.98,3.23c-4.12,-1.16 -4.65,-7.86 -0.79,-9.66Z" style="fill:#fff;fill-rule:nonzero;"/><path d="M623.08,144.92c3.45,-1.89 7.49,-0.6 11.11,0.01c0.01,2.04 0.02,4.09 0.07,6.14c-2.71,2.24 -6.21,4.45 -9.86,3.34c-4.1,-0.99 -4.88,-7.41 -1.32,-9.49Z" style="fill:#fff;fill-rule:nonzero;"/><path d="M971.79,146.8c2.78,-1.6 6.09,-0.72 9.1,-0.41c-0.04,1.48 -0.03,2.97 -0.17,4.45c-1.91,2.36 -5.43,3.84 -8.38,2.68c-2.7,-0.98 -3.02,-5.32 -0.55,-6.72Z" style="fill:#fff;fill-rule:nonzero;"/><path d="M877.63,150.85c2.7,-0.02 5.41,-0.01 8.12,0c0,2.67 0,5.33 0.01,8c-2.72,0.01 -5.43,0.01 -8.14,0.01c-0.01,-2.68 -0.01,-5.35 0.01,-8.01Z" style="fill:#96be77;fill-rule:nonzero;"/><path d="M163.24,157.35c5.74,-1.1 11.67,-0.17 17.48,-0.6c0.01,0.94 0.01,2.82 0.01,3.76c-0.86,-0.06 -2.6,-0.19 -3.47,-0.26c3,2.12 4.86,5.97 3.46,9.59c-1.15,3.75 -6.53,4.13 -8.97,1.45c-2.8,-2.84 -2.96,-7.08 -3.33,-10.82c-1.72,0.36 -4.12,0 -5.11,1.84c-1.42,2.88 -0.03,6.1 0.86,8.93c-1.06,0.18 -2.12,0.36 -3.18,0.55c-1.33,-4.58 -3.11,-11.85 2.25,-14.44Z" style="fill:#96be77;fill-rule:nonzero;"/><path d="M2481.78,159.88c11.16,9.46 21.52,19.84 32.46,29.55c-6.96,6.98 -14.52,13.34 -21.73,20.06c-3.56,3.16 -6.92,6.55 -10.7,9.43c-0.94,-4.8 -0.3,-9.71 -0.43,-14.55c-344.11,-0.15 -688.22,-0.02 -1032.33,-0.07c-0.17,-9.93 -0.06,-19.86 -0.12,-29.78c344.14,-0.02 688.28,0.02 1032.42,-0.02c0.15,-4.87 -0.43,-9.79 0.43,-14.62Z" style="fill:#96be77;fill-rule:nonzero;"/><path d="M171.12,160.53c2.8,0.24 6.1,1.4 6.82,4.47c1.06,2.36 -1.44,5.32 -3.93,4.03c-2.74,-1.85 -2.47,-5.61 -2.89,-8.5Z" style="fill:#fff;fill-rule:nonzero;"/><path d="M46.77,170.56c7.43,-0.03 16.75,-1.96 22.23,4.46c5,7.16 3.83,19.27 -4.34,23.68c-5.44,3 -11.83,1.98 -17.77,1.97c-0.27,-10.03 -0.03,-20.07 -0.12,-30.11Z" style="fill:#96be77;fill-rule:nonzero;"/><path d="M9.29,200.67c0.01,-10.06 -0.05,-20.13 0.03,-30.19c1.94,0.02 3.88,0.04 5.82,0.06c0.02,10.04 0.03,20.08 0,30.12c-1.95,0 -3.9,0.01 -5.85,0.01Z" style="fill:#96be77;fill-rule:nonzero;"/><path d="M99.52,170.51c1.97,0 3.94,0 5.92,0c0.01,4.47 0,8.94 0.02,13.4c3.22,-4.45 6.4,-8.92 9.61,-13.38c2.4,-0.02 4.8,-0.02 7.2,-0.01c-3.64,4.87 -7.34,9.69 -11.02,14.53c3.84,5.21 7.7,10.4 11.56,15.6c-2.57,0.01 -5.13,0.03 -7.7,0.05c-3.29,-4.69 -6.41,-9.5 -9.64,-14.23c-0.04,4.73 -0.02,9.46 -0.03,14.2c-1.97,0 -3.95,-0.01 -5.93,0c0,-10.06 0,-20.11 0.01,-30.16Z" style="fill:#96be77;fill-rule:nonzero;"/><path d="M52.69,175.38c4.01,-0.29 9.13,-0.4 11.43,3.6c2.1,4.33 2.19,10.28 -1.09,14.07c-2.56,2.86 -6.66,2.79 -10.18,2.78c-0.29,-6.82 -0.04,-13.64 -0.16,-20.45Z" style="fill:#fff;fill-rule:nonzero;"/><path d="M304.13,175.11c6.6,-0.53 13.21,-0.08 19.82,-0.23c8.01,0.06 16.02,-0.36 24.02,0.11c0.09,9.65 0.02,19.29 0.07,28.94c-14.64,0.31 -29.32,0.33 -43.96,-0.14c-0.5,-9.53 -0.6,-19.15 0.05,-28.68Z" style="fill:#f5faf6;fill-rule:nonzero;"/><path d="M347.97,174.99c16.35,-0.37 32.72,-0.38 49.07,-0.21c-0.05,9.76 -0.01,19.51 -0.08,29.27c-16.3,0.31 -32.62,0.21 -48.92,-0.12c-0.05,-9.65 0.02,-19.29 -0.07,-28.94Z" style="fill:#f0f7f1;fill-rule:nonzero;"/><path d="M397.04,174.78c14.34,-0.15 28.69,-0.36 43.02,-0.06c-0.08,9.8 -0.01,19.6 0.01,29.4c-14.37,0.29 -28.75,0.16 -43.11,-0.07c0.07,-9.76 0.03,-19.51 0.08,-29.27Z" style="fill:#ecf4ed;fill-rule:nonzero;"/><path d="M440.06,174.72c22.65,-0.17 45.31,-0.29 67.96,-0.1c-0.04,9.86 -0.11,19.73 -0.05,29.59c-22.63,0.2 -45.27,0.1 -67.9,-0.09c-0.02,-9.8 -0.09,-19.6 -0.01,-29.4Z" style="fill:#e6f1e7;fill-rule:nonzero;"/><path d="M508.02,174.62c12.65,-0.12 25.31,-0.2 37.96,-0.01c-0.1,9.87 0.16,19.75 0,29.62c-12.67,0.15 -25.34,0.1 -38.01,-0.02c-0.06,-9.86 0.01,-19.73 0.05,-29.59Z" style="fill:#e1efe2;fill-rule:nonzero;"/><path d="M545.98,174.61c16.33,-0.08 32.65,-0.17 48.98,-0.04c0.16,9.9 -0.11,19.79 0.01,29.68c-16.33,0.15 -32.66,0.04 -48.99,-0.02c0.16,-9.87 -0.1,-19.75 0,-29.62Z" style="fill:#dcecdd;fill-rule:nonzero;"/><path d="M594.96,174.57c11.33,-0.04 22.67,-0.13 34,-0.01c0.01,9.9 0.07,19.8 0.05,29.7c-11.35,0.12 -22.69,0.03 -34.04,-0.01c-0.12,-9.89 0.15,-19.78 -0.01,-29.68Z" style="fill:#d8e9d9;fill-rule:nonzero;"/><path d="M628.96,174.56c13.34,-0.02 26.68,-0.12 40.02,-0.01c0.18,9.91 -0.19,19.82 0.05,29.72c-13.34,0.07 -26.68,0.04 -40.02,-0.01c0.02,-9.9 -0.04,-19.8 -0.05,-29.7Z" style="fill:#d4e7d5;fill-rule:nonzero;"/><path d="M668.98,174.55c20.32,-0.01 40.64,-0.11 60.96,-0.02c-0.02,9.92 -0.03,19.83 0.03,29.75c-20.32,0.08 -40.63,0.01 -60.94,-0.01c-0.24,-9.9 0.13,-19.81 -0.05,-29.72Z" style="fill:#cfe5d1;fill-rule:nonzero;"/><path d="M729.94,174.53c13.03,0.01 26.07,-0.09 39.11,0c-0.04,9.92 -0.13,19.84 -0.11,29.75c-12.99,0.07 -25.98,0.01 -38.97,0c-0.06,-9.92 -0.05,-19.83 -0.03,-29.75Z" style="fill:#cae2cc;fill-rule:nonzero;"/><path d="M769.05,174.53c13.01,0.01 26.01,-0.08 39.01,0.01c0,9.91 -0.01,19.83 -0.01,29.74c-13.04,0.08 -26.07,0.01 -39.11,0c-0.02,-9.91 0.07,-19.83 0.11,-29.75Z" style="fill:#c6dfc8;fill-rule:nonzero;"/><path d="M808.06,174.54c24.3,0.01 48.59,-0.08 72.89,-0.01c0.03,9.92 -0.02,19.84 -0.01,29.76c-24.29,0.06 -48.59,-0.01 -72.89,-0.01c0,-9.91 0.01,-19.83 0.01,-29.74Z" style="fill:#c0dcc2;fill-rule:nonzero;"/><path d="M880.95,174.53c13.34,0.01 26.68,-0.05 40.02,0c0.1,9.92 0.01,19.84 0,29.76c-13.34,0.05 -26.68,-0.01 -40.03,0c-0.01,-9.92 0.04,-19.84 0.01,-29.76Z" style="fill:#bcd9bb;fill-rule:nonzero;"/><path d="M920.97,174.53c12.68,0.01 25.36,-0.06 38.04,0.01c-0.06,9.91 0.02,19.83 0.02,29.75c-12.69,0.04 -25.37,0.01 -38.06,0c0.01,-9.92 0.1,-19.84 0,-29.76Z" style="fill:#b9d8b7;fill-rule:nonzero;"/><path d="M959.01,174.54c22.34,0 44.69,-0.08 67.03,-0.01c0.13,9.92 0.12,19.84 -0.07,29.76c-22.31,0.04 -44.63,0 -66.94,0c0,-9.92 -0.08,-19.84 -0.02,-29.75Z" style="fill:#b6d6b1;fill-rule:nonzero;"/><path d="M1026.04,174.53c32.34,0.03 64.69,-0.08 97.03,0c0.02,9.92 -0.39,19.84 0.04,29.76c-32.38,0.06 -64.76,-0.02 -97.14,0c0.19,-9.92 0.2,-19.84 0.07,-29.76Z" style="fill:#b1d1a6;fill-rule:nonzero;"/><path d="M1123.07,174.53c31.31,0.03 62.62,-0.07 93.93,-0.01c0.05,9.93 0.01,19.85 0.09,29.78c-31.32,0.04 -62.65,-0.02 -93.98,-0.01c-0.43,-9.92 -0.02,-19.84 -0.04,-29.76Z" style="fill:#aacd9b;fill-rule:nonzero;"/><path d="M1217,174.52c31.65,0.04 63.29,-0.05 94.94,0c-0.12,9.92 0.14,19.85 0.02,29.78c-31.62,0.03 -63.24,-0.02 -94.87,0c-0.08,-9.93 -0.04,-19.85 -0.09,-29.78Z" style="fill:#a3c890;fill-rule:nonzero;"/><path d="M1311.94,174.52c20.66,0.03 41.32,-0.05 61.98,0c0.22,9.92 0.13,19.85 0.11,29.78c-20.69,0.03 -41.38,-0.01 -62.07,0c0.12,-9.93 -0.14,-19.86 -0.02,-29.78Z" style="fill:#9ec587;fill-rule:nonzero;"/><path d="M1373.92,174.52c25,0.02 50.01,-0.03 75.01,0c0.06,9.92 -0.05,19.85 0.12,29.78c-25.01,0.03 -50.01,-0.02 -75.02,0c0.02,-9.93 0.11,-19.86 -0.11,-29.78Z" style="fill:#9ac17e;fill-rule:nonzero;"/><path d="M26.51,181.75c2.98,-4.48 11.43,-5.74 13.67,0c1.07,6.23 0.23,12.63 0.48,18.93c-1.93,-0.01 -3.86,-0.03 -5.78,-0.03c-0.3,-5.62 0.63,-11.4 -0.52,-16.92c-2.75,-2.63 -6.52,0.81 -6.97,3.78c-0.59,4.34 -0.13,8.76 -0.26,13.13c-1.96,0.01 -3.92,0.03 -5.87,0.04c0,-7.43 -0.07,-14.86 0.03,-22.28c1.85,0.01 3.69,0.03 5.54,0.05c-0.08,0.83 -0.24,2.48 -0.32,3.3Z" style="fill:#96be77;fill-rule:nonzero;"/><path d="M78.42,180.5c3.72,-3.43 10.32,-3.56 13.94,0.08c2.5,2.63 2.44,6.46 2.45,9.84c-4.65,0.06 -9.3,0.02 -13.95,0.06c0.34,1.69 0.26,3.77 1.85,4.87c3.25,2.27 7.37,0.86 10.85,-0.05c0.1,1.52 0.21,3.04 0.32,4.57c-5.57,1.54 -13.17,2.64 -17.06,-2.7c-2.93,-5.06 -2.64,-12.42 1.6,-16.67Z" style="fill:#96be77;fill-rule:nonzero;"/><path d="M130.39,178.58c4.5,-1.42 10.54,-0.53 12.92,4.03c2.58,5.32 1.76,12.8 -3.28,16.42c-4.37,3.07 -11.28,2.97 -14.92,-1.18c-4.33,-6.17 -2.46,-16.83 5.28,-19.27Z" style="fill:#96be77;fill-rule:nonzero;"/><path d="M152.57,178.48c9.39,-0.33 18.79,-0.06 28.18,-0.14c-0.02,1.71 -0.04,3.42 -0.06,5.13c-7.55,4.46 -14.85,9.36 -22.55,13.55c7.52,-0.25 15.05,-0.2 22.58,-0.18c0.01,1.27 0.02,2.55 0.03,3.82c-9.36,-0.02 -18.72,0.1 -28.07,-0.06c0,-1.66 0.01,-3.32 0.01,-4.97c7.4,-4.72 14.87,-9.34 22.43,-13.79c-7.45,0.3 -14.9,0.36 -22.35,0.31c-0.05,-0.92 -0.15,-2.75 -0.2,-3.67Z" style="fill:#96be77;fill-rule:nonzero;"/><path d="M80.76,186.49c0.76,-2.23 2.34,-4.85 5.12,-4.23c2.28,0.06 2.87,2.46 3.29,4.25c-2.8,0.05 -5.61,0.05 -8.41,-0.02Z" style="fill:#fff;fill-rule:nonzero;"/><path d="M132.12,183.25c2.52,-1.16 5.8,0.35 6.24,3.16c0.98,3.59 0.25,9.23 -4.28,9.82c-6.41,0.05 -7.02,-10.59 -1.96,-12.98Z" style="fill:#fff;fill-rule:nonzero;"/><rect x="297.916" y="175.447" width="1158.26" height="28.2823" style="fill:url(#tag1);"/><defs><linearGradient id="tag1" x1="0" y1="0" x2="1" y2="0" gradientUnits="userSpaceOnUse" gradientTransform="matrix(1158.26,0,0,28.2823,297.916,189.588)"><stop offset="0%" style="stop-color:#fff;stop-opacity:1"/><stop offset="100%" style="stop-color:#96be77;stop-opacity:1"/></linearGradient></defs></svg>