<?xml version="1.0" encoding="UTF-8" standalone="no"?>
<!DOCTYPE svg PUBLIC "-//W3C//DTD SVG 1.1//EN" "http://www.w3.org/Graphics/SVG/1.1/DTD/svg11.dtd">
<svg width="100%" height="100%" viewBox="0 0 154 154" version="1.1" xmlns="http://www.w3.org/2000/svg" xmlns:xlink="http://www.w3.org/1999/xlink" xml:space="preserve" style="fill-rule:evenodd;clip-rule:evenodd;stroke-linejoin:round;stroke-miterlimit:1.41421;">
    <g transform="matrix(1,0,0,1,0,-272)">
        <g id="ArtBoard1" transform="matrix(0.7431,0,0,0.7431,-2125.23,272.117)">
            <rect x="2859.96" y="0" width="206.625" height="206.625" style="fill:none;"/>
            <g transform="matrix(1.34571,0,0,1.34571,5694.53,-1393.5)">
                <path d="M-2029.6,1037.13C-1987.99,1037.13 -1954.21,1070.91 -1954.21,1112.52C-1954.21,1154.12 -1987.99,1187.9 -2029.6,1187.9C-2071.2,1187.9 -2104.99,1154.12 -2104.99,1112.52C-2104.99,1070.91 -2071.2,1037.13 -2029.6,1037.13ZM-2025.97,1113.08L-2051.92,1087.13C-2052.97,1086.07 -2052.97,1084.36 -2051.92,1083.3L-2036.62,1068.01C-2035.57,1066.95 -2033.85,1066.95 -2032.8,1068.01L-1989.64,1111.16C-1988.59,1112.22 -1988.59,1113.93 -1989.64,1114.99C-1989.64,1114.99 -2004.94,1130.28 -2004.94,1130.28C-2004.94,1130.28 -2031.68,1157.02 -2031.68,1157.02C-2032.73,1158.08 -2034.45,1158.08 -2035.5,1157.02L-2050.8,1141.73C-2051.85,1140.67 -2051.85,1138.96 -2050.8,1137.91L-2025.97,1113.08Z" style="fill:rgb(49,49,49);"/>
            </g>
        </g>
    </g>
</svg>
