<?xml version="1.0" encoding="UTF-8" standalone="no"?>
<!DOCTYPE svg PUBLIC "-//W3C//DTD SVG 1.1//EN" "http://www.w3.org/Graphics/SVG/1.1/DTD/svg11.dtd">
<svg width="100%" height="100%" viewBox="0 0 154 154" version="1.1" xmlns="http://www.w3.org/2000/svg" xmlns:xlink="http://www.w3.org/1999/xlink" xml:space="preserve" style="fill-rule:evenodd;clip-rule:evenodd;stroke-linejoin:round;stroke-miterlimit:1.41421;">
    <g transform="matrix(1,0,0,1,-553,0)">
        <g id="ArtBoard1" transform="matrix(0.7431,0,0,0.7431,-1572.04,0)">
            <rect x="2859.96" y="0" width="206.625" height="206.625" style="fill:none;"/>
            <g transform="matrix(1.34571,0,0,1.34571,5694.53,-996.679)">
                <path d="M-1967.38,774.854C-1959.07,786.967 -1954.21,801.623 -1954.21,817.404C-1954.21,859.011 -1987.99,892.791 -2029.6,892.791C-2039.3,892.791 -2048.58,890.953 -2057.11,887.606L-2024.34,830.85C-2004.55,836.94 -1982.46,828.82 -1971.67,810.138C-1965.25,799.018 -1964.08,786.3 -1967.38,774.854ZM-2074.85,877.69C-2093.14,863.93 -2104.99,842.039 -2104.99,817.404C-2104.99,775.797 -2071.2,742.017 -2029.6,742.017C-2026.03,742.017 -2022.51,742.266 -2019.07,742.748C-2031.76,745.046 -2043.39,752.696 -2050.33,764.725C-2061.12,783.406 -2057.1,806.6 -2041.94,820.69L-2074.85,877.69ZM-1985.31,802.262C-1993.5,816.44 -2011.65,821.305 -2025.83,813.119C-2040.01,804.934 -2044.88,786.778 -2036.69,772.6C-2028.51,758.422 -2010.35,753.557 -1996.17,761.743C-1981.99,769.928 -1977.13,788.085 -1985.31,802.262Z" style="fill:rgb(49,49,49);"/>
            </g>
        </g>
    </g>
</svg>
