<?xml version="1.0" encoding="UTF-8" standalone="no"?>
<!DOCTYPE svg PUBLIC "-//W3C//DTD SVG 1.1//EN" "http://www.w3.org/Graphics/SVG/1.1/DTD/svg11.dtd">
<svg width="100%" height="100%" viewBox="0 0 154 154" version="1.1" xmlns="http://www.w3.org/2000/svg" xmlns:xlink="http://www.w3.org/1999/xlink" xml:space="preserve" style="fill-rule:evenodd;clip-rule:evenodd;stroke-linejoin:round;stroke-miterlimit:1.41421;">
    <g id="ArtBoard1" transform="matrix(0.7431,0,0,0.7431,-2125.23,0)">
        <rect x="2859.96" y="0" width="206.625" height="206.625" style="fill:none;"/>
        <g transform="matrix(1.34571,0,0,1.34571,5682.66,-276.195)">
            <path d="M-2020.78,206.625C-1979.17,206.625 -1945.39,240.405 -1945.39,282.012C-1945.39,323.619 -1979.17,357.399 -2020.78,357.399C-2062.39,357.399 -2096.17,323.619 -2096.17,282.012C-2096.17,240.405 -2062.39,206.625 -2020.78,206.625ZM-2009.55,326.004C-2008,326.004 -2006.74,324.746 -2006.74,323.197L-2006.74,272.215C-2006.74,270.666 -2008,269.408 -2009.55,269.408L-2032.01,269.408C-2033.56,269.408 -2034.82,270.666 -2034.82,272.215L-2034.82,323.197C-2034.82,324.746 -2033.56,326.004 -2032.01,326.004L-2009.55,326.004ZM-2020.76,260.74C-2013.02,260.74 -2006.74,254.458 -2006.74,246.72C-2006.74,238.981 -2013.02,232.699 -2020.76,232.699L-2020.8,232.699C-2028.53,232.699 -2034.82,238.981 -2034.82,246.72C-2034.82,254.458 -2028.53,260.74 -2020.8,260.74L-2020.76,260.74Z" style="fill:rgb(49,49,49);"/>
        </g>
    </g>
</svg>
