<?xml version="1.0" encoding="UTF-8" standalone="no"?>
<!DOCTYPE svg PUBLIC "-//W3C//DTD SVG 1.1//EN" "http://www.w3.org/Graphics/SVG/1.1/DTD/svg11.dtd">
<svg width="100%" height="100%" viewBox="0 0 154 154" version="1.1" xmlns="http://www.w3.org/2000/svg" xmlns:xlink="http://www.w3.org/1999/xlink" xml:space="preserve" style="fill-rule:evenodd;clip-rule:evenodd;stroke-linejoin:round;stroke-miterlimit:1.41421;">
    <g transform="matrix(1,0,0,1,-553,-553)">
        <g id="ArtBoard1" transform="matrix(0.7431,0,0,0.7431,-1572.04,553.271)">
            <rect x="2859.96" y="0" width="206.625" height="206.625" style="fill:none;"/>
            <g transform="matrix(1.34571,0,0,1.34571,5694.53,-3267.44)">
                <path d="M-2029.6,2429.42C-1987.99,2429.42 -1954.21,2463.2 -1954.21,2504.81C-1954.21,2546.41 -1987.99,2580.19 -2029.6,2580.19C-2071.2,2580.19 -2104.99,2546.41 -2104.99,2504.81C-2104.99,2463.2 -2071.2,2429.42 -2029.6,2429.42ZM-2016.08,2491.29L-2016.08,2465.66C-2016.08,2464.16 -2017.29,2462.95 -2018.78,2462.95L-2040.41,2462.95C-2041.9,2462.95 -2043.12,2464.16 -2043.12,2465.66L-2043.12,2491.29L-2068.75,2491.29C-2070.24,2491.29 -2071.45,2492.5 -2071.45,2493.99L-2071.45,2515.62C-2071.45,2517.11 -2070.24,2518.33 -2068.75,2518.33L-2043.12,2518.33L-2043.12,2543.96C-2043.12,2545.45 -2041.9,2546.66 -2040.41,2546.66L-2018.78,2546.66C-2017.29,2546.66 -2016.08,2545.45 -2016.08,2543.96L-2016.08,2518.33L-1990.45,2518.33C-1988.95,2518.33 -1987.74,2517.11 -1987.74,2515.62L-1987.74,2493.99C-1987.74,2492.5 -1988.95,2491.29 -1990.45,2491.29L-2016.08,2491.29Z" style="fill:rgb(49,49,49);"/>
            </g>
        </g>
    </g>
</svg>
