<?xml version="1.0" encoding="UTF-8" standalone="no"?>
<!DOCTYPE svg PUBLIC "-//W3C//DTD SVG 1.1//EN" "http://www.w3.org/Graphics/SVG/1.1/DTD/svg11.dtd">
<svg width="100%" height="100%" viewBox="0 0 154 154" version="1.1" xmlns="http://www.w3.org/2000/svg" xmlns:xlink="http://www.w3.org/1999/xlink" xml:space="preserve" style="fill-rule:evenodd;clip-rule:evenodd;stroke-linejoin:round;stroke-miterlimit:1.41421;">
    <g transform="matrix(1,0,0,1,0,-838)">
        <g id="ArtBoard1" transform="matrix(0.7431,0,0,0.7431,-2125.23,838.39)">
            <rect x="2859.96" y="0" width="206.625" height="206.625" style="fill:none;"/>
            <g transform="matrix(1.34571,0,0,1.34571,5694.53,-3640.97)">
                <path d="M-2029.6,2706.99C-2071.2,2706.99 -2104.99,2740.77 -2104.99,2782.38C-2104.99,2823.99 -2071.2,2857.77 -2029.6,2857.77C-1987.99,2857.77 -1954.21,2823.99 -1954.21,2782.38C-1954.21,2740.77 -1987.99,2706.99 -2029.6,2706.99ZM-1990.45,2768.86L-2068.75,2768.86C-2070.24,2768.86 -2071.45,2770.07 -2071.45,2771.57L-2071.45,2793.2C-2071.45,2794.69 -2070.24,2795.9 -2068.75,2795.9L-1990.45,2795.9C-1988.95,2795.9 -1987.74,2794.69 -1987.74,2793.2L-1987.74,2771.57C-1987.74,2770.07 -1988.95,2768.86 -1990.45,2768.86Z" style="fill:rgb(49,49,49);"/>
            </g>
        </g>
    </g>
</svg>
