<?xml version="1.0" encoding="UTF-8" standalone="no"?>
<!DOCTYPE svg PUBLIC "-//W3C//DTD SVG 1.1//EN" "http://www.w3.org/Graphics/SVG/1.1/DTD/svg11.dtd">
<svg width="100%" height="100%" viewBox="0 0 155 154" version="1.1" xmlns="http://www.w3.org/2000/svg" xmlns:xlink="http://www.w3.org/1999/xlink" xml:space="preserve" style="fill-rule:evenodd;clip-rule:evenodd;stroke-linejoin:round;stroke-miterlimit:1.41421;">
    <g transform="matrix(1,0,0,1,-277,-272)">
        <g id="ArtBoard1" transform="matrix(0.7431,0,0,0.7431,-1847.35,272.117)">
            <rect x="2859.96" y="0" width="206.625" height="206.625" style="fill:none;"/>
            <g transform="matrix(1.34571,0,0,1.34571,5694.53,-1767.04)">
                <path d="M-2029.6,1314.7C-2071.2,1314.7 -2104.99,1348.48 -2104.99,1390.09C-2104.99,1431.7 -2071.2,1465.48 -2029.6,1465.48C-1987.99,1465.48 -1954.21,1431.7 -1954.21,1390.09C-1954.21,1348.48 -1987.99,1314.7 -2029.6,1314.7ZM-2026.4,1345.58C-2025.34,1344.53 -2023.63,1344.53 -2022.57,1345.58L-2007.28,1360.88C-2006.22,1361.93 -2006.22,1363.64 -2007.28,1364.7L-2033.23,1390.65L-2008.4,1415.48C-2007.34,1416.53 -2007.34,1418.25 -2008.4,1419.3L-2023.69,1434.6C-2024.75,1435.65 -2026.46,1435.65 -2027.52,1434.6L-2054.26,1407.86L-2069.55,1392.56C-2070.61,1391.51 -2070.61,1389.79 -2069.55,1388.74L-2054.26,1373.44L-2026.4,1345.58Z" style="fill:rgb(49,49,49);"/>
            </g>
        </g>
    </g>
</svg>
