<?xml version="1.0" encoding="UTF-8" standalone="no"?>
<!DOCTYPE svg PUBLIC "-//W3C//DTD SVG 1.1//EN" "http://www.w3.org/Graphics/SVG/1.1/DTD/svg11.dtd">
<svg width="100%" height="100%" viewBox="0 0 154 154" version="1.1" xmlns="http://www.w3.org/2000/svg" xmlns:xlink="http://www.w3.org/1999/xlink" xml:space="preserve" style="fill-rule:evenodd;clip-rule:evenodd;stroke-linejoin:round;stroke-miterlimit:1.41421;">
    <g transform="matrix(1,0,0,1,-553,-272)">
        <g id="ArtBoard1" transform="matrix(0.7431,0,0,0.7431,-1572.04,272.117)">
            <rect x="2859.96" y="0" width="206.625" height="206.625" style="fill:none;"/>
            <g transform="matrix(1.34571,0,0,1.34571,5694.53,-2132.85)">
                <path d="M-2029.6,1586.3C-2071.2,1586.3 -2104.99,1620.08 -2104.99,1661.69C-2104.99,1703.3 -2071.2,1737.08 -2029.6,1737.08C-1987.99,1737.08 -1954.21,1703.3 -1954.21,1661.69C-1954.21,1620.08 -1987.99,1586.3 -2029.6,1586.3ZM-2004.23,1618.48L-1993.27,1629.44L-1997.43,1641.76L-2060.03,1704.36C-2061.09,1705.41 -2062.8,1705.41 -2063.86,1704.36L-2079.15,1689.06C-2080.21,1688.01 -2080.21,1686.3 -2079.15,1685.24L-2016.55,1622.64L-2004.23,1618.48ZM-1991.96,1625.54L-2000.33,1617.16L-1987.69,1612.9L-1991.96,1625.54Z" style="fill:rgb(49,49,49);"/>
            </g>
        </g>
    </g>
</svg>
