<?xml version="1.0" encoding="UTF-8" standalone="no"?>
<!DOCTYPE svg PUBLIC "-//W3C//DTD SVG 1.1//EN" "http://www.w3.org/Graphics/SVG/1.1/DTD/svg11.dtd">
<svg width="100%" height="100%" viewBox="0 0 154 154" version="1.1" xmlns="http://www.w3.org/2000/svg" xmlns:xlink="http://www.w3.org/1999/xlink" xml:space="preserve" style="fill-rule:evenodd;clip-rule:evenodd;stroke-linejoin:round;stroke-miterlimit:1.41421;">
    <g transform="matrix(1,0,0,1,0,-553)">
        <g id="ArtBoard1" transform="matrix(0.7431,0,0,0.7431,-2125.23,553.271)">
            <rect x="2859.96" y="0" width="206.625" height="206.625" style="fill:none;"/>
            <g transform="matrix(1.34571,0,0,1.34571,5694.53,-2500.21)">
                <path d="M-2029.6,1859.29C-2071.2,1859.29 -2104.99,1893.07 -2104.99,1934.68C-2104.99,1976.28 -2071.2,2010.06 -2029.6,2010.06C-1987.99,2010.06 -1954.21,1976.28 -1954.21,1934.68C-1954.21,1893.07 -1987.99,1859.29 -2029.6,1859.29ZM-1995.25,1890.31L-1987.45,1882.5C-1987.3,1882.35 -1987.3,1882.11 -1987.45,1881.97L-1992.29,1877.13C-1992.43,1876.98 -1992.67,1876.98 -1992.82,1877.13L-2000.63,1884.93L-2000.63,1873.89C-2000.63,1873.68 -2000.8,1873.52 -2001.01,1873.52L-2007.85,1873.52C-2008.06,1873.52 -2008.23,1873.68 -2008.23,1873.89L-2008.23,1884.93L-2016.03,1877.13C-2016.18,1876.98 -2016.42,1876.98 -2016.57,1877.13L-2021.41,1881.97C-2021.56,1882.11 -2021.56,1882.35 -2021.41,1882.5L-2013.6,1890.31L-2024.64,1890.31C-2024.85,1890.31 -2025.02,1890.48 -2025.02,1890.68L-2025.02,1896.79L-2064.81,1896.79C-2066.57,1896.79 -2067.99,1898.21 -2067.99,1899.97L-2067.99,1980.14C-2067.99,1981.89 -2066.57,1983.32 -2064.81,1983.32L-2007.61,1983.32C-2005.85,1983.32 -2004.43,1981.89 -2004.43,1980.14L-2004.43,1914.7L-2001.01,1914.7C-2000.8,1914.7 -2000.63,1914.53 -2000.63,1914.32L-2000.63,1903.28L-1992.82,1911.09C-1992.67,1911.23 -1992.43,1911.23 -1992.29,1911.09L-1987.45,1906.25C-1987.3,1906.1 -1987.3,1905.86 -1987.45,1905.71L-1995.25,1897.91L-1984.22,1897.91C-1984.01,1897.91 -1983.84,1897.74 -1983.84,1897.53L-1983.84,1890.68C-1983.84,1890.48 -1984.01,1890.31 -1984.22,1890.31L-1995.25,1890.31Z" style="fill:rgb(49,49,49);"/>
            </g>
        </g>
    </g>
</svg>
