<?xml version="1.0" encoding="UTF-8" standalone="no"?>
<!DOCTYPE svg PUBLIC "-//W3C//DTD SVG 1.1//EN" "http://www.w3.org/Graphics/SVG/1.1/DTD/svg11.dtd">
<svg width="100%" height="100%" viewBox="0 0 155 154" version="1.1" xmlns="http://www.w3.org/2000/svg" xmlns:xlink="http://www.w3.org/1999/xlink" xml:space="preserve" style="fill-rule:evenodd;clip-rule:evenodd;stroke-linejoin:round;stroke-miterlimit:1.41421;">
    <g transform="matrix(1,0,0,1,-277,-838)">
        <g id="ArtBoard1" transform="matrix(0.7431,0,0,0.7431,-1847.35,838.39)">
            <rect x="2859.96" y="0" width="206.625" height="206.625" style="fill:none;"/>
            <g transform="matrix(1.34571,0,0,1.34571,5694.53,-4030.32)">
                <path d="M-2029.6,2996.32C-2071.2,2996.32 -2104.99,3030.1 -2104.99,3071.7C-2104.99,3113.31 -2071.2,3147.09 -2029.6,3147.09C-1987.99,3147.09 -1954.21,3113.31 -1954.21,3071.7C-1954.21,3030.1 -1987.99,2996.32 -2029.6,2996.32ZM-2056.86,3051.2C-2057.16,3051.22 -2057.45,3051.23 -2057.76,3051.23C-2065.89,3051.23 -2072.49,3044.63 -2072.49,3036.49C-2072.49,3028.36 -2065.89,3021.76 -2057.76,3021.76C-2049.62,3021.76 -2043.02,3028.36 -2043.02,3036.49C-2043.02,3036.74 -2043.03,3036.99 -2043.04,3037.24L-1992.94,3059.81C-1991.59,3058.08 -1989.49,3056.97 -1987.13,3056.97C-1983.06,3056.97 -1979.76,3060.27 -1979.76,3064.34C-1979.76,3068.4 -1983.06,3071.7 -1987.13,3071.7C-1991.2,3071.7 -1994.5,3068.4 -1994.5,3064.34C-1994.5,3063.73 -1994.42,3063.14 -1994.29,3062.57L-2045.49,3044.66C-2046.68,3046.44 -2048.24,3047.95 -2050.08,3049.07L-2033.64,3091.54C-2033.31,3091.52 -2032.98,3091.51 -2032.64,3091.51C-2022.63,3091.51 -2014.5,3099.64 -2014.5,3109.65C-2014.5,3119.67 -2022.63,3127.8 -2032.64,3127.8C-2042.65,3127.8 -2050.78,3119.67 -2050.78,3109.65C-2050.78,3104.37 -2048.52,3099.61 -2044.91,3096.29L-2056.86,3051.2Z" style="fill:rgb(49,49,49);"/>
            </g>
        </g>
    </g>
</svg>
