<?xml version="1.0" encoding="UTF-8" standalone="no"?>
<!DOCTYPE svg PUBLIC "-//W3C//DTD SVG 1.1//EN" "http://www.w3.org/Graphics/SVG/1.1/DTD/svg11.dtd">
<svg width="100%" height="100%" viewBox="0 0 155 154" version="1.1" xmlns="http://www.w3.org/2000/svg" xmlns:xlink="http://www.w3.org/1999/xlink" xml:space="preserve" style="fill-rule:evenodd;clip-rule:evenodd;stroke-linejoin:round;stroke-miterlimit:1.41421;">
    <g transform="matrix(1,0,0,1,-277,-553)">
        <g id="ArtBoard1" transform="matrix(0.7431,0,0,0.7431,-1847.35,553.271)">
            <rect x="2859.96" y="0" width="206.625" height="206.625" style="fill:none;"/>
            <g transform="matrix(1.34571,0,0,1.34571,5681.29,-2867.3)">
                <path d="M-1998.59,2133.82C-1968.07,2143.47 -1945.92,2172.03 -1945.92,2205.72C-1945.92,2247.33 -1979.71,2281.11 -2021.31,2281.11C-2059.88,2281.11 -2091.72,2252.08 -2096.17,2214.7L-2056.21,2191.63C-2052.83,2195.25 -2048.88,2198.17 -2044.58,2200.32L-2044.58,2254.4C-2044.58,2255.57 -2043.63,2256.53 -2042.45,2256.53L-1993.23,2256.53C-1992.06,2256.53 -1991.1,2255.57 -1991.1,2254.4L-1991.1,2216.08C-1991.1,2214.9 -1992.06,2213.95 -1993.23,2213.95L-2036.01,2213.95L-2036.01,2203.46C-2026.15,2205.88 -2015.37,2204.65 -2005.89,2199.17C-2003.83,2197.98 -2001.91,2196.64 -2000.14,2195.17C-1999.83,2196.52 -1999.66,2197.92 -1999.66,2199.34L-1999.66,2205.06L-1991.1,2205.06L-1991.1,2199.17C-1991.1,2195.28 -1991.95,2191.65 -1993.54,2188.18C-1984.13,2175.51 -1982.56,2157.93 -1990.95,2143.4C-1993.06,2139.75 -1995.65,2136.54 -1998.59,2133.82ZM-2060.3,2141.2C-2066.98,2151.26 -2068.98,2163.99 -2065.34,2175.8L-2095.68,2193.32C-2092.02,2171.23 -2078.74,2152.38 -2060.3,2141.2ZM-2008.54,2183.71C-2015.52,2179.55 -2024.69,2180.48 -2030.7,2186.48C-2031.64,2187.43 -2032.48,2188.47 -2033.18,2189.58C-2026.59,2191.33 -2019.34,2190.58 -2012.97,2186.91C-2011.36,2185.98 -2009.88,2184.9 -2008.54,2183.71ZM-2003.13,2177.01C-1998.61,2169.05 -1998.31,2158.97 -2003.21,2150.48C-2010.57,2137.74 -2026.89,2133.36 -2039.64,2140.72C-2052.39,2148.08 -2056.76,2164.4 -2049.4,2177.15C-2047.27,2180.84 -2044.38,2183.84 -2041.04,2186.04C-2039.88,2184.01 -2038.44,2182.12 -2036.75,2180.43C-2027.62,2171.3 -2013.51,2170.16 -2003.13,2177.01Z" style="fill:rgb(49,49,49);"/>
            </g>
        </g>
    </g>
</svg>
