<?xml version="1.0" encoding="UTF-8" standalone="no"?>
<!DOCTYPE svg PUBLIC "-//W3C//DTD SVG 1.1//EN" "http://www.w3.org/Graphics/SVG/1.1/DTD/svg11.dtd">
<svg width="100%" height="100%" viewBox="0 0 120 119" version="1.1" xmlns="http://www.w3.org/2000/svg" xmlns:xlink="http://www.w3.org/1999/xlink" xml:space="preserve" style="fill-rule:evenodd;clip-rule:evenodd;stroke-linejoin:round;stroke-miterlimit:1.41421;">
    <g transform="matrix(1,0,0,1,-129,-11)">
        <g transform="matrix(2.07241,0,0,2.07241,-1332.78,-163.051)">
            <g id="projekt">
                <g>
                    <g id="g4832" transform="matrix(0.504352,0,0,0.504352,662.424,-382.15)">
                        <circle id="circle4834" cx="142.5" cy="981.5" r="56.5" style="fill:rgb(90,175,108);"/>
                        <g id="g4836" transform="matrix(1,0,0,1,-3.17264,-1.57863)">
                            <g id="g4854" transform="matrix(0.584267,-0.584267,0.584267,0.584267,-518.671,480.453)">
                                <path id="path4856" d="M129.464,947.011C131.687,948.816 134.302,948.272 137.036,947.011L133.25,936.601L129.464,947.011Z" style="fill:white;fill-rule:nonzero;"/>
                                <path id="path4860" d="M122.292,953.332C128.283,957.089 133.672,957.151 138.545,954.044L143.603,1041.42L127.35,1040.71L122.292,953.332Z" style="fill:rgb(90,175,108);fill-rule:nonzero;"/>
                                <path id="path4862" d="M127.25,954.25C131.56,956.835 135.545,956.707 139.25,954.25L139.25,1040.5C136.464,1042.76 133.499,1044.68 127.25,1040.5L127.25,954.25Z" style="fill:white;fill-rule:nonzero;"/>
                            </g>
                        </g>
                    </g>
                    <g id="rect5008" transform="matrix(0.741894,0.670517,-0.670517,0.741894,0,0)">
                        <rect x="615.477" y="-430.335" width="9.095" height="42.392" style="fill:white;"/>
                    </g>
                    <circle id="path5010" cx="745.916" cy="99.348" r="1.183" style="fill:rgb(90,175,108);"/>
                    <g id="rect5012" transform="matrix(0.741894,0.670517,-0.670517,0.741894,0,0)">
                        <rect x="621.867" y="-420.362" width="2.705" height="0.864" style="fill:rgb(90,175,108);"/>
                    </g>
                    <g id="rect5016" transform="matrix(0.741894,0.670517,-0.670517,0.741894,0,0)">
                        <rect x="621.867" y="-412.15" width="2.705" height="0.842" style="fill:rgb(90,175,108);"/>
                    </g>
                    <g id="rect5018" transform="matrix(0.741894,0.670517,-0.670517,0.741894,0,0)">
                        <rect x="621.867" y="-416.256" width="2.705" height="0.903" style="fill:rgb(90,175,108);"/>
                    </g>
                    <g id="rect5020" transform="matrix(0.741894,0.670517,-0.670517,0.741894,0,0)">
                        <rect x="621.867" y="-407.518" width="2.705" height="0.872" style="fill:rgb(90,175,108);"/>
                    </g>
                    <g id="rect5022" transform="matrix(0.741894,0.670517,-0.670517,0.741894,0,0)">
                        <rect x="621.867" y="-402.573" width="2.705" height="0.801" style="fill:rgb(90,175,108);"/>
                    </g>
                    <g id="rect5024" transform="matrix(0.741894,0.670517,-0.670517,0.741894,0,0)">
                        <rect x="621.867" y="-397.426" width="2.705" height="0.868" style="fill:rgb(90,175,108);"/>
                    </g>
                </g>
            </g>
        </g>
    </g>
</svg>
