<?xml version="1.0" encoding="UTF-8" standalone="no"?>
<!DOCTYPE svg PUBLIC "-//W3C//DTD SVG 1.1//EN" "http://www.w3.org/Graphics/SVG/1.1/DTD/svg11.dtd">
<svg width="100%" height="100%" viewBox="0 0 119 119" version="1.1" xmlns="http://www.w3.org/2000/svg" xmlns:xlink="http://www.w3.org/1999/xlink" xml:space="preserve" style="fill-rule:evenodd;clip-rule:evenodd;stroke-linejoin:round;stroke-miterlimit:1.41421;">
    <g transform="matrix(1,0,0,1,0,-11)">
        <g id="wissenskarte3" transform="matrix(1.04522,0,0,1.04522,-246.53,-955.021)">
            <circle id="circle4866" cx="292.407" cy="981.5" r="56.5" style="fill:rgb(90,175,108);"/>
            <path id="path4868" d="M266.857,1001.75C267.343,996.977 264.959,990.246 267.974,988.588C270.989,986.931 272.965,990.746 274.568,992.029C276.171,993.311 276.393,995.832 277.722,995.756C279.05,995.68 279.442,994.322 279.442,993.176C279.442,992.029 276.284,987.21 278.008,985.721C279.733,984.233 282.373,986.211 283.742,987.728C285.111,989.246 283.376,992.116 285.176,993.749C286.975,995.382 294.637,994.896 293.49,994.896C292.343,994.896 289.607,987.513 290.623,985.435C291.639,983.357 293.498,985.386 294.35,984.001C295.203,982.617 292.598,979.154 293.777,978.267C294.956,977.38 295.784,977.12 296.644,979.414C297.504,981.708 298.043,986.035 298.937,988.015C299.832,989.995 300.293,991.134 301.231,991.455C302.169,991.777 302.378,992.315 302.951,990.882C303.525,989.449 302.611,989.582 304.035,988.571C305.46,987.559 309.389,988.313 310.22,990.785C311.051,993.256 308.503,993.228 308.775,995.752C309.047,998.275 310.532,1001.8 313.751,1002.43C316.969,1003.06 321.099,997.681 323.668,997.669C326.238,997.656 326.445,998.612 327.076,999.421C327.707,1000.23 326.837,1000.16 328.071,1000.2C329.304,1000.24 329.948,997.232 329.338,995.885C328.728,994.538 327.913,994.075 325.369,994.044C322.825,994.013 318.047,998.626 315.382,998.384C312.717,998.142 310.984,997.368 311.094,995.505C311.204,993.641 315.572,993.913 316.467,992.754C317.362,991.595 317.179,990.734 316.582,989.606C315.984,988.479 314.455,988.102 312.765,987.212C311.076,986.322 306.871,985.173 306.387,984.446C305.903,983.718 305.49,983.075 305.191,982.557C304.891,982.039 304.705,981.647 304.671,981.421C304.405,979.616 305.896,979.321 306.392,977.981C306.887,976.64 305.905,973.573 307.538,973.393C309.171,973.214 309.009,976.168 309.832,977.981C310.654,979.793 310.36,984.068 312.412,984.288C314.464,984.508 315.214,982.435 315.566,979.701C315.917,976.967 314.743,971.868 311.839,969.38C308.934,966.891 303.001,968.733 300.084,967.086C297.168,965.439 294.41,963.296 294.637,961.065C294.864,958.835 296.594,957.814 298.937,957.912C301.281,958.009 302.749,962.409 305.531,963.646C308.314,964.882 313.24,967.072 314.993,964.792C316.745,962.513 313.045,959.374 312.126,957.625C311.206,955.876 309.375,955.684 309.832,954.185C310.289,952.685 305.266,948.542 314.706,952.178C321.572,954.822 355.885,966.46 345.383,998.336C333.711,1033.76 283.742,1035.89 283.169,1034.75C282.596,1033.6 267.302,1023.62 265.02,1017.21C262.738,1010.8 266.371,1006.52 266.857,1001.75L266.857,1001.75Z" style="fill:white;"/>
            <path id="path4870" d="M292.406,925C261.302,925 235.906,950.396 235.906,981.5C235.906,1012.6 261.302,1038 292.406,1038C323.511,1038 348.906,1012.6 348.906,981.5C348.906,950.396 323.511,925 292.406,925ZM292.406,941.844C314.402,941.844 332.063,959.504 332.063,981.5C332.063,1003.5 314.402,1021.16 292.406,1021.16C270.41,1021.16 252.75,1003.5 252.75,981.5C252.75,959.504 270.41,941.844 292.406,941.844Z" style="fill:rgb(90,175,108);fill-rule:nonzero;"/>
            <path id="path4872" d="M284.787,979.602C283.168,980.362 280.544,979.567 279.661,978.011C278.673,976.27 280.379,974.053 281.075,972.177C282.111,969.385 282.165,964.104 285.141,964.222C287.754,964.326 288.144,968.855 288.146,971.47C288.148,974.403 287.442,978.355 284.787,979.602L284.787,979.602Z" style="fill:white;"/>
        </g>
    </g>
</svg>
