<?xml version="1.0" encoding="utf-8"?>
<!-- Generator: Adobe Illustrator 15.1.0, SVG Export Plug-In  -->
<!DOCTYPE svg PUBLIC "-//W3C//DTD SVG 1.1//EN" "http://www.w3.org/Graphics/SVG/1.1/DTD/svg11.dtd" [
	<!ENTITY ns_flows "http://ns.adobe.com/Flows/1.0/">
]>
<svg version="1.1"
	 xmlns="http://www.w3.org/2000/svg" xmlns:xlink="http://www.w3.org/1999/xlink" xmlns:a="http://ns.adobe.com/AdobeSVGViewerExtensions/3.0/"
	 x="0px" y="0px" width="1024px" height="335px" viewBox="-29.948 -39.979 1024 335"
	 overflow="visible" enable-background="new -29.948 -39.979 1024 335" xml:space="preserve">
<defs>
</defs>
<path id="Circle-3_1_" fill="#0090D0" d="M931.694,30.721c-40.961-40.961-107.355-40.961-148.317,0
	c-33.606,33.601-39.614,84.319-18.084,124.077c-3.522-8.824-5.373-18.322-5.373-28.106c0-20.252,7.88-39.286,22.198-53.604
	c14.318-14.321,33.357-22.207,53.606-22.207s39.288,7.885,53.606,22.207c29.553,29.559,29.553,77.651,0,107.204
	c-14.318,14.318-33.357,22.209-53.606,22.209c-9.785,0-19.277-1.861-28.096-5.378c39.752,21.529,90.471,15.517,124.065-18.085
	C972.655,138.083,972.655,71.677,931.694,30.721z"/>
<path id="Circle-2_1_" fill="#7BB142" d="M884.582,77.831c-13.048-13.048-30.397-20.238-48.857-20.238
	c-18.454,0-35.804,7.189-48.857,20.238c-13.054,13.051-20.238,30.403-20.238,48.86c0,0.701,0.028,1.399,0.05,2.101
	c2.518-6.546,6.4-12.681,11.668-17.951c9.779-9.779,22.783-15.163,36.609-15.163c13.833,0,26.837,5.384,36.616,15.166
	c9.779,9.779,15.169,22.78,15.169,36.609c0,13.833-5.39,26.837-15.169,36.61c-5.174,5.18-11.254,9.111-17.88,11.674
	c0.68,0.021,1.353,0.055,2.032,0.055c18.46,0,35.81-7.189,48.857-20.243C911.523,148.613,911.523,104.775,884.582,77.831z"/>
<path id="Circle-1_1_" fill="#808184" d="M814.956,102.39c-12.037,0-23.352,4.688-31.86,13.2c-17.576,17.568-17.576,46.16,0,63.736
	c8.509,8.504,19.829,13.197,31.866,13.197c12.038,0,23.353-4.693,31.867-13.197c8.509-8.514,13.197-19.834,13.197-31.872
	c0-12.037-4.688-23.354-13.197-31.864C838.314,107.077,826.994,102.39,814.956,102.39z"/>
<path fill="#FFFFFF" d="M807.558,141.865v-19.028h14.81v19.028h19.017v14.804h-19.017v19.023h-14.81v-19.023h-19.023v-14.804
	H807.558z"/>
<path fill="#808184" d="M87.985,125.413v14.116H17.405v45.175h67.29v14.113h-67.29v61.172H0V125.413H87.985z"/>
<path fill="#808184" d="M102.1,230.154c0-20.265,13.363-30.397,40.089-30.397c8.603,0,17.195,0.629,25.787,1.883v-9.315
	c0-11.353-8.879-17.035-26.627-17.035c-10.171,0-20.585,1.568-31.242,4.705v-14.12c10.657-3.136,21.071-4.704,31.242-4.704
	c29.354,0,44.043,10.227,44.043,30.68v68.14h-9.785l-6.03-9.79c-9.851,6.526-20.575,9.79-32.181,9.79
	C113.872,259.989,102.1,250.044,102.1,230.154z M142.188,213.87c-15.119,0-22.673,5.334-22.673,16.003
	c0,10.668,5.952,15.997,17.88,15.997c12.048,0,22.242-3.197,30.58-9.603v-20.509C159.383,214.5,150.791,213.87,142.188,213.87z"/>
<path fill="#808184" d="M287.966,257.162c-8.15,1.883-16.93,2.827-26.351,2.827c-35.13,0-52.701-17.096-52.701-51.293
	c0-31.679,17.571-47.526,52.701-47.526c9.42,0,18.2,0.944,26.351,2.827v14.113c-8.15-1.877-17.25-2.821-27.289-2.821
	c-22.894,0-34.346,11.138-34.346,33.407c0,24.788,11.452,37.174,34.346,37.174c10.039,0,19.139-0.944,27.289-2.822V257.162z"/>
<path fill="#808184" d="M310.086,259.989V125.413h17.405v46.491c8.415-7.156,18.664-10.734,30.779-10.734
	c24.661,0,36.986,12.27,36.986,36.798v62.021H377.84v-62.303c0-14.684-7.312-22.021-21.922-22.021
	c-9.973,0-19.448,4.174-28.427,12.518v71.807H310.086z"/>
<path fill="#0090D0" d="M418.779,230.154c0-20.265,13.363-30.397,40.089-30.397c8.592,0,17.184,0.629,25.788,1.883v-9.315
	c0-11.353-8.88-17.035-26.638-17.035c-10.161,0-20.575,1.568-31.243,4.705v-14.12c10.668-3.136,21.083-4.704,31.243-4.704
	c29.365,0,44.042,10.227,44.042,30.68v68.14h-9.785l-6.019-9.79c-9.851,6.526-20.585,9.79-32.192,9.79
	C430.54,259.989,418.779,250.044,418.779,230.154z M458.868,213.87c-15.119,0-22.684,5.334-22.684,16.003
	c0,10.668,5.964,15.997,17.88,15.997c12.049,0,22.242-3.197,30.592-9.603v-20.509C476.052,214.5,467.46,213.87,458.868,213.87z"/>
<path fill="#0090D0" d="M530.299,259.989V161.17h11.761l3.104,12.612c8.658-8.404,19.073-12.612,31.243-12.612v14.495
	c-11.795,0-21.358,4.174-28.703,12.518v71.807H530.299z"/>
<path fill="#0090D0" d="M590.995,161.17h77.174v14.119l-59.007,71.524h57.118v13.176h-77.163v-13.176l59.758-71.524h-57.88V161.17z"
	/>
<path fill="#0090D0" d="M691.692,145.179h10.91l3.767,15.991h26.726v14.119h-23.998v56.749c0,9.221,3.986,13.832,11.961,13.832
	h12.037v14.119H716.54c-16.565,0-24.848-8.879-24.848-26.638V145.179z"/>
</svg>
