<?xml version="1.0" encoding="utf-8"?>
<!-- Generator: Adobe Illustrator 18.1.1, SVG Export Plug-In . SVG Version: 6.00 Build 0)  -->
<!DOCTYPE svg PUBLIC "-//W3C//DTD SVG 1.1//EN" "http://www.w3.org/Graphics/SVG/1.1/DTD/svg11.dtd">
<svg version="1.1" id="Ebene_1" xmlns="http://www.w3.org/2000/svg" xmlns:xlink="http://www.w3.org/1999/xlink" x="0px" y="0px"
	 viewBox="0 0 566.9 163.7" enable-background="new 0 0 566.9 163.7" xml:space="preserve">
<g>
	<g>
		<path fill="#356093" d="M43.7,98c0,1.2-0.1,2.3-0.2,3.1c-0.1,0.8-0.3,1.5-0.5,2.1c-0.2,0.6-0.5,1-0.8,1.2
			c-0.3,0.2-0.7,0.4-1.1,0.4H4.8c-1.4,0-2.5-0.4-3.4-1.2c-0.9-0.8-1.4-2.1-1.4-3.9V27.5c0-0.4,0.1-0.8,0.4-1.1
			c0.3-0.3,0.7-0.6,1.3-0.8c0.6-0.2,1.4-0.4,2.5-0.5c1-0.1,2.3-0.2,3.9-0.2c1.6,0,2.9,0.1,3.9,0.2c1,0.1,1.8,0.3,2.5,0.5
			c0.6,0.2,1.1,0.5,1.3,0.8c0.3,0.3,0.4,0.7,0.4,1.1v63.9h25c0.4,0,0.8,0.1,1.1,0.3c0.3,0.2,0.6,0.6,0.8,1.1c0.2,0.5,0.4,1.2,0.5,2
			C43.6,95.7,43.7,96.8,43.7,98z"/>
		<path fill="#356093" d="M102.9,73.7c0,1.9-0.4,3.3-1.3,4.2c-0.8,0.9-2,1.4-3.5,1.4H64.8c0,2.3,0.3,4.5,0.8,6.4
			c0.6,1.9,1.4,3.5,2.6,4.9c1.2,1.3,2.8,2.3,4.7,3c1.9,0.7,4.2,1,6.8,1c2.7,0,5.1-0.2,7.1-0.6c2-0.4,3.8-0.8,5.3-1.3
			c1.5-0.5,2.7-0.9,3.7-1.3c1-0.4,1.8-0.6,2.4-0.6c0.4,0,0.7,0.1,0.9,0.2c0.2,0.1,0.4,0.4,0.6,0.8c0.2,0.4,0.3,0.9,0.3,1.6
			s0.1,1.5,0.1,2.5c0,0.9,0,1.7-0.1,2.3c0,0.6-0.1,1.2-0.2,1.6c-0.1,0.5-0.2,0.8-0.4,1.1c-0.2,0.3-0.4,0.6-0.6,0.9
			c-0.3,0.3-1,0.7-2.2,1.2c-1.2,0.5-2.7,1-4.5,1.4c-1.8,0.5-4,0.9-6.3,1.2c-2.4,0.3-4.9,0.5-7.6,0.5c-4.9,0-9.1-0.6-12.8-1.8
			c-3.7-1.2-6.7-3.1-9.2-5.6c-2.5-2.5-4.3-5.7-5.5-9.5c-1.2-3.8-1.8-8.3-1.8-13.4c0-4.9,0.6-9.3,1.9-13.2c1.3-3.9,3.1-7.2,5.5-10
			c2.4-2.7,5.4-4.8,8.8-6.2c3.5-1.4,7.4-2.1,11.7-2.1c4.6,0,8.5,0.7,11.8,2s5.9,3.2,8,5.6c2.1,2.4,3.6,5.2,4.6,8.5
			c1,3.3,1.5,6.8,1.5,10.7V73.7z M87.9,69.2c0.1-4.3-0.7-7.7-2.6-10.2c-1.9-2.5-4.7-3.7-8.6-3.7c-2,0-3.7,0.4-5.1,1.1
			c-1.5,0.7-2.7,1.7-3.6,3c-1,1.2-1.7,2.7-2.2,4.4c-0.5,1.7-0.8,3.5-0.9,5.4H87.9z"/>
		<path fill="#356093" d="M150.8,53c0,1.5,0,2.7-0.1,3.6c-0.1,0.9-0.2,1.7-0.4,2.2c-0.2,0.5-0.4,0.9-0.6,1.1c-0.3,0.2-0.6,0.3-1,0.3
			c-0.3,0-0.7-0.1-1.1-0.2c-0.4-0.1-0.9-0.3-1.4-0.5c-0.5-0.2-1.1-0.3-1.7-0.5c-0.6-0.1-1.3-0.2-2-0.2c-0.9,0-1.7,0.2-2.6,0.5
			s-1.8,0.9-2.7,1.6c-0.9,0.7-1.9,1.7-2.9,2.9c-1,1.2-2.1,2.7-3.2,4.5v34.2c0,0.4-0.1,0.8-0.4,1.1c-0.2,0.3-0.7,0.6-1.3,0.8
			c-0.6,0.2-1.4,0.4-2.4,0.5c-1,0.1-2.2,0.2-3.7,0.2c-1.5,0-2.8-0.1-3.7-0.2c-1-0.1-1.8-0.3-2.4-0.5c-0.6-0.2-1-0.5-1.3-0.8
			c-0.2-0.3-0.4-0.7-0.4-1.1V47.9c0-0.4,0.1-0.8,0.3-1.1c0.2-0.3,0.6-0.6,1.1-0.8c0.5-0.2,1.2-0.4,2.1-0.5c0.8-0.1,1.9-0.2,3.2-0.2
			c1.3,0,2.4,0.1,3.3,0.2c0.9,0.1,1.5,0.3,2,0.5c0.5,0.2,0.8,0.5,1,0.8c0.2,0.3,0.3,0.7,0.3,1.1v6.8c1.4-2,2.8-3.7,4.1-5.1
			c1.3-1.3,2.5-2.4,3.6-3.2c1.1-0.8,2.3-1.3,3.4-1.6c1.1-0.3,2.3-0.5,3.4-0.5c0.5,0,1.1,0,1.7,0.1c0.6,0.1,1.2,0.2,1.9,0.3
			c0.7,0.1,1.2,0.3,1.7,0.5c0.5,0.2,0.8,0.4,1.1,0.6c0.2,0.2,0.4,0.4,0.5,0.7c0.1,0.2,0.2,0.6,0.3,1c0.1,0.4,0.1,1.1,0.2,1.9
			C150.8,50.3,150.8,51.5,150.8,53z"/>
		<path fill="#356093" d="M212.7,102.7c0,0.4-0.1,0.8-0.4,1.1c-0.2,0.3-0.7,0.6-1.2,0.8c-0.6,0.2-1.4,0.4-2.4,0.5
			c-1,0.1-2.2,0.2-3.7,0.2c-1.5,0-2.8-0.1-3.8-0.2c-1-0.1-1.8-0.3-2.4-0.5c-0.6-0.2-1-0.5-1.2-0.8c-0.2-0.3-0.4-0.7-0.4-1.1V71.4
			c0-2.7-0.2-4.7-0.6-6.3c-0.4-1.5-1-2.8-1.7-3.9c-0.7-1.1-1.7-1.9-2.9-2.5c-1.2-0.6-2.5-0.9-4.1-0.9c-2,0-4,0.7-6,2.1
			c-2,1.4-4.1,3.5-6.3,6.3v36.4c0,0.4-0.1,0.8-0.4,1.1c-0.2,0.3-0.7,0.6-1.3,0.8c-0.6,0.2-1.4,0.4-2.4,0.5c-1,0.1-2.2,0.2-3.7,0.2
			c-1.5,0-2.8-0.1-3.7-0.2c-1-0.1-1.8-0.3-2.4-0.5s-1-0.5-1.3-0.8c-0.2-0.3-0.4-0.7-0.4-1.1V47.9c0-0.4,0.1-0.8,0.3-1.1
			c0.2-0.3,0.6-0.6,1.1-0.8c0.5-0.2,1.2-0.4,2.1-0.5c0.8-0.1,1.9-0.2,3.2-0.2c1.3,0,2.4,0.1,3.3,0.2c0.9,0.1,1.5,0.3,2,0.5
			c0.5,0.2,0.8,0.5,1,0.8c0.2,0.3,0.3,0.7,0.3,1.1v6.3c3-3.3,6.1-5.7,9.2-7.4c3.1-1.6,6.4-2.5,9.8-2.5c3.7,0,6.9,0.6,9.4,1.8
			c2.6,1.2,4.6,2.9,6.2,5c1.6,2.1,2.7,4.6,3.4,7.4c0.7,2.8,1,6.2,1,10.2V102.7z"/>
		<path fill="#356093" d="M279.8,102.7c0,0.5-0.1,0.8-0.3,1.1c-0.2,0.3-0.6,0.6-1,0.8c-0.5,0.2-1.2,0.3-2,0.4
			c-0.8,0.1-1.9,0.1-3.1,0.1c-1.3,0-2.4,0-3.2-0.1c-0.8-0.1-1.5-0.2-2-0.4c-0.5-0.2-0.9-0.5-1.1-0.8c-0.2-0.3-0.3-0.7-0.3-1.1v-6.1
			c-2.8,3-5.8,5.4-8.9,7.1c-3.1,1.7-6.5,2.5-10.3,2.5c-4.2,0-7.7-0.8-10.6-2.4c-2.9-1.6-5.2-3.8-7.1-6.5c-1.8-2.7-3.1-5.9-4-9.6
			c-0.8-3.7-1.2-7.5-1.2-11.6c0-4.9,0.5-9.3,1.6-13.1c1-3.9,2.6-7.2,4.6-9.9c2-2.7,4.5-4.9,7.5-6.3c3-1.5,6.4-2.2,10.3-2.2
			c3.1,0,5.9,0.6,8.4,1.9c2.5,1.2,5,3.1,7.4,5.5V22.1c0-0.4,0.1-0.8,0.3-1.1s0.6-0.6,1.2-0.8c0.6-0.2,1.4-0.4,2.4-0.5
			c1-0.1,2.2-0.2,3.7-0.2c1.5,0,2.8,0.1,3.7,0.2c1,0.1,1.8,0.3,2.3,0.5c0.6,0.2,1,0.5,1.2,0.8c0.2,0.3,0.4,0.7,0.4,1.1V102.7z
			 M264.4,66c-2.2-2.8-4.3-4.9-6.4-6.4c-2-1.5-4.1-2.2-6.4-2.2c-2,0-3.7,0.5-5.2,1.5c-1.5,1-2.6,2.3-3.5,4c-0.9,1.7-1.5,3.6-2,5.6
			c-0.4,2.1-0.6,4.2-0.6,6.4c0,2.3,0.2,4.5,0.6,6.7c0.4,2.2,1,4.1,1.8,5.8c0.8,1.7,2,3.1,3.3,4.1c1.4,1,3.2,1.5,5.3,1.5
			c1.1,0,2.1-0.2,3.1-0.5c1-0.3,2-0.8,3.1-1.5c1-0.7,2.1-1.6,3.2-2.7c1.1-1.1,2.3-2.5,3.6-4.1V66z"/>
	</g>
	<g>
		<path fill="#356093" d="M447.8,150.6c1,3,1.6,5.4,1.9,7.1s-0.1,3.1-1,3.9c-0.9,0.9-2.5,1.4-4.9,1.6c-2.3,0.2-5.6,0.3-9.7,0.3
			c-4.3,0-7.6-0.1-10-0.2c-2.4-0.1-4.2-0.4-5.5-0.8c-1.3-0.4-2.1-0.9-2.6-1.6c-0.5-0.7-0.9-1.5-1.3-2.6L404,126h-60.9l-10.3,31.7
			c-0.3,1.2-0.8,2.2-1.3,2.9c-0.5,0.8-1.4,1.4-2.6,1.9c-1.2,0.5-2.9,0.8-5.1,0.9c-2.2,0.2-5.1,0.2-8.7,0.2c-3.8,0-6.9-0.1-9-0.4
			c-2.2-0.2-3.7-0.9-4.5-1.8c-0.8-1-1.1-2.3-0.9-4.1c0.3-1.8,0.9-4.1,1.9-7l50-143.9c0.5-1.4,1.1-2.6,1.8-3.4c0.7-0.9,1.7-1.5,3.2-2
			c1.5-0.5,3.5-0.8,6.1-0.9c2.6-0.1,6-0.2,10.3-0.2c4.9,0,8.9,0.1,11.8,0.2c2.9,0.1,5.2,0.4,6.8,0.9c1.6,0.5,2.8,1.1,3.5,2.1
			s1.3,2.2,1.8,3.8L447.8,150.6z M373.4,31.7h-0.1l-22.9,68.9h46L373.4,31.7z"/>
	</g>
	<g>
		<path fill="#356093" d="M21,157.2c0,0.5,0,0.9-0.1,1.3c0,0.3-0.1,0.6-0.2,0.8c-0.1,0.2-0.2,0.4-0.3,0.5c-0.1,0.1-0.3,0.1-0.4,0.1
			H5.2c-0.6,0-1-0.2-1.4-0.5c-0.4-0.3-0.6-0.9-0.6-1.6v-29.3c0-0.2,0.1-0.3,0.2-0.4c0.1-0.1,0.3-0.2,0.5-0.3c0.3-0.1,0.6-0.1,1-0.2
			c0.4-0.1,1-0.1,1.6-0.1c0.6,0,1.2,0,1.6,0.1c0.4,0,0.7,0.1,1,0.2c0.2,0.1,0.4,0.2,0.5,0.3c0.1,0.1,0.2,0.3,0.2,0.4v26H20
			c0.2,0,0.3,0,0.4,0.1c0.1,0.1,0.2,0.2,0.3,0.4s0.1,0.5,0.2,0.8C20.9,156.2,21,156.7,21,157.2z"/>
		<path fill="#356093" d="M45,147.3c0,0.8-0.2,1.3-0.5,1.7c-0.3,0.4-0.8,0.5-1.4,0.5H29.6c0,0.9,0.1,1.8,0.3,2.6
			c0.2,0.8,0.6,1.4,1.1,2c0.5,0.5,1.1,1,1.9,1.2c0.8,0.3,1.7,0.4,2.8,0.4c1.1,0,2.1-0.1,2.9-0.2c0.8-0.2,1.6-0.3,2.2-0.5
			c0.6-0.2,1.1-0.4,1.5-0.5c0.4-0.2,0.7-0.2,1-0.2c0.2,0,0.3,0,0.4,0.1s0.2,0.2,0.3,0.3c0.1,0.1,0.1,0.4,0.1,0.6c0,0.3,0,0.6,0,1
			c0,0.4,0,0.7,0,0.9c0,0.3,0,0.5-0.1,0.7c0,0.2-0.1,0.3-0.2,0.5c-0.1,0.1-0.2,0.2-0.3,0.4c-0.1,0.1-0.4,0.3-0.9,0.5
			c-0.5,0.2-1.1,0.4-1.8,0.6c-0.7,0.2-1.6,0.4-2.6,0.5c-1,0.1-2,0.2-3.1,0.2c-2,0-3.7-0.2-5.2-0.7c-1.5-0.5-2.7-1.3-3.7-2.3
			c-1-1-1.7-2.3-2.2-3.8c-0.5-1.5-0.7-3.4-0.7-5.4c0-2,0.3-3.8,0.8-5.4c0.5-1.6,1.3-2.9,2.2-4c1-1.1,2.2-2,3.6-2.5s3-0.9,4.8-0.9
			c1.9,0,3.5,0.3,4.8,0.8c1.3,0.5,2.4,1.3,3.3,2.3c0.8,1,1.5,2.1,1.9,3.5c0.4,1.3,0.6,2.8,0.6,4.3V147.3z M39,145.5
			c0-1.8-0.3-3.1-1.1-4.2c-0.8-1-1.9-1.5-3.5-1.5c-0.8,0-1.5,0.1-2.1,0.4c-0.6,0.3-1.1,0.7-1.5,1.2c-0.4,0.5-0.7,1.1-0.9,1.8
			c-0.2,0.7-0.3,1.4-0.4,2.2H39z"/>
		<path fill="#356093" d="M64.5,138.9c0,0.6,0,1.1-0.1,1.5c0,0.4-0.1,0.7-0.1,0.9c-0.1,0.2-0.2,0.4-0.3,0.4
			c-0.1,0.1-0.2,0.1-0.4,0.1c-0.1,0-0.3,0-0.5-0.1c-0.2-0.1-0.4-0.1-0.6-0.2c-0.2-0.1-0.4-0.1-0.7-0.2c-0.2-0.1-0.5-0.1-0.8-0.1
			c-0.4,0-0.7,0.1-1,0.2c-0.4,0.1-0.7,0.4-1.1,0.7c-0.4,0.3-0.8,0.7-1.2,1.2c-0.4,0.5-0.8,1.1-1.3,1.8v13.9c0,0.2-0.1,0.3-0.2,0.4
			c-0.1,0.1-0.3,0.2-0.5,0.3c-0.2,0.1-0.6,0.1-1,0.2c-0.4,0-0.9,0.1-1.5,0.1s-1.1,0-1.5-0.1c-0.4,0-0.7-0.1-1-0.2
			c-0.2-0.1-0.4-0.2-0.5-0.3c-0.1-0.1-0.1-0.3-0.1-0.4v-22.3c0-0.2,0-0.3,0.1-0.4c0.1-0.1,0.2-0.2,0.5-0.3c0.2-0.1,0.5-0.1,0.8-0.2
			s0.8-0.1,1.3-0.1c0.5,0,1,0,1.3,0.1s0.6,0.1,0.8,0.2c0.2,0.1,0.3,0.2,0.4,0.3c0.1,0.1,0.1,0.3,0.1,0.4v2.8
			c0.6-0.8,1.1-1.5,1.6-2.1c0.5-0.5,1-1,1.5-1.3c0.5-0.3,0.9-0.5,1.4-0.7c0.5-0.1,0.9-0.2,1.4-0.2c0.2,0,0.4,0,0.7,0
			c0.2,0,0.5,0.1,0.8,0.1c0.3,0.1,0.5,0.1,0.7,0.2c0.2,0.1,0.3,0.2,0.4,0.2c0.1,0.1,0.2,0.2,0.2,0.3c0,0.1,0.1,0.2,0.1,0.4
			c0,0.2,0.1,0.4,0.1,0.8S64.5,138.3,64.5,138.9z"/>
		<path fill="#356093" d="M89.7,159.1c0,0.2-0.1,0.3-0.2,0.4c-0.1,0.1-0.3,0.2-0.5,0.3c-0.2,0.1-0.6,0.1-1,0.2
			c-0.4,0-0.9,0.1-1.5,0.1c-0.6,0-1.1,0-1.5-0.1c-0.4,0-0.7-0.1-1-0.2c-0.2-0.1-0.4-0.2-0.5-0.3c-0.1-0.1-0.1-0.3-0.1-0.4v-12.7
			c0-1.1-0.1-1.9-0.2-2.5c-0.2-0.6-0.4-1.1-0.7-1.6c-0.3-0.4-0.7-0.8-1.2-1c-0.5-0.2-1-0.4-1.7-0.4c-0.8,0-1.6,0.3-2.4,0.9
			c-0.8,0.6-1.7,1.4-2.5,2.5v14.8c0,0.2-0.1,0.3-0.2,0.4c-0.1,0.1-0.3,0.2-0.5,0.3c-0.2,0.1-0.6,0.1-1,0.2c-0.4,0-0.9,0.1-1.5,0.1
			s-1.1,0-1.5-0.1c-0.4,0-0.7-0.1-1-0.2c-0.2-0.1-0.4-0.2-0.5-0.3c-0.1-0.1-0.1-0.3-0.1-0.4v-22.3c0-0.2,0-0.3,0.1-0.4
			c0.1-0.1,0.2-0.2,0.5-0.3c0.2-0.1,0.5-0.1,0.8-0.2c0.3,0,0.8-0.1,1.3-0.1c0.5,0,1,0,1.3,0.1c0.3,0,0.6,0.1,0.8,0.2
			c0.2,0.1,0.3,0.2,0.4,0.3c0.1,0.1,0.1,0.3,0.1,0.4v2.6c1.2-1.3,2.5-2.3,3.8-3c1.3-0.7,2.6-1,4-1c1.5,0,2.8,0.2,3.8,0.7
			c1,0.5,1.9,1.2,2.5,2c0.6,0.9,1.1,1.9,1.4,3c0.3,1.1,0.4,2.5,0.4,4.1V159.1z"/>
		<path fill="#356093" d="M116.4,147.3c0,0.8-0.2,1.3-0.5,1.7c-0.3,0.4-0.8,0.5-1.4,0.5h-13.6c0,0.9,0.1,1.8,0.3,2.6
			c0.2,0.8,0.6,1.4,1.1,2c0.5,0.5,1.1,1,1.9,1.2c0.8,0.3,1.7,0.4,2.8,0.4c1.1,0,2.1-0.1,2.9-0.2c0.8-0.2,1.6-0.3,2.2-0.5
			c0.6-0.2,1.1-0.4,1.5-0.5c0.4-0.2,0.7-0.2,1-0.2c0.2,0,0.3,0,0.4,0.1s0.2,0.2,0.3,0.3c0.1,0.1,0.1,0.4,0.1,0.6c0,0.3,0,0.6,0,1
			c0,0.4,0,0.7,0,0.9c0,0.3,0,0.5-0.1,0.7c0,0.2-0.1,0.3-0.2,0.5c-0.1,0.1-0.2,0.2-0.3,0.4c-0.1,0.1-0.4,0.3-0.9,0.5
			c-0.5,0.2-1.1,0.4-1.8,0.6c-0.7,0.2-1.6,0.4-2.6,0.5c-1,0.1-2,0.2-3.1,0.2c-2,0-3.7-0.2-5.2-0.7c-1.5-0.5-2.7-1.3-3.7-2.3
			c-1-1-1.7-2.3-2.2-3.8c-0.5-1.5-0.7-3.4-0.7-5.4c0-2,0.3-3.8,0.8-5.4s1.3-2.9,2.2-4c1-1.1,2.2-2,3.6-2.5c1.4-0.6,3-0.9,4.8-0.9
			c1.9,0,3.5,0.3,4.8,0.8c1.3,0.5,2.4,1.3,3.3,2.3c0.8,1,1.5,2.1,1.9,3.5c0.4,1.3,0.6,2.8,0.6,4.3V147.3z M110.3,145.5
			c0-1.8-0.3-3.1-1.1-4.2c-0.8-1-1.9-1.5-3.5-1.5c-0.8,0-1.5,0.1-2.1,0.4c-0.6,0.3-1.1,0.7-1.5,1.2c-0.4,0.5-0.7,1.1-0.9,1.8
			c-0.2,0.7-0.3,1.4-0.4,2.2H110.3z"/>
		<path fill="#356093" d="M142.9,159.1c0,0.2-0.1,0.3-0.2,0.4c-0.1,0.1-0.3,0.2-0.5,0.3c-0.2,0.1-0.6,0.1-1,0.2
			c-0.4,0-0.9,0.1-1.5,0.1c-0.6,0-1.1,0-1.5-0.1c-0.4,0-0.7-0.1-1-0.2c-0.2-0.1-0.4-0.2-0.5-0.3c-0.1-0.1-0.1-0.3-0.1-0.4v-12.7
			c0-1.1-0.1-1.9-0.2-2.5c-0.2-0.6-0.4-1.1-0.7-1.6c-0.3-0.4-0.7-0.8-1.2-1c-0.5-0.2-1-0.4-1.7-0.4c-0.8,0-1.6,0.3-2.4,0.9
			c-0.8,0.6-1.7,1.4-2.5,2.5v14.8c0,0.2-0.1,0.3-0.2,0.4c-0.1,0.1-0.3,0.2-0.5,0.3c-0.2,0.1-0.6,0.1-1,0.2c-0.4,0-0.9,0.1-1.5,0.1
			s-1.1,0-1.5-0.1c-0.4,0-0.7-0.1-1-0.2c-0.2-0.1-0.4-0.2-0.5-0.3c-0.1-0.1-0.1-0.3-0.1-0.4v-22.3c0-0.2,0-0.3,0.1-0.4
			c0.1-0.1,0.2-0.2,0.5-0.3c0.2-0.1,0.5-0.1,0.8-0.2s0.8-0.1,1.3-0.1c0.5,0,1,0,1.3,0.1c0.3,0,0.6,0.1,0.8,0.2
			c0.2,0.1,0.3,0.2,0.4,0.3c0.1,0.1,0.1,0.3,0.1,0.4v2.6c1.2-1.3,2.5-2.3,3.8-3c1.3-0.7,2.6-1,4-1c1.5,0,2.8,0.2,3.8,0.7
			c1,0.5,1.9,1.2,2.5,2c0.6,0.9,1.1,1.9,1.4,3c0.3,1.1,0.4,2.5,0.4,4.1V159.1z"/>
		<path fill="#356093" d="M181.7,159.1c0,0.2,0,0.3-0.1,0.5c-0.1,0.1-0.2,0.2-0.4,0.3c-0.2,0.1-0.5,0.1-0.8,0.2
			c-0.3,0-0.8,0.1-1.3,0.1c-0.5,0-1,0-1.3-0.1c-0.3,0-0.6-0.1-0.8-0.2c-0.2-0.1-0.4-0.2-0.4-0.3c-0.1-0.1-0.1-0.3-0.1-0.5v-2.5
			c-1.1,1.2-2.4,2.2-3.6,2.9c-1.3,0.7-2.7,1-4.2,1c-1.7,0-3.1-0.3-4.3-1c-1.2-0.7-2.1-1.5-2.9-2.7c-0.7-1.1-1.3-2.4-1.6-3.9
			c-0.3-1.5-0.5-3.1-0.5-4.7c0-2,0.2-3.8,0.6-5.3c0.4-1.6,1-2.9,1.9-4c0.8-1.1,1.8-2,3-2.6c1.2-0.6,2.6-0.9,4.2-0.9
			c1.2,0,2.4,0.3,3.4,0.8s2,1.3,3,2.2v-12.1c0-0.2,0-0.3,0.1-0.4c0.1-0.1,0.3-0.2,0.5-0.3c0.2-0.1,0.6-0.2,1-0.2
			c0.4,0,0.9-0.1,1.5-0.1c0.6,0,1.1,0,1.5,0.1s0.7,0.1,0.9,0.2c0.2,0.1,0.4,0.2,0.5,0.3c0.1,0.1,0.1,0.3,0.1,0.4V159.1z
			 M175.5,144.2c-0.9-1.1-1.8-2-2.6-2.6c-0.8-0.6-1.7-0.9-2.6-0.9c-0.8,0-1.5,0.2-2.1,0.6c-0.6,0.4-1.1,1-1.4,1.6
			c-0.4,0.7-0.6,1.4-0.8,2.3c-0.2,0.8-0.3,1.7-0.3,2.6c0,0.9,0.1,1.8,0.2,2.7c0.2,0.9,0.4,1.7,0.7,2.4c0.3,0.7,0.8,1.2,1.4,1.7
			c0.6,0.4,1.3,0.6,2.1,0.6c0.4,0,0.9-0.1,1.3-0.2c0.4-0.1,0.8-0.3,1.2-0.6c0.4-0.3,0.9-0.7,1.3-1.1c0.4-0.5,0.9-1,1.5-1.7V144.2z"
			/>
		<path fill="#356093" d="M209.2,159.1c0,0.2,0,0.3-0.1,0.4c-0.1,0.1-0.2,0.2-0.4,0.3c-0.2,0.1-0.5,0.1-0.8,0.2
			c-0.3,0-0.8,0.1-1.3,0.1c-0.5,0-1,0-1.3-0.1c-0.3,0-0.6-0.1-0.8-0.2c-0.2-0.1-0.3-0.2-0.4-0.3c-0.1-0.1-0.1-0.3-0.1-0.4v-2.6
			c-1.2,1.3-2.5,2.3-3.8,3c-1.3,0.7-2.6,1-4,1c-1.5,0-2.8-0.2-3.9-0.7c-1-0.5-1.9-1.2-2.5-2c-0.6-0.9-1.1-1.9-1.4-3
			c-0.3-1.1-0.4-2.6-0.4-4.3v-13.6c0-0.2,0-0.3,0.1-0.4c0.1-0.1,0.3-0.2,0.5-0.3c0.2-0.1,0.6-0.1,1-0.2c0.4,0,0.9-0.1,1.5-0.1
			c0.6,0,1.1,0,1.5,0.1c0.4,0,0.7,0.1,1,0.2c0.2,0.1,0.4,0.2,0.5,0.3c0.1,0.1,0.1,0.3,0.1,0.4v12.6c0,1.2,0.1,2.1,0.2,2.7
			c0.1,0.6,0.4,1.1,0.7,1.6c0.3,0.4,0.7,0.8,1.2,1c0.5,0.2,1,0.4,1.7,0.4c0.8,0,1.6-0.3,2.4-0.9c0.8-0.6,1.7-1.4,2.6-2.5v-14.8
			c0-0.2,0-0.3,0.1-0.4c0.1-0.1,0.3-0.2,0.5-0.3c0.2-0.1,0.6-0.1,1-0.2s0.9-0.1,1.5-0.1c0.6,0,1.1,0,1.5,0.1c0.4,0,0.7,0.1,0.9,0.2
			c0.2,0.1,0.4,0.2,0.5,0.3c0.1,0.1,0.1,0.3,0.1,0.4V159.1z"/>
		<path fill="#356093" d="M229.8,138.9c0,0.6,0,1.1-0.1,1.5c0,0.4-0.1,0.7-0.1,0.9c-0.1,0.2-0.2,0.4-0.3,0.4
			c-0.1,0.1-0.2,0.1-0.4,0.1c-0.1,0-0.3,0-0.5-0.1c-0.2-0.1-0.4-0.1-0.6-0.2c-0.2-0.1-0.4-0.1-0.7-0.2c-0.2-0.1-0.5-0.1-0.8-0.1
			c-0.4,0-0.7,0.1-1,0.2c-0.4,0.1-0.7,0.4-1.1,0.7c-0.4,0.3-0.8,0.7-1.2,1.2c-0.4,0.5-0.8,1.1-1.3,1.8v13.9c0,0.2-0.1,0.3-0.2,0.4
			c-0.1,0.1-0.3,0.2-0.5,0.3c-0.2,0.1-0.6,0.1-1,0.2c-0.4,0-0.9,0.1-1.5,0.1c-0.6,0-1.1,0-1.5-0.1c-0.4,0-0.7-0.1-1-0.2
			c-0.2-0.1-0.4-0.2-0.5-0.3c-0.1-0.1-0.1-0.3-0.1-0.4v-22.3c0-0.2,0-0.3,0.1-0.4c0.1-0.1,0.2-0.2,0.5-0.3c0.2-0.1,0.5-0.1,0.8-0.2
			c0.3,0,0.8-0.1,1.3-0.1c0.5,0,1,0,1.3,0.1c0.3,0,0.6,0.1,0.8,0.2c0.2,0.1,0.3,0.2,0.4,0.3c0.1,0.1,0.1,0.3,0.1,0.4v2.8
			c0.6-0.8,1.1-1.5,1.6-2.1c0.5-0.5,1-1,1.5-1.3c0.5-0.3,0.9-0.5,1.4-0.7c0.5-0.1,0.9-0.2,1.4-0.2c0.2,0,0.4,0,0.7,0
			c0.2,0,0.5,0.1,0.8,0.1c0.3,0.1,0.5,0.1,0.7,0.2c0.2,0.1,0.3,0.2,0.4,0.2c0.1,0.1,0.2,0.2,0.2,0.3s0.1,0.2,0.1,0.4
			c0,0.2,0.1,0.4,0.1,0.8S229.8,138.3,229.8,138.9z"/>
		<path fill="#356093" d="M249.8,155.5c0,0.4,0,0.8,0,1.1c0,0.3-0.1,0.5-0.1,0.7c0,0.2-0.1,0.4-0.2,0.5s-0.2,0.3-0.4,0.5
			c-0.2,0.2-0.5,0.4-1,0.7c-0.5,0.3-1,0.5-1.6,0.7c-0.6,0.2-1.3,0.4-2,0.5c-0.7,0.1-1.5,0.2-2.2,0.2c-1.7,0-3.2-0.3-4.6-0.8
			s-2.4-1.3-3.3-2.4c-0.9-1-1.6-2.3-2-3.8c-0.5-1.5-0.7-3.2-0.7-5.1c0-2.2,0.3-4.2,0.8-5.8c0.6-1.6,1.3-3,2.3-4
			c1-1.1,2.2-1.9,3.5-2.4c1.4-0.5,2.9-0.8,4.5-0.8c0.7,0,1.3,0.1,2,0.2c0.6,0.1,1.2,0.3,1.8,0.5s1.1,0.4,1.5,0.7
			c0.4,0.2,0.8,0.5,0.9,0.6c0.2,0.2,0.3,0.3,0.4,0.5c0.1,0.1,0.1,0.3,0.2,0.5s0.1,0.4,0.1,0.7c0,0.3,0,0.6,0,1.1c0,1-0.1,1.6-0.3,2
			s-0.4,0.6-0.6,0.6c-0.3,0-0.6-0.1-0.9-0.3c-0.3-0.2-0.7-0.5-1.1-0.8c-0.4-0.3-1-0.5-1.5-0.8c-0.6-0.2-1.3-0.3-2.1-0.3
			c-1.6,0-2.9,0.6-3.7,1.9c-0.9,1.3-1.3,3.1-1.3,5.5c0,1.2,0.1,2.3,0.3,3.2c0.2,0.9,0.5,1.7,1,2.3c0.4,0.6,1,1.1,1.6,1.4
			c0.6,0.3,1.4,0.5,2.2,0.5c0.9,0,1.6-0.1,2.2-0.4c0.6-0.3,1.2-0.5,1.6-0.9c0.5-0.3,0.9-0.6,1.2-0.9c0.3-0.3,0.6-0.4,0.8-0.4
			c0.1,0,0.3,0,0.4,0.1c0.1,0.1,0.2,0.2,0.2,0.5c0.1,0.2,0.1,0.5,0.1,0.9C249.8,154.5,249.8,155,249.8,155.5z"/>
		<path fill="#356093" d="M275.6,159.1c0,0.2-0.1,0.3-0.2,0.4c-0.1,0.1-0.3,0.2-0.5,0.3c-0.2,0.1-0.6,0.1-1,0.2
			c-0.4,0-0.9,0.1-1.5,0.1c-0.6,0-1.1,0-1.5-0.1c-0.4,0-0.7-0.1-1-0.2c-0.2-0.1-0.4-0.2-0.5-0.3c-0.1-0.1-0.1-0.3-0.1-0.4v-12.7
			c0-1.1-0.1-1.9-0.2-2.5c-0.2-0.6-0.4-1.1-0.7-1.6c-0.3-0.4-0.7-0.8-1.2-1c-0.5-0.2-1-0.4-1.7-0.4c-0.8,0-1.6,0.3-2.4,0.9
			c-0.8,0.6-1.7,1.4-2.5,2.5v14.8c0,0.2-0.1,0.3-0.2,0.4c-0.1,0.1-0.3,0.2-0.5,0.3c-0.2,0.1-0.6,0.1-1,0.2c-0.4,0-0.9,0.1-1.5,0.1
			c-0.6,0-1.1,0-1.5-0.1c-0.4,0-0.7-0.1-1-0.2c-0.2-0.1-0.4-0.2-0.5-0.3c-0.1-0.1-0.1-0.3-0.1-0.4v-32.8c0-0.2,0-0.3,0.1-0.4
			c0.1-0.1,0.3-0.2,0.5-0.3c0.2-0.1,0.6-0.2,1-0.2c0.4,0,0.9-0.1,1.5-0.1c0.6,0,1.1,0,1.5,0.1c0.4,0.1,0.7,0.1,1,0.2
			c0.2,0.1,0.4,0.2,0.5,0.3c0.1,0.1,0.2,0.3,0.2,0.4v12.3c1.1-1.1,2.2-1.9,3.3-2.4c1.1-0.5,2.3-0.8,3.5-0.8c1.5,0,2.8,0.2,3.8,0.7
			c1,0.5,1.9,1.2,2.5,2c0.6,0.9,1.1,1.9,1.4,3c0.3,1.2,0.4,2.6,0.4,4.2V159.1z"/>
	</g>
	<g>
		<path fill="#356093" d="M484.1,138.9c0,0.6,0,1.1-0.1,1.5c0,0.4-0.1,0.7-0.1,0.9c-0.1,0.2-0.2,0.4-0.3,0.4
			c-0.1,0.1-0.2,0.1-0.4,0.1c-0.1,0-0.3,0-0.5-0.1c-0.2-0.1-0.4-0.1-0.6-0.2c-0.2-0.1-0.4-0.1-0.7-0.2c-0.2-0.1-0.5-0.1-0.8-0.1
			c-0.4,0-0.7,0.1-1,0.2c-0.4,0.1-0.7,0.4-1.1,0.7c-0.4,0.3-0.8,0.7-1.2,1.2c-0.4,0.5-0.8,1.1-1.3,1.8v13.9c0,0.2-0.1,0.3-0.2,0.4
			c-0.1,0.1-0.3,0.2-0.5,0.3c-0.2,0.1-0.6,0.1-1,0.2c-0.4,0-0.9,0.1-1.5,0.1s-1.1,0-1.5-0.1c-0.4,0-0.7-0.1-1-0.2
			c-0.2-0.1-0.4-0.2-0.5-0.3c-0.1-0.1-0.1-0.3-0.1-0.4v-22.3c0-0.2,0-0.3,0.1-0.4c0.1-0.1,0.2-0.2,0.5-0.3c0.2-0.1,0.5-0.1,0.8-0.2
			s0.8-0.1,1.3-0.1c0.5,0,1,0,1.3,0.1c0.3,0,0.6,0.1,0.8,0.2c0.2,0.1,0.3,0.2,0.4,0.3c0.1,0.1,0.1,0.3,0.1,0.4v2.8
			c0.6-0.8,1.1-1.5,1.6-2.1c0.5-0.5,1-1,1.5-1.3c0.5-0.3,0.9-0.5,1.4-0.7c0.5-0.1,0.9-0.2,1.4-0.2c0.2,0,0.4,0,0.7,0
			c0.2,0,0.5,0.1,0.8,0.1c0.3,0.1,0.5,0.1,0.7,0.2c0.2,0.1,0.3,0.2,0.4,0.2c0.1,0.1,0.2,0.2,0.2,0.3s0.1,0.2,0.1,0.4
			c0,0.2,0.1,0.4,0.1,0.8C484.1,137.8,484.1,138.3,484.1,138.9z"/>
		<path fill="#356093" d="M510.4,147.6c0,2-0.2,3.8-0.6,5.3c-0.4,1.6-1.1,2.9-1.9,4c-0.8,1.1-1.8,2-3,2.6c-1.2,0.6-2.5,0.9-4.1,0.9
			c-0.7,0-1.4-0.1-2.1-0.2c-0.7-0.1-1.3-0.4-1.9-0.7s-1.2-0.7-1.7-1.2c-0.6-0.5-1.2-1.1-1.8-1.7v2.4c0,0.2,0,0.3-0.1,0.5
			c-0.1,0.1-0.2,0.2-0.5,0.3c-0.2,0.1-0.5,0.1-0.8,0.2c-0.4,0-0.8,0.1-1.3,0.1c-0.5,0-0.9,0-1.3-0.1s-0.6-0.1-0.8-0.2
			c-0.2-0.1-0.4-0.2-0.4-0.3s-0.1-0.3-0.1-0.5v-32.8c0-0.2,0-0.3,0.1-0.4c0.1-0.1,0.3-0.2,0.5-0.3c0.2-0.1,0.6-0.2,1-0.2
			c0.4,0,0.9-0.1,1.5-0.1c0.6,0,1.1,0,1.5,0.1c0.4,0.1,0.7,0.1,1,0.2c0.2,0.1,0.4,0.2,0.5,0.3c0.1,0.1,0.2,0.3,0.2,0.4v12.3
			c0.6-0.6,1.1-1,1.7-1.4c0.6-0.4,1.1-0.7,1.7-1c0.6-0.3,1.2-0.4,1.7-0.6c0.6-0.1,1.2-0.2,1.9-0.2c1.6,0,3,0.3,4.2,1
			c1.1,0.7,2.1,1.5,2.8,2.7c0.7,1.1,1.3,2.4,1.6,3.9S510.4,146,510.4,147.6z M503.9,148.1c0-0.9-0.1-1.9-0.2-2.7
			c-0.1-0.9-0.4-1.7-0.7-2.3c-0.3-0.7-0.8-1.2-1.4-1.6c-0.6-0.4-1.3-0.6-2.1-0.6c-0.4,0-0.8,0.1-1.2,0.2c-0.4,0.1-0.8,0.3-1.2,0.6
			c-0.4,0.3-0.9,0.6-1.3,1.1c-0.5,0.4-0.9,1-1.4,1.7v7.4c0.9,1.1,1.7,2,2.5,2.6c0.8,0.6,1.7,0.9,2.5,0.9c0.8,0,1.5-0.2,2.1-0.6
			c0.6-0.4,1-1,1.4-1.6s0.6-1.4,0.8-2.3C503.8,149.8,503.9,148.9,503.9,148.1z"/>
		<path fill="#356093" d="M536,147.3c0,0.8-0.2,1.3-0.5,1.7c-0.3,0.4-0.8,0.5-1.4,0.5h-13.6c0,0.9,0.1,1.8,0.3,2.6
			c0.2,0.8,0.6,1.4,1.1,2c0.5,0.5,1.1,1,1.9,1.2s1.7,0.4,2.8,0.4c1.1,0,2.1-0.1,2.9-0.2s1.6-0.3,2.2-0.5c0.6-0.2,1.1-0.4,1.5-0.5
			c0.4-0.2,0.7-0.2,1-0.2c0.2,0,0.3,0,0.4,0.1s0.2,0.2,0.3,0.3c0.1,0.1,0.1,0.4,0.1,0.6c0,0.3,0,0.6,0,1c0,0.4,0,0.7,0,0.9
			c0,0.3,0,0.5-0.1,0.7c0,0.2-0.1,0.3-0.2,0.5c-0.1,0.1-0.2,0.2-0.3,0.4c-0.1,0.1-0.4,0.3-0.9,0.5c-0.5,0.2-1.1,0.4-1.8,0.6
			c-0.7,0.2-1.6,0.4-2.6,0.5c-1,0.1-2,0.2-3.1,0.2c-2,0-3.7-0.2-5.2-0.7c-1.5-0.5-2.7-1.3-3.7-2.3c-1-1-1.7-2.3-2.2-3.8
			c-0.5-1.5-0.7-3.4-0.7-5.4c0-2,0.3-3.8,0.8-5.4s1.3-2.9,2.2-4c1-1.1,2.2-2,3.6-2.5s3-0.9,4.8-0.9c1.9,0,3.5,0.3,4.8,0.8
			c1.3,0.5,2.4,1.3,3.3,2.3c0.8,1,1.5,2.1,1.9,3.5c0.4,1.3,0.6,2.8,0.6,4.3V147.3z M529.9,145.5c0-1.8-0.3-3.1-1.1-4.2
			c-0.8-1-1.9-1.5-3.5-1.5c-0.8,0-1.5,0.1-2.1,0.4c-0.6,0.3-1.1,0.7-1.5,1.2c-0.4,0.5-0.7,1.1-0.9,1.8c-0.2,0.7-0.3,1.4-0.4,2.2
			H529.9z"/>
		<path fill="#356093" d="M548,129.2c0,1.3-0.3,2.1-0.8,2.6c-0.5,0.5-1.5,0.7-2.9,0.7c-1.4,0-2.4-0.2-2.9-0.7
			c-0.5-0.5-0.7-1.3-0.7-2.5c0-1.3,0.3-2.1,0.8-2.6c0.5-0.5,1.5-0.7,2.9-0.7c1.4,0,2.3,0.2,2.8,0.7C547.7,127.2,548,128,548,129.2z
			 M547.5,159.1c0,0.2-0.1,0.3-0.2,0.4c-0.1,0.1-0.3,0.2-0.5,0.3c-0.2,0.1-0.6,0.1-1,0.2c-0.4,0-0.9,0.1-1.5,0.1s-1.1,0-1.5-0.1
			c-0.4,0-0.7-0.1-1-0.2c-0.2-0.1-0.4-0.2-0.5-0.3c-0.1-0.1-0.1-0.3-0.1-0.4v-22.2c0-0.2,0-0.3,0.1-0.4c0.1-0.1,0.3-0.2,0.5-0.3
			c0.2-0.1,0.6-0.2,1-0.2c0.4-0.1,0.9-0.1,1.5-0.1s1.1,0,1.5,0.1c0.4,0,0.7,0.1,1,0.2c0.2,0.1,0.4,0.2,0.5,0.3
			c0.1,0.1,0.2,0.3,0.2,0.4V159.1z"/>
		<path fill="#356093" d="M566.9,156.9c0,0.7,0,1.3-0.1,1.7c-0.1,0.4-0.2,0.7-0.4,0.8c-0.2,0.2-0.4,0.3-0.7,0.4
			c-0.3,0.1-0.6,0.2-1,0.3c-0.4,0.1-0.8,0.2-1.3,0.2c-0.5,0.1-0.9,0.1-1.4,0.1c-1.2,0-2.3-0.2-3.2-0.5c-0.9-0.3-1.7-0.8-2.3-1.5
			c-0.6-0.7-1-1.5-1.3-2.5c-0.3-1-0.4-2.2-0.4-3.5V141h-2.7c-0.3,0-0.6-0.2-0.7-0.6c-0.2-0.4-0.2-1-0.2-2c0-0.5,0-0.9,0.1-1.2
			c0-0.3,0.1-0.6,0.2-0.8c0.1-0.2,0.2-0.3,0.3-0.4c0.1-0.1,0.3-0.1,0.4-0.1h2.6v-5c0-0.2,0-0.3,0.1-0.4s0.3-0.2,0.5-0.3
			s0.6-0.2,1-0.2c0.4,0,0.9-0.1,1.5-0.1c0.6,0,1.1,0,1.5,0.1c0.4,0,0.7,0.1,1,0.2c0.2,0.1,0.4,0.2,0.5,0.3c0.1,0.1,0.2,0.3,0.2,0.4
			v5h4.8c0.2,0,0.3,0,0.4,0.1c0.1,0.1,0.2,0.2,0.3,0.4c0.1,0.2,0.1,0.5,0.2,0.8c0,0.3,0.1,0.7,0.1,1.2c0,0.9-0.1,1.6-0.2,2
			c-0.2,0.4-0.4,0.6-0.7,0.6h-4.9v10.5c0,1.2,0.2,2.1,0.6,2.7c0.4,0.6,1.1,0.9,2,0.9c0.3,0,0.6,0,0.9-0.1c0.3-0.1,0.5-0.1,0.7-0.2
			c0.2-0.1,0.4-0.1,0.5-0.2c0.1-0.1,0.3-0.1,0.4-0.1c0.1,0,0.2,0,0.3,0.1c0.1,0.1,0.2,0.2,0.2,0.3c0.1,0.2,0.1,0.4,0.1,0.7
			C566.9,156,566.9,156.4,566.9,156.9z"/>
	</g>
</g>
</svg>
