<?xml version="1.0" encoding="UTF-8" ?>
<!DOCTYPE svg PUBLIC "-//W3C//DTD SVG 1.1//EN" "http://www.w3.org/Graphics/SVG/1.1/DTD/svg11.dtd">
<svg width="615pt" height="615pt" viewBox="0 0 615 615" version="1.1" xmlns="http://www.w3.org/2000/svg">
<path fill="#ffffff" d=" M 0.00 0.00 L 615.00 0.00 L 615.00 615.00 L 0.00 615.00 L 0.00 0.00 Z" />
<path fill="#49aab3" d=" M 104.00 144.00 C 131.12 144.00 158.25 143.99 185.37 144.01 C 178.60 150.76 171.77 157.45 165.12 164.33 C 188.88 187.59 212.27 211.21 235.82 234.69 C 227.75 239.32 219.78 244.14 211.69 248.74 C 209.97 249.74 207.88 250.77 207.61 253.00 C 207.72 254.91 209.24 256.18 210.58 257.32 C 216.36 262.12 222.01 267.06 227.71 271.93 C 223.07 274.55 218.39 277.11 213.74 279.72 C 214.88 281.79 216.02 283.87 217.16 285.96 C 222.64 282.97 228.05 279.87 233.54 276.91 C 237.21 280.09 240.94 283.21 244.59 286.43 C 232.25 287.06 219.88 286.77 207.53 286.61 C 180.04 259.18 152.62 231.68 125.13 204.24 C 118.07 211.26 111.02 218.29 104.02 225.37 C 103.98 198.25 104.01 171.12 104.00 144.00 Z" />
<path fill="#cae2e4" d=" M 185.37 144.01 C 207.37 144.00 229.36 143.96 251.36 144.03 C 239.67 154.47 227.58 164.46 215.79 174.78 C 213.80 176.31 212.92 179.18 214.89 181.13 C 228.28 195.18 241.97 208.96 255.26 223.11 C 248.93 227.21 242.27 230.78 235.82 234.69 C 212.27 211.21 188.88 187.59 165.12 164.33 C 171.77 157.45 178.60 150.76 185.37 144.01 Z" />
<path fill="#cae2e4" d=" M 260.68 145.57 C 262.56 143.52 265.49 144.02 267.98 143.96 C 276.01 144.06 284.05 143.94 292.08 144.02 C 293.65 145.82 295.27 147.58 296.94 149.30 C 299.01 147.62 300.93 145.73 303.19 144.29 C 305.32 143.75 307.56 144.02 309.74 144.01 C 316.43 150.73 323.28 157.27 329.81 164.14 C 316.62 177.95 302.98 191.31 289.59 204.93 C 285.93 201.25 282.32 197.51 278.39 194.12 C 276.79 195.76 275.19 197.41 273.59 199.06 C 277.03 202.83 280.81 206.26 284.43 209.86 C 274.72 219.99 264.55 229.67 254.76 239.72 C 252.46 242.10 250.00 244.33 247.44 246.42 C 245.38 244.27 243.29 242.16 241.15 240.09 C 248.30 235.02 256.36 231.39 263.59 226.45 C 265.85 224.82 264.41 221.77 262.72 220.32 C 249.15 206.54 235.91 192.45 222.33 178.69 C 234.96 167.48 247.96 156.68 260.68 145.57 Z" />
<path fill="#a9d0d5" d=" M 309.74 144.01 C 336.94 143.99 364.14 143.99 391.35 144.01 C 391.33 171.11 391.47 198.21 391.27 225.30 C 384.04 218.53 377.33 211.23 370.11 204.46 C 353.60 220.50 337.52 236.99 321.26 253.29 C 310.20 264.49 298.87 275.43 287.95 286.77 C 277.47 287.28 266.97 286.78 256.48 287.13 C 253.31 284.45 250.20 281.70 246.94 279.14 L 246.96 278.88 C 247.21 276.07 247.30 273.25 247.32 270.43 C 246.88 270.26 245.99 269.91 245.55 269.74 C 251.77 267.10 257.52 263.50 263.39 260.18 C 262.24 258.16 261.09 256.14 259.94 254.11 C 255.70 256.38 251.51 258.72 247.30 261.05 C 247.30 256.17 247.26 251.30 247.44 246.42 C 250.00 244.33 252.46 242.10 254.76 239.72 C 264.55 229.67 274.72 219.99 284.43 209.86 C 286.02 211.44 287.62 213.02 289.22 214.60 C 290.89 212.96 292.57 211.31 294.24 209.67 C 292.70 208.08 291.15 206.50 289.59 204.93 C 302.98 191.31 316.62 177.95 329.81 164.14 C 323.28 157.27 316.43 150.73 309.74 144.01 Z" />
<path fill="#fefffe" d=" M 284.16 151.09 C 285.66 152.78 287.16 154.48 288.66 156.19 C 284.40 160.52 279.61 164.30 274.94 168.18 C 273.40 166.45 271.88 164.69 270.39 162.91 C 274.84 158.82 279.48 154.93 284.16 151.09 Z" />
<path fill="#ffffff" d=" M 254.28 178.66 C 254.97 174.57 259.43 172.59 262.15 169.87 C 263.81 171.59 265.35 173.42 266.76 175.35 C 265.52 176.38 264.29 177.41 263.05 178.44 C 264.64 180.15 266.26 181.84 267.90 183.51 C 266.40 185.30 264.84 187.03 263.20 188.70 C 260.11 185.53 255.70 183.06 254.28 178.66 Z" />
<path fill="#feffff" d=" M 278.39 194.12 C 282.32 197.51 285.93 201.25 289.59 204.93 C 291.15 206.50 292.70 208.08 294.24 209.67 C 292.57 211.31 290.89 212.96 289.22 214.60 C 287.62 213.02 286.02 211.44 284.43 209.86 C 280.81 206.26 277.03 202.83 273.59 199.06 C 275.19 197.41 276.79 195.76 278.39 194.12 Z" />
<path fill="#cae2e4" d=" M 104.02 225.37 C 111.02 218.29 118.07 211.26 125.13 204.24 C 152.62 231.68 180.04 259.18 207.53 286.61 C 206.57 287.54 205.62 288.48 204.67 289.42 C 204.02 288.26 203.37 287.10 202.73 285.95 C 199.19 287.92 195.16 289.32 192.33 292.32 C 191.12 295.39 194.01 297.06 196.28 298.29 C 195.02 299.36 193.77 300.45 192.57 301.59 C 169.81 324.36 147.00 347.09 124.37 369.99 C 117.57 363.23 110.79 356.44 104.03 349.65 C 103.97 308.22 104.00 266.79 104.02 225.37 Z" />
<path fill="#cae2e4" d=" M 321.26 253.29 C 337.52 236.99 353.60 220.50 370.11 204.46 C 377.33 211.23 384.04 218.53 391.27 225.30 C 391.22 266.77 391.23 308.24 391.27 349.71 C 384.47 356.28 377.91 363.08 371.15 369.69 C 343.29 342.18 315.88 314.21 287.95 286.77 C 298.87 275.43 310.20 264.49 321.26 253.29 Z" />
<path fill="#fefefe" d=" M 299.78 224.88 C 301.41 223.17 303.09 221.50 304.81 219.88 C 307.44 222.69 310.38 225.21 312.89 228.15 C 314.29 229.58 313.85 232.12 312.12 233.09 C 309.24 235.05 306.08 236.52 303.04 238.19 C 301.89 236.13 300.76 234.07 299.65 231.99 C 301.16 231.17 302.67 230.34 304.19 229.52 C 302.73 227.96 301.26 226.42 299.78 224.88 Z" />
<path fill="#feffff" d=" M 271.00 247.93 C 276.86 244.65 282.71 241.35 288.64 238.18 C 289.79 240.26 290.90 242.36 291.96 244.49 C 286.03 247.57 280.31 251.03 274.37 254.10 C 273.24 252.04 272.12 249.98 271.00 247.93 Z" />
<path fill="#49aab3" d=" M 217.46 253.72 C 225.25 249.05 233.16 244.57 240.95 239.89 L 241.15 240.09 C 243.29 242.16 245.38 244.27 247.44 246.42 C 247.26 251.30 247.30 256.17 247.30 261.05 C 245.65 261.97 244.01 262.90 242.37 263.84 C 243.43 265.80 244.49 267.77 245.55 269.74 C 245.99 269.91 246.88 270.26 247.32 270.43 C 247.30 273.25 247.21 276.07 246.96 278.88 C 237.01 270.63 227.30 262.09 217.46 253.72 Z" />
<path fill="#fefffe" d=" M 247.30 261.05 C 251.51 258.72 255.70 256.38 259.94 254.11 C 261.09 256.14 262.24 258.16 263.39 260.18 C 257.52 263.50 251.77 267.10 245.55 269.74 C 244.49 267.77 243.43 265.80 242.37 263.84 C 244.01 262.90 245.65 261.97 247.30 261.05 Z" />
<path fill="#fefffe" d=" M 192.33 292.32 C 195.16 289.32 199.19 287.92 202.73 285.95 C 203.37 287.10 204.02 288.26 204.67 289.42 C 205.15 290.31 205.64 291.20 206.13 292.09 C 205.08 292.67 204.03 293.25 202.98 293.84 C 203.78 294.29 205.38 295.21 206.18 295.66 C 205.04 297.74 203.92 299.82 202.78 301.89 C 200.61 300.69 198.43 299.50 196.28 298.29 C 194.01 297.06 191.12 295.39 192.33 292.32 Z" />
<path fill="#6cb7bd" d=" M 207.53 286.61 C 219.88 286.77 232.25 287.06 244.59 286.43 L 244.87 286.41 C 245.66 287.19 246.46 287.95 247.26 288.73 C 246.72 298.40 247.53 308.11 246.70 317.77 C 245.30 319.80 244.07 321.93 242.88 324.09 C 244.22 324.84 245.58 325.59 246.93 326.35 C 233.71 335.99 220.63 345.80 207.44 355.49 C 206.02 356.65 204.10 357.85 204.40 359.99 C 204.91 362.48 207.63 363.48 209.39 364.98 C 194.39 379.99 179.35 394.95 164.40 410.00 C 171.40 417.12 178.55 424.10 185.54 431.24 C 158.36 431.38 131.18 431.27 104.01 431.30 C 104.01 404.08 103.96 376.86 104.03 349.65 C 110.79 356.44 117.57 363.23 124.37 369.99 C 147.00 347.09 169.81 324.36 192.57 301.59 C 193.77 300.45 195.02 299.36 196.28 298.29 C 198.43 299.50 200.61 300.69 202.78 301.89 C 203.92 299.82 205.04 297.74 206.18 295.66 C 205.38 295.21 203.78 294.29 202.98 293.84 C 204.03 293.25 205.08 292.67 206.13 292.09 C 205.64 291.20 205.15 290.31 204.67 289.42 C 205.62 288.48 206.57 287.54 207.53 286.61 Z" />
<path fill="#8cc3c8" d=" M 256.48 287.13 C 266.97 286.78 277.47 287.28 287.95 286.77 C 315.88 314.21 343.29 342.18 371.15 369.69 C 377.91 363.08 384.47 356.28 391.27 349.71 C 391.40 376.91 391.32 404.11 391.30 431.31 C 364.10 431.32 336.90 431.39 309.69 431.27 C 316.71 424.05 323.95 417.06 330.97 409.85 C 317.94 396.90 305.18 383.67 291.88 370.99 C 291.66 370.76 291.23 370.29 291.02 370.05 C 278.30 356.86 265.14 344.09 252.23 331.08 C 255.26 329.43 257.96 332.96 260.70 333.91 C 261.83 331.83 262.95 329.74 264.05 327.65 C 262.71 326.92 261.37 326.19 260.03 325.47 C 266.05 320.98 272.12 316.58 278.12 312.07 C 280.13 310.92 280.70 307.86 278.77 306.35 C 271.46 299.82 263.87 293.58 256.48 287.13 Z" />
<path fill="#8cc3c8" d=" M 247.26 288.73 C 255.12 295.32 262.95 301.96 270.63 308.78 C 264.77 313.05 259.00 317.44 253.10 321.67 C 250.89 320.50 248.75 319.20 246.70 317.77 C 247.53 308.11 246.72 298.40 247.26 288.73 Z" />
<path fill="#ffffff" d=" M 217.36 301.91 C 223.33 304.99 229.09 308.45 235.04 311.55 C 234.02 313.70 232.92 315.81 231.76 317.89 C 225.79 314.70 219.91 311.34 213.98 308.09 C 215.10 306.03 216.22 303.97 217.36 301.91 Z" />
<path fill="#cae2e4" d=" M 213.67 359.54 C 226.63 350.22 239.52 340.76 252.23 331.08 C 265.14 344.09 278.30 356.86 291.02 370.05 C 287.30 372.93 283.45 375.77 280.86 379.78 C 284.10 384.47 288.74 387.85 293.10 391.42 C 294.60 389.67 296.11 387.92 297.62 386.17 C 295.31 384.08 293.00 382.00 290.68 379.92 C 292.06 378.54 293.46 377.17 294.85 375.80 C 293.88 374.18 292.91 372.56 291.88 370.99 C 305.18 383.67 317.94 396.90 330.97 409.85 C 323.95 417.06 316.71 424.05 309.69 431.27 C 306.28 431.28 302.87 431.24 299.46 431.14 C 300.84 429.93 302.22 428.71 303.61 427.52 C 302.30 425.65 301.00 423.80 299.68 421.95 C 295.45 424.55 291.58 427.66 287.41 430.34 C 285.54 431.62 283.16 431.17 281.03 431.29 C 271.25 431.06 261.46 431.55 251.69 430.99 C 261.71 425.09 272.24 420.08 282.29 414.24 C 285.04 413.15 284.49 409.09 282.09 407.89 C 261.09 392.93 240.04 378.02 219.06 363.03 C 217.29 361.81 215.48 360.67 213.67 359.54 Z" />
<path fill="#feffff" d=" M 275.28 333.93 C 281.19 337.15 287.04 340.48 292.98 343.66 C 291.90 345.79 290.78 347.89 289.62 349.98 C 283.72 346.66 277.74 343.50 271.89 340.12 C 273.02 338.05 274.15 335.99 275.28 333.93 Z" />
<path fill="#7ebdc4" d=" M 462.67 337.62 C 469.13 336.78 475.70 337.50 482.21 337.25 C 482.27 405.99 482.23 474.73 482.23 543.47 C 474.32 543.49 466.42 543.49 458.51 543.47 C 458.51 482.58 458.52 421.68 458.51 360.78 C 445.01 365.91 431.63 371.37 418.16 376.59 C 416.84 369.37 415.41 362.16 414.19 354.93 C 430.35 349.16 446.48 343.29 462.67 337.62 Z" />
<path fill="#fefffe" d=" M 304.21 349.97 C 307.37 351.77 310.75 353.24 313.71 355.38 C 315.45 356.49 315.23 359.44 313.66 360.62 C 311.10 363.06 308.23 365.15 305.41 367.28 C 303.96 365.46 302.51 363.64 301.07 361.83 C 302.38 360.73 303.69 359.63 305.01 358.54 C 303.62 357.72 302.24 356.90 300.86 356.08 C 301.97 354.04 303.08 352.00 304.21 349.97 Z" />
<path fill="#cae2e4" d=" M 209.39 364.98 C 226.33 376.89 243.15 388.97 260.04 400.95 C 264.56 404.28 269.30 407.30 273.63 410.87 C 262.27 417.19 250.70 423.11 239.34 429.43 C 237.41 430.54 235.29 431.40 233.02 431.27 C 217.19 431.21 201.36 431.26 185.54 431.24 C 178.55 424.10 171.40 417.12 164.40 410.00 C 179.35 394.95 194.39 379.99 209.39 364.98 Z" />
<path fill="#fffffe" d=" M 280.86 379.78 C 283.45 375.77 287.30 372.93 291.02 370.05 C 291.23 370.29 291.66 370.76 291.88 370.99 C 292.91 372.56 293.88 374.18 294.85 375.80 C 293.46 377.17 292.06 378.54 290.68 379.92 C 293.00 382.00 295.31 384.08 297.62 386.17 C 296.11 387.92 294.60 389.67 293.10 391.42 C 288.74 387.85 284.10 384.47 280.86 379.78 Z" />
<path fill="#fefffe" d=" M 308.36 404.84 C 309.84 403.05 311.39 401.30 312.98 399.60 C 316.71 402.65 320.60 405.59 323.88 409.15 C 325.14 410.32 324.99 412.43 323.74 413.55 C 320.98 416.16 317.65 418.04 314.45 420.05 C 313.18 418.15 311.95 416.24 310.77 414.30 C 312.21 413.29 313.62 412.23 314.88 410.99 C 313.23 408.48 310.49 406.91 308.36 404.84 Z" />
<path fill="#7ebdc4" d=" M 103.77 450.53 C 120.34 450.50 136.91 450.52 153.48 450.52 C 153.49 455.67 153.48 460.83 153.48 465.99 C 142.90 466.03 132.32 465.96 121.74 466.02 C 121.71 473.82 121.77 481.61 121.71 489.41 C 131.69 489.64 141.69 489.48 151.68 489.48 C 151.78 494.39 151.73 499.31 151.73 504.23 C 141.74 504.25 131.75 504.24 121.76 504.23 C 121.71 517.21 121.73 530.19 121.75 543.17 C 115.76 543.30 109.77 543.22 103.78 543.23 C 103.75 512.33 103.76 481.43 103.77 450.53 Z" />
<path fill="#7ebdc4" d=" M 187.40 477.66 C 196.47 476.32 206.63 478.04 213.45 484.57 C 219.96 490.81 222.27 500.19 222.28 508.95 C 222.58 517.92 220.08 527.25 214.06 534.08 C 208.61 540.42 200.32 544.01 192.01 544.25 C 184.39 544.55 176.20 542.88 170.44 537.57 C 164.87 532.69 162.22 525.31 161.41 518.11 C 160.24 508.55 161.55 498.20 167.21 490.18 C 171.78 483.40 179.37 478.91 187.40 477.66 Z" />
<path fill="#7ebdc4" d=" M 358.00 481.94 C 366.46 476.08 377.37 476.82 387.05 478.31 C 386.94 482.04 386.73 485.78 386.42 489.50 C 380.71 488.27 374.56 486.78 368.87 488.83 C 365.41 490.05 362.99 494.13 364.41 497.69 C 365.65 500.71 368.80 502.20 371.59 503.48 C 376.95 505.85 382.92 507.51 387.09 511.88 C 392.11 517.04 392.29 525.36 389.47 531.67 C 386.57 538.25 379.81 542.30 372.94 543.60 C 366.07 544.83 358.97 544.33 352.19 542.77 C 352.47 538.83 352.73 534.90 353.01 530.97 C 359.44 532.58 366.50 534.60 372.95 532.04 C 377.57 530.39 379.42 523.69 375.83 520.16 C 372.55 517.03 368.00 515.94 363.95 514.20 C 359.26 512.32 354.50 509.51 352.20 504.81 C 348.65 497.07 350.81 486.84 358.00 481.94 Z" />
<path fill="#7ebdc4" d=" M 232.02 478.26 C 236.25 478.26 240.48 478.25 244.72 478.27 C 244.76 487.88 244.70 497.49 244.76 507.10 C 251.72 497.54 258.50 487.85 265.44 478.27 C 270.62 478.26 275.79 478.27 280.97 478.26 C 273.07 488.75 265.13 499.20 257.19 509.65 C 265.43 520.85 273.75 532.00 281.99 543.21 C 276.40 543.25 270.81 543.26 265.23 543.20 C 258.28 533.19 251.82 522.85 244.79 512.91 C 244.67 523.01 244.76 533.11 244.73 543.22 C 240.49 543.24 236.25 543.25 232.01 543.23 C 232.00 521.57 231.98 499.92 232.02 478.26 Z" />
<path fill="#7ebdc4" d=" M 288.27 478.27 C 292.51 478.26 296.75 478.26 300.99 478.27 C 301.02 492.52 300.99 506.78 300.99 521.03 C 300.84 525.38 302.50 530.35 306.73 532.26 C 311.52 534.28 317.29 534.32 322.05 532.14 C 326.87 529.78 327.60 523.82 327.73 519.04 C 327.81 505.45 327.73 491.86 327.77 478.27 C 331.91 478.26 336.06 478.26 340.21 478.26 C 340.28 491.85 340.21 505.44 340.25 519.02 C 340.22 526.32 338.02 534.25 332.05 538.91 C 325.31 544.14 316.24 544.79 308.05 544.02 C 301.77 543.43 295.18 540.88 291.69 535.34 C 288.94 531.11 288.24 525.94 288.25 521.00 C 288.28 506.76 288.26 492.52 288.27 478.27 Z" />
<path fill="#ffffff" d=" M 186.35 489.66 C 192.55 487.40 200.32 489.12 204.39 494.49 C 207.85 499.20 208.79 505.26 208.79 510.98 C 208.78 517.69 206.82 525.00 201.31 529.28 C 194.88 534.56 184.08 533.84 179.04 527.00 C 174.93 521.31 174.31 513.89 174.76 507.09 C 175.23 499.85 179.10 492.10 186.35 489.66 Z" />
</svg>
