<?xml version="1.0" encoding="UTF-8" ?>
<!DOCTYPE svg PUBLIC "-//W3C//DTD SVG 1.1//EN" "http://www.w3.org/Graphics/SVG/1.1/DTD/svg11.dtd">
<svg width="615pt" height="615pt" viewBox="0 0 615 615" version="1.1" xmlns="http://www.w3.org/2000/svg">
<path fill="#ffffff" d=" M 0.00 0.00 L 615.00 0.00 L 615.00 615.00 L 0.00 615.00 L 0.00 0.00 Z" />
<path fill="#88c2e8" d=" M 103.69 144.00 C 130.87 144.02 158.05 143.96 185.23 144.03 C 178.58 150.85 171.46 157.24 165.18 164.41 C 188.79 187.70 212.14 211.24 235.57 234.70 C 227.06 239.82 218.41 244.72 209.87 249.81 C 207.72 250.74 206.64 253.80 208.54 255.52 C 214.67 261.18 221.40 266.19 227.37 272.02 C 222.88 274.75 218.11 277.00 213.69 279.85 C 214.77 281.86 215.87 283.86 216.99 285.86 C 222.59 282.98 227.89 279.54 233.60 276.88 C 237.94 281.01 242.71 284.66 247.08 288.78 C 246.41 298.41 247.15 308.08 246.63 317.72 C 245.04 319.65 243.82 321.85 242.77 324.11 C 244.03 324.84 245.29 325.55 246.55 326.29 C 233.19 336.40 219.61 346.23 206.17 356.24 C 204.44 357.24 203.67 359.48 204.59 361.30 C 205.86 362.78 207.53 363.82 209.09 364.97 C 194.06 379.93 179.26 395.13 164.20 410.06 C 171.07 417.24 178.26 424.10 185.19 431.21 C 158.04 431.37 130.90 431.26 103.75 431.26 C 103.72 404.10 103.64 376.95 103.79 349.79 C 110.61 356.49 117.25 363.38 124.14 370.02 C 139.92 354.49 155.47 338.72 171.16 323.10 C 179.02 314.54 187.67 306.75 195.51 298.17 C 197.87 299.45 200.29 300.62 202.70 301.83 C 203.85 299.75 204.96 297.64 205.98 295.49 C 205.00 294.94 204.03 294.40 203.06 293.86 C 204.00 293.26 204.95 292.66 205.90 292.07 C 205.64 291.55 205.12 290.49 204.86 289.97 C 205.52 288.74 206.23 287.55 206.93 286.35 C 179.51 259.12 152.34 231.63 124.88 204.45 C 117.71 211.28 110.91 218.50 103.76 225.36 C 103.59 198.24 103.71 171.12 103.69 144.00 Z" />
<path fill="#d5e8f7" d=" M 185.23 144.03 C 207.18 144.04 229.13 143.86 251.08 144.10 C 241.47 152.85 231.36 161.05 221.59 169.63 C 218.98 172.05 215.73 173.92 213.83 177.00 C 212.58 178.92 214.61 180.80 215.72 182.24 C 227.83 194.49 239.50 207.17 251.72 219.32 C 253.01 220.52 254.12 221.91 254.98 223.46 C 248.40 227.03 242.05 230.97 235.57 234.70 C 212.14 211.24 188.79 187.70 165.18 164.41 C 171.46 157.24 178.58 150.85 185.23 144.03 Z" />
<path fill="#d5e8f7" d=" M 259.99 145.97 C 262.29 143.40 265.88 144.00 268.96 143.96 C 276.62 144.16 284.28 143.78 291.93 144.13 C 293.45 145.75 294.92 147.41 296.37 149.11 C 298.91 147.92 300.68 145.67 303.00 144.16 C 305.23 143.78 307.51 144.01 309.76 144.07 C 316.49 150.75 323.25 157.41 329.88 164.20 C 316.78 178.14 302.78 191.24 289.49 205.01 C 285.70 201.45 282.23 197.55 278.31 194.13 C 276.66 195.73 275.05 197.36 273.48 199.02 C 277.02 202.71 280.75 206.21 284.24 209.95 C 276.48 218.29 268.14 226.07 260.18 234.21 C 255.93 238.36 252.01 242.90 247.26 246.52 C 245.18 244.25 243.03 242.06 240.87 239.88 C 247.65 235.58 254.78 231.86 261.63 227.66 C 263.18 226.76 264.71 225.25 264.56 223.31 C 263.86 221.27 262.08 219.88 260.66 218.35 C 247.58 205.33 235.10 191.74 222.09 178.66 C 234.62 167.65 247.40 156.92 259.99 145.97 Z" />
<path fill="#abd3ef" d=" M 309.76 144.07 C 336.82 144.09 363.88 144.08 390.94 144.08 C 390.89 171.12 390.94 198.16 390.92 225.20 C 383.96 218.30 377.24 211.15 370.01 204.53 C 342.39 231.51 315.36 259.10 287.95 286.31 C 299.57 298.57 311.81 310.27 323.68 322.31 C 339.54 337.95 355.03 353.97 371.03 369.46 C 377.82 363.02 384.23 356.20 390.97 349.71 C 391.05 376.91 390.98 404.12 391.00 431.33 C 363.86 431.31 336.70 431.57 309.56 431.20 C 316.38 423.99 323.67 417.24 330.48 410.02 C 323.81 402.87 316.66 396.21 309.85 389.20 C 305.01 384.44 300.38 379.45 295.26 374.97 C 293.69 373.54 292.24 371.99 290.83 370.42 C 278.25 357.19 264.98 344.63 252.27 331.53 L 251.73 330.93 C 254.93 329.33 257.60 332.88 260.54 333.77 C 261.69 331.76 262.77 329.72 263.76 327.63 C 262.44 326.97 261.13 326.30 259.81 325.64 C 265.65 320.74 272.05 316.58 278.05 311.90 C 279.48 311.00 280.29 309.04 279.43 307.49 C 278.39 305.94 276.85 304.83 275.47 303.62 C 265.88 295.62 256.57 287.28 247.03 279.22 C 247.07 276.54 247.13 273.87 246.86 271.21 C 246.61 270.86 246.10 270.17 245.85 269.82 C 251.67 266.90 257.22 263.49 263.03 260.56 C 262.17 258.30 261.07 256.14 259.80 254.09 C 255.50 256.27 251.30 258.66 247.11 261.06 C 246.97 256.21 246.88 251.35 247.26 246.52 C 252.01 242.90 255.93 238.36 260.18 234.21 C 268.14 226.07 276.48 218.29 284.24 209.95 C 285.78 211.56 287.41 213.09 289.03 214.63 C 290.71 212.99 292.38 211.35 294.05 209.71 C 292.55 208.12 291.05 206.53 289.49 205.01 C 302.78 191.24 316.78 178.14 329.88 164.20 C 323.25 157.41 316.49 150.75 309.76 144.07 Z" />
<path fill="#ffffff" d=" M 283.51 151.19 C 285.21 152.56 286.95 154.01 287.98 155.99 C 287.57 157.90 285.45 158.87 284.16 160.21 C 280.77 162.68 278.08 166.06 274.36 168.07 C 273.06 166.35 271.77 164.62 270.50 162.88 C 274.49 158.61 279.38 155.32 283.51 151.19 Z" />
<path fill="#ffffff" d=" M 254.16 178.93 C 254.44 174.62 259.33 172.71 262.05 169.92 C 263.64 171.50 265.05 173.24 266.34 175.07 C 265.21 176.29 264.09 177.52 263.01 178.79 C 264.57 180.36 266.18 181.89 267.80 183.40 C 266.46 185.35 264.74 186.98 262.92 188.48 C 259.98 185.37 255.80 182.97 254.16 178.93 Z" />
<path fill="#ffffff" d=" M 278.31 194.13 C 282.23 197.55 285.70 201.45 289.49 205.01 C 291.05 206.53 292.55 208.12 294.05 209.71 C 292.38 211.35 290.71 212.99 289.03 214.63 C 287.41 213.09 285.78 211.56 284.24 209.95 C 280.75 206.21 277.02 202.71 273.48 199.02 C 275.05 197.36 276.66 195.73 278.31 194.13 Z" />
<path fill="#d5e8f7" d=" M 103.76 225.36 C 110.91 218.50 117.71 211.28 124.88 204.45 C 152.34 231.63 179.51 259.12 206.93 286.35 C 206.23 287.55 205.52 288.74 204.86 289.97 C 204.04 288.61 203.13 287.32 202.24 286.01 C 198.86 287.91 195.10 289.40 192.34 292.22 C 190.83 294.87 193.47 296.97 195.51 298.17 C 187.67 306.75 179.02 314.54 171.16 323.10 C 155.47 338.72 139.92 354.49 124.14 370.02 C 117.25 363.38 110.61 356.49 103.79 349.79 C 103.71 308.32 103.78 266.84 103.76 225.36 Z" />
<path fill="#d5e8f7" d=" M 287.95 286.31 C 315.36 259.10 342.39 231.51 370.01 204.53 C 377.24 211.15 383.96 218.30 390.92 225.20 C 391.09 266.70 390.99 308.20 390.97 349.71 C 384.23 356.20 377.82 363.02 371.03 369.46 C 355.03 353.97 339.54 337.95 323.68 322.31 C 311.81 310.27 299.57 298.57 287.95 286.31 Z" />
<path fill="#ffffff" d=" M 299.75 225.02 C 301.37 223.45 302.62 220.84 304.81 220.24 C 307.65 222.75 310.37 225.46 312.87 228.33 C 314.37 229.98 313.29 232.65 311.41 233.49 C 308.68 235.05 306.03 236.86 303.04 237.88 C 301.18 236.51 300.62 233.91 299.52 231.95 C 300.95 231.16 302.39 230.37 303.83 229.58 C 302.50 228.03 301.12 226.53 299.75 225.02 Z" />
<path fill="#ffffff" d=" M 271.05 247.99 C 276.58 244.31 282.65 241.30 288.54 238.17 C 289.69 240.25 290.78 242.36 291.80 244.51 C 285.88 247.62 280.15 251.08 274.19 254.11 C 273.06 252.12 271.72 250.20 271.05 247.99 Z" />
<path fill="#88c2e8" d=" M 217.24 253.79 C 225.00 248.96 232.94 244.42 240.87 239.88 C 243.03 242.06 245.18 244.25 247.26 246.52 C 246.88 251.35 246.97 256.21 247.11 261.06 C 245.46 261.99 243.83 262.96 242.20 263.91 C 243.29 265.95 244.44 267.97 245.85 269.82 C 246.10 270.17 246.61 270.86 246.86 271.21 C 247.13 273.87 247.07 276.54 247.03 279.22 C 237.05 270.81 227.17 262.26 217.24 253.79 Z" />
<path fill="#ffffff" d=" M 247.11 261.06 C 251.30 258.66 255.50 256.27 259.80 254.09 C 261.07 256.14 262.17 258.30 263.03 260.56 C 257.22 263.49 251.67 266.90 245.85 269.82 C 244.44 267.97 243.29 265.95 242.20 263.91 C 243.83 262.96 245.46 261.99 247.11 261.06 Z" />
<path fill="#ffffff" d=" M 192.34 292.22 C 195.10 289.40 198.86 287.91 202.24 286.01 C 203.13 287.32 204.04 288.61 204.86 289.97 C 205.12 290.49 205.64 291.55 205.90 292.07 C 204.95 292.66 204.00 293.26 203.06 293.86 C 204.03 294.40 205.00 294.94 205.98 295.49 C 204.96 297.64 203.85 299.75 202.70 301.83 C 200.29 300.62 197.87 299.45 195.51 298.17 C 193.47 296.97 190.83 294.87 192.34 292.22 Z" />
<path fill="#abd3ef" d=" M 247.08 288.78 C 255.02 295.11 262.50 301.99 270.37 308.42 C 265.06 313.36 258.81 317.18 253.09 321.64 C 250.80 320.58 248.46 319.51 246.63 317.72 C 247.15 308.08 246.41 298.41 247.08 288.78 Z" />
<path fill="#ffffff" d=" M 217.21 301.85 C 223.16 304.99 228.97 308.41 234.92 311.56 C 233.92 313.73 232.81 315.85 231.61 317.92 C 225.71 314.70 219.63 311.68 214.01 308.02 C 214.73 305.81 216.06 303.86 217.21 301.85 Z" />
<path fill="#d5e8f7" d=" M 243.04 337.91 C 246.06 335.71 248.92 333.24 252.27 331.53 C 264.98 344.63 278.25 357.19 290.83 370.42 C 287.72 372.74 284.14 374.71 281.88 377.96 C 280.21 380.19 282.48 382.43 284.06 383.90 C 286.94 386.34 289.52 389.30 292.96 390.98 C 294.79 389.76 295.90 387.78 297.17 386.04 C 294.95 384.04 292.75 382.03 290.56 380.01 C 292.13 378.33 293.69 376.64 295.26 374.97 C 300.38 379.45 305.01 384.44 309.85 389.20 C 316.66 396.21 323.81 402.87 330.48 410.02 C 323.67 417.24 316.38 423.99 309.56 431.20 C 306.07 431.34 302.56 431.32 299.09 430.89 C 300.40 429.84 301.73 428.81 303.07 427.79 C 302.03 425.81 300.90 423.89 299.68 422.03 C 294.84 424.62 290.73 428.34 285.98 431.04 C 274.61 431.35 263.16 431.49 251.80 430.91 C 261.64 424.86 272.21 420.01 282.21 414.21 C 283.81 413.30 284.58 410.96 283.52 409.40 C 282.26 408.00 280.67 406.97 279.15 405.88 C 257.23 390.62 235.77 374.70 213.69 359.66 C 215.74 357.28 218.67 356.00 221.13 354.12 C 228.39 348.66 235.71 343.28 243.04 337.91 Z" />
<path fill="#ffffff" d=" M 275.10 333.99 C 280.98 337.27 286.92 340.44 292.74 343.84 C 291.69 345.93 290.51 347.95 289.18 349.87 C 283.47 346.45 277.49 343.52 271.81 340.07 C 272.89 338.03 273.99 336.00 275.10 333.99 Z" />
<path fill="#88c2e8" d=" M 493.06 337.23 C 503.24 337.40 513.43 336.95 523.60 337.46 C 523.34 382.21 523.58 426.97 523.48 471.73 C 535.39 471.80 547.30 471.72 559.22 471.78 C 559.26 478.85 559.26 485.93 559.21 493.00 C 547.29 493.08 535.36 492.83 523.44 493.13 C 523.54 509.91 523.49 526.70 523.47 543.48 C 515.80 543.55 508.13 543.36 500.46 543.60 C 499.93 526.76 500.42 509.88 500.23 493.02 C 469.43 492.96 438.64 493.02 407.84 492.99 C 407.23 487.02 406.15 481.08 405.88 475.09 C 434.76 429.04 463.91 383.13 493.06 337.23 Z" />
<path fill="#ffffff" d=" M 304.12 350.07 C 307.27 351.89 310.66 353.36 313.60 355.54 C 314.91 356.52 315.14 358.78 314.01 359.98 C 311.36 362.66 308.31 364.91 305.30 367.16 C 303.86 365.40 302.41 363.67 300.95 361.94 C 302.19 360.86 303.41 359.77 304.69 358.74 C 303.40 357.86 302.06 357.02 300.99 355.89 C 301.75 353.81 302.98 351.95 304.12 350.07 Z" />
<path fill="#ffffff" d=" M 429.35 472.61 C 453.09 435.13 476.77 397.61 500.52 360.13 C 500.51 397.33 500.50 434.53 500.52 471.73 C 476.79 471.74 453.07 471.90 429.35 472.61 Z" />
<path fill="#d5e8f7" d=" M 209.09 364.97 C 229.11 378.88 248.81 393.25 268.77 407.23 C 270.37 408.29 271.82 409.53 273.22 410.84 C 263.25 416.80 252.74 421.85 242.62 427.56 C 239.56 429.08 236.63 431.43 233.03 431.25 C 217.08 431.22 201.14 431.29 185.19 431.21 C 178.26 424.10 171.07 417.24 164.20 410.06 C 179.26 395.13 194.06 379.93 209.09 364.97 Z" />
<path fill="#ffffff" d=" M 281.88 377.96 C 284.14 374.71 287.72 372.74 290.83 370.42 C 292.24 371.99 293.69 373.54 295.26 374.97 C 293.69 376.64 292.13 378.33 290.56 380.01 C 292.75 382.03 294.95 384.04 297.17 386.04 C 295.90 387.78 294.79 389.76 292.96 390.98 C 289.52 389.30 286.94 386.34 284.06 383.90 C 282.48 382.43 280.21 380.19 281.88 377.96 Z" />
<path fill="#ffffff" d=" M 308.20 404.46 C 309.69 402.79 311.27 401.21 312.95 399.73 C 316.10 402.38 319.27 404.99 322.35 407.73 C 323.77 408.98 325.42 411.04 324.09 412.95 C 321.41 415.96 317.72 417.89 314.28 419.92 C 312.91 418.10 311.65 416.20 310.71 414.13 C 312.13 413.05 313.53 411.94 314.93 410.83 C 312.61 408.79 310.27 406.76 308.20 404.46 Z" />
<path fill="#88c2e8" d=" M 103.78 450.77 C 120.34 450.75 136.90 450.75 153.46 450.78 C 153.49 455.93 153.51 461.08 153.45 466.23 C 142.94 466.21 132.43 466.32 121.92 466.17 C 121.61 474.05 121.56 481.97 121.95 489.85 C 131.78 489.65 141.62 489.81 151.46 489.77 C 151.49 494.66 151.49 499.56 151.47 504.46 C 141.54 504.60 131.60 504.29 121.67 504.61 C 121.73 517.42 121.82 530.23 121.64 543.04 L 121.25 543.43 C 115.43 543.59 109.60 543.44 103.78 543.46 C 103.75 512.56 103.75 481.67 103.78 450.77 Z" />
<path fill="#88c2e8" d=" M 184.34 478.50 C 193.32 476.41 203.50 477.36 211.11 482.89 C 217.46 487.54 220.79 495.27 221.78 502.90 C 223.35 513.94 221.36 526.19 213.65 534.67 C 204.53 544.99 188.48 547.07 176.20 541.69 C 168.95 538.50 164.08 531.43 162.34 523.85 C 159.93 513.52 160.35 502.02 165.72 492.65 C 169.63 485.63 176.57 480.44 184.34 478.50 Z" />
<path fill="#88c2e8" d=" M 364.03 479.13 C 371.42 476.66 379.33 477.49 386.91 478.49 C 386.92 482.24 386.56 485.99 386.42 489.75 C 380.54 488.50 374.11 486.86 368.32 489.30 C 364.85 490.63 362.85 494.99 364.53 498.41 C 366.01 501.34 369.21 502.67 372.04 503.96 C 377.43 506.28 383.42 508.06 387.44 512.61 C 392.04 517.72 392.05 525.52 389.53 531.61 C 386.74 537.95 380.45 542.15 373.83 543.63 C 366.68 545.16 359.21 544.62 352.13 542.99 C 352.37 539.09 352.64 535.18 352.83 531.28 C 359.62 532.73 367.22 535.20 373.81 531.77 C 378.33 529.48 379.03 522.15 374.61 519.40 C 368.60 515.37 360.91 514.43 355.42 509.51 C 350.30 504.83 349.44 496.97 351.52 490.63 C 353.41 484.97 358.48 480.91 364.03 479.13 Z" />
<path fill="#88c2e8" d=" M 231.79 478.54 C 236.01 478.50 240.24 478.50 244.47 478.54 C 244.51 488.08 244.43 497.62 244.52 507.16 C 251.80 497.96 258.31 488.16 265.18 478.64 C 270.35 478.40 275.53 478.53 280.71 478.55 C 273.03 489.15 264.91 499.42 257.11 509.93 C 265.30 521.12 273.72 532.15 281.76 543.44 C 276.19 543.46 270.61 543.59 265.04 543.37 C 258.12 533.26 251.65 522.82 244.45 512.90 C 244.49 523.09 244.50 533.29 244.46 543.48 C 240.23 543.49 236.00 543.49 231.78 543.46 C 231.75 521.82 231.74 500.18 231.79 478.54 Z" />
<path fill="#88c2e8" d=" M 288.01 478.54 C 292.27 478.53 296.53 478.41 300.79 478.65 C 300.64 492.10 300.77 505.56 300.71 519.01 C 300.77 523.51 301.19 528.98 305.31 531.74 C 309.95 534.54 315.91 534.51 320.96 532.86 C 325.70 531.15 327.48 525.69 327.50 521.06 C 327.56 506.89 327.49 492.71 327.53 478.53 C 331.76 478.50 335.98 478.50 340.22 478.54 C 340.25 492.02 340.25 505.50 340.22 518.98 C 340.08 526.11 338.20 533.87 332.53 538.65 C 326.14 544.13 317.21 544.95 309.14 544.36 C 302.67 543.90 295.64 541.61 291.87 535.98 C 288.47 531.04 288.12 524.81 288.00 519.02 C 288.01 505.52 288.00 492.03 288.01 478.54 Z" />
<path fill="#ffffff" d=" M 187.39 489.49 C 192.71 488.16 198.88 489.18 202.85 493.16 C 207.30 497.48 208.47 504.00 208.71 509.95 C 208.86 516.77 207.23 524.25 201.93 528.95 C 195.55 534.86 184.08 534.31 178.87 527.12 C 174.58 521.10 174.04 513.18 174.79 506.05 C 175.53 498.82 180.05 491.42 187.39 489.49 Z" />
</svg>
