<?xml version="1.0" encoding="UTF-8" ?>
<!DOCTYPE svg PUBLIC "-//W3C//DTD SVG 1.1//EN" "http://www.w3.org/Graphics/SVG/1.1/DTD/svg11.dtd">
<svg width="615pt" height="615pt" viewBox="0 0 615 615" version="1.1" xmlns="http://www.w3.org/2000/svg">
<path fill="#ffffff" d=" M 0.00 0.00 L 615.00 0.00 L 615.00 615.00 L 0.00 615.00 L 0.00 0.00 Z" />
<path fill="#499f70" d=" M 103.71 144.01 C 130.84 144.00 157.98 143.99 185.12 144.01 C 178.39 150.70 171.68 157.41 164.99 164.13 C 188.50 187.67 212.02 211.20 235.57 234.71 C 227.40 239.47 219.26 244.29 211.08 249.04 C 209.56 250.01 207.51 250.94 207.53 253.05 C 207.44 255.05 209.15 256.19 210.47 257.36 C 216.18 262.16 221.84 267.04 227.52 271.89 C 222.92 274.61 218.15 277.04 213.56 279.76 C 214.67 281.83 215.82 283.88 216.97 285.93 C 222.49 282.98 227.89 279.81 233.42 276.89 C 237.04 280.17 240.84 283.25 244.51 286.49 C 232.08 286.88 219.64 286.81 207.22 286.54 C 179.74 259.14 152.34 231.66 124.88 204.24 C 117.81 211.27 110.79 218.35 103.72 225.37 C 103.69 198.25 103.71 171.13 103.71 144.01 Z" />
<path fill="#c6ddcd" d=" M 185.12 144.01 C 207.18 144.00 229.24 143.97 251.30 144.03 C 240.41 153.56 229.38 162.94 218.39 172.35 C 216.60 174.03 214.10 175.39 213.56 177.98 C 213.47 179.97 215.08 181.39 216.25 182.79 C 226.11 192.92 235.93 203.08 245.75 213.24 C 248.81 216.66 252.39 219.61 255.10 223.34 C 248.54 227.04 242.11 230.98 235.57 234.71 C 212.02 211.20 188.50 187.67 164.99 164.13 C 171.68 157.41 178.39 150.70 185.12 144.01 Z" />
<path fill="#c6ddcd" d=" M 261.07 145.09 C 262.31 143.69 264.29 144.07 265.95 143.97 C 274.63 144.04 283.30 143.96 291.98 144.01 C 293.51 145.87 295.17 147.59 296.91 149.25 C 298.93 147.50 300.97 145.77 303.00 144.03 C 305.22 143.98 307.44 143.98 309.66 144.01 C 316.32 150.78 323.15 157.39 329.79 164.20 C 316.48 177.95 302.62 191.17 289.34 204.96 C 285.66 201.33 282.10 197.59 278.32 194.07 C 276.67 195.67 275.03 197.31 273.43 198.97 C 277.02 202.79 280.82 206.40 284.50 210.12 C 271.52 221.66 260.15 234.91 247.19 246.46 C 245.10 244.24 242.95 242.08 240.79 239.93 C 248.07 235.45 255.63 231.44 262.83 226.84 C 264.85 225.87 265.16 222.88 263.48 221.45 C 249.81 207.08 235.89 192.95 222.15 178.64 C 235.00 167.31 248.14 156.31 261.07 145.09 Z" />
<path fill="#a3c6ae" d=" M 309.66 144.01 C 336.77 144.00 363.88 143.99 390.99 144.01 C 391.00 171.12 391.00 198.23 390.99 225.34 C 383.96 218.45 377.20 211.27 369.99 204.56 C 354.04 220.07 338.49 236.00 322.69 251.68 C 311.09 263.42 299.19 274.87 287.80 286.81 C 277.32 287.30 266.82 286.74 256.34 287.19 C 253.26 284.54 250.16 281.91 247.07 279.27 C 247.08 276.32 247.06 273.38 247.03 270.43 C 246.62 270.26 245.79 269.91 245.37 269.74 C 251.58 267.13 257.29 263.51 263.18 260.28 C 262.07 258.20 260.93 256.14 259.76 254.09 C 255.51 256.41 251.30 258.79 247.06 261.13 C 247.07 256.24 246.98 251.35 247.19 246.46 C 260.15 234.91 271.52 221.66 284.50 210.12 C 286.03 211.67 287.58 213.20 289.12 214.74 C 290.77 213.02 292.41 211.29 294.05 209.55 C 292.47 208.02 290.89 206.50 289.34 204.96 C 302.62 191.17 316.48 177.95 329.79 164.20 C 323.15 157.39 316.32 150.78 309.66 144.01 Z" />
<path fill="#ffffff" d=" M 283.67 151.18 C 285.49 152.64 287.02 154.41 288.46 156.25 C 284.19 160.51 279.40 164.19 274.87 168.15 C 273.23 166.47 271.68 164.71 270.22 162.88 C 274.63 158.90 279.27 155.18 283.67 151.18 Z" />
<path fill="#ffffff" d=" M 254.05 178.11 C 255.44 174.39 259.27 172.47 262.04 169.88 C 263.60 171.59 265.11 173.34 266.59 175.12 C 265.30 176.28 264.10 177.52 262.83 178.68 C 264.47 180.36 266.14 182.01 267.83 183.65 C 266.25 185.41 264.61 187.10 262.90 188.73 C 259.98 185.25 255.14 182.73 254.05 178.11 Z" />
<path fill="#fefffe" d=" M 278.32 194.07 C 282.10 197.59 285.66 201.33 289.34 204.96 C 290.89 206.50 292.47 208.02 294.05 209.55 C 292.41 211.29 290.77 213.02 289.12 214.74 C 287.58 213.20 286.03 211.67 284.50 210.12 C 280.82 206.40 277.02 202.79 273.43 198.97 C 275.03 197.31 276.67 195.67 278.32 194.07 Z" />
<path fill="#c6ddcd" d=" M 103.72 225.37 C 110.79 218.35 117.81 211.27 124.88 204.24 C 152.34 231.66 179.74 259.14 207.22 286.54 C 206.32 287.52 205.42 288.49 204.56 289.51 C 203.91 288.32 203.21 287.13 202.54 285.95 C 199.03 287.89 195.14 289.39 192.22 292.23 C 190.97 295.02 193.48 297.03 195.71 298.12 C 172.11 322.34 148.00 346.04 124.12 369.98 C 117.29 363.25 110.58 356.40 103.74 349.67 C 103.73 308.24 103.78 266.81 103.72 225.37 Z" />
<path fill="#c6ddcd" d=" M 322.69 251.68 C 338.49 236.00 354.04 220.07 369.99 204.56 C 377.20 211.27 383.96 218.45 390.99 225.34 C 390.99 266.83 391.02 308.32 390.98 349.81 C 384.38 356.54 377.70 363.20 370.98 369.81 C 343.18 342.22 315.67 314.33 287.80 286.81 C 299.19 274.87 311.09 263.42 322.69 251.68 Z" />
<path fill="#ffffff" d=" M 299.65 225.00 C 301.28 223.31 302.94 221.64 304.61 220.00 C 307.33 222.79 310.25 225.39 312.82 228.32 C 314.35 229.86 313.32 232.48 311.58 233.40 C 308.77 235.12 305.79 236.57 302.91 238.18 C 301.74 236.16 300.60 234.12 299.49 232.06 C 301.00 231.21 302.49 230.33 304.01 229.49 C 302.56 227.99 301.10 226.49 299.65 225.00 Z" />
<path fill="#feffff" d=" M 270.85 247.95 C 276.67 244.63 282.56 241.46 288.38 238.16 C 289.57 240.21 290.73 242.28 291.89 244.37 C 286.02 247.63 280.15 250.90 274.27 254.14 C 273.11 252.08 271.97 250.02 270.85 247.95 Z" />
<path fill="#499f70" d=" M 217.25 253.72 C 225.09 249.11 232.93 244.50 240.79 239.93 C 242.95 242.08 245.10 244.24 247.19 246.46 C 246.98 251.35 247.07 256.24 247.06 261.13 C 245.43 262.02 243.80 262.92 242.17 263.80 C 243.25 265.77 244.30 267.76 245.37 269.74 C 245.79 269.91 246.62 270.26 247.03 270.43 C 247.06 273.38 247.08 276.32 247.07 279.27 C 237.15 270.72 227.21 262.21 217.25 253.72 Z" />
<path fill="#fefffe" d=" M 247.06 261.13 C 251.30 258.79 255.51 256.41 259.76 254.09 C 260.93 256.14 262.07 258.20 263.18 260.28 C 257.29 263.51 251.58 267.13 245.37 269.74 C 244.30 267.76 243.25 265.77 242.17 263.80 C 243.80 262.92 245.43 262.02 247.06 261.13 Z" />
<path fill="#ffffff" d=" M 192.22 292.23 C 195.14 289.39 199.03 287.89 202.54 285.95 C 203.21 287.13 203.91 288.32 204.56 289.51 C 204.90 290.15 205.57 291.43 205.91 292.06 C 205.15 292.52 203.62 293.42 202.86 293.88 C 203.65 294.32 205.24 295.20 206.04 295.64 C 204.93 297.73 203.77 299.80 202.60 301.85 C 200.31 300.58 197.98 299.41 195.71 298.12 C 193.48 297.03 190.97 295.02 192.22 292.23 Z" />
<path fill="#68ab82" d=" M 207.22 286.54 C 219.64 286.81 232.08 286.88 244.51 286.49 L 244.66 286.48 C 245.46 287.23 246.26 287.97 247.07 288.72 C 246.67 298.42 247.47 308.16 246.60 317.84 C 245.06 319.74 243.89 321.91 242.78 324.08 C 244.13 324.80 245.35 325.73 246.72 326.44 C 233.50 335.91 220.57 345.78 207.43 355.36 C 205.98 356.48 203.99 357.66 204.22 359.80 C 204.61 362.39 207.31 363.44 209.12 364.92 C 194.47 380.29 179.13 394.98 164.27 410.14 C 171.26 417.21 178.35 424.18 185.33 431.26 C 158.12 431.38 130.92 431.29 103.71 431.31 C 103.69 404.09 103.63 376.88 103.74 349.67 C 110.58 356.40 117.29 363.25 124.12 369.98 C 148.00 346.04 172.11 322.34 195.71 298.12 C 197.98 299.41 200.31 300.58 202.60 301.85 C 203.77 299.80 204.93 297.73 206.04 295.64 C 205.24 295.20 203.65 294.32 202.86 293.88 C 203.62 293.42 205.15 292.52 205.91 292.06 C 205.57 291.43 204.90 290.15 204.56 289.51 C 205.42 288.49 206.32 287.52 207.22 286.54 Z" />
<path fill="#87b898" d=" M 256.34 287.19 C 266.82 286.74 277.32 287.30 287.80 286.81 C 315.67 314.33 343.18 342.22 370.98 369.81 C 377.70 363.20 384.38 356.54 390.98 349.81 C 391.03 376.98 390.97 404.16 391.01 431.33 C 363.87 431.30 336.73 431.40 309.59 431.28 C 316.67 424.19 323.78 417.13 330.82 410.02 C 322.92 401.96 314.86 394.05 306.91 386.05 C 303.12 382.35 299.60 378.38 295.47 375.06 C 293.75 373.64 292.27 371.98 290.86 370.27 C 278.19 356.98 264.94 344.23 252.01 331.17 C 254.78 329.09 257.78 333.13 260.46 333.94 C 261.63 331.87 262.79 329.80 263.94 327.74 C 262.56 326.99 261.19 326.24 259.81 325.51 C 266.05 320.81 272.45 316.32 278.60 311.51 C 280.47 310.08 280.01 307.16 278.20 305.90 C 270.92 299.66 263.64 293.41 256.34 287.19 Z" />
<path fill="#87b898" d=" M 247.07 288.72 C 254.98 295.29 262.72 302.05 270.52 308.74 C 264.64 312.97 258.91 317.40 253.02 321.62 C 250.79 320.52 248.62 319.29 246.60 317.84 C 247.47 308.16 246.67 298.42 247.07 288.72 Z" />
<path fill="#feffff" d=" M 217.24 301.86 C 223.13 305.17 229.10 308.33 234.96 311.71 C 233.83 313.78 232.70 315.85 231.55 317.91 C 225.63 314.65 219.71 311.38 213.80 308.10 C 214.92 306.01 216.07 303.93 217.24 301.86 Z" />
<path fill="#c6ddcd" d=" M 213.66 359.62 C 226.34 350.07 239.36 340.82 252.01 331.17 C 264.94 344.23 278.19 356.98 290.86 370.27 C 287.77 372.71 284.26 374.77 281.85 377.95 C 280.54 379.58 281.76 381.69 283.03 382.91 C 286.13 385.94 289.54 388.62 292.89 391.36 C 294.45 389.65 295.96 387.91 297.44 386.14 C 295.08 384.04 292.72 381.94 290.38 379.83 C 292.09 378.25 293.76 376.64 295.47 375.06 C 299.60 378.38 303.12 382.35 306.91 386.05 C 314.86 394.05 322.92 401.96 330.82 410.02 C 323.78 417.13 316.67 424.19 309.59 431.28 C 306.00 431.27 302.41 431.27 298.83 431.17 C 300.29 430.07 301.70 428.91 303.19 427.85 C 302.17 425.79 300.95 423.84 299.57 422.01 C 295.32 424.52 291.45 427.59 287.36 430.32 C 285.88 431.59 283.84 431.18 282.06 431.28 C 271.78 431.13 261.49 431.45 251.22 431.11 C 261.20 425.36 271.53 420.22 281.59 414.61 C 282.95 413.89 284.17 412.62 284.04 410.96 C 283.83 408.87 281.74 407.85 280.27 406.69 C 257.98 391.13 236.11 374.95 213.66 359.62 Z" />
<path fill="#feffff" d=" M 275.13 333.94 C 281.06 337.16 286.95 340.48 292.85 343.75 C 291.73 345.82 290.59 347.88 289.46 349.94 C 283.47 346.78 277.62 343.37 271.66 340.16 C 272.80 338.08 273.96 336.00 275.13 333.94 Z" />
<path fill="#79b28f" d=" M 422.20 346.36 C 440.91 337.02 462.28 332.73 483.12 335.13 C 497.50 336.84 511.70 343.79 520.26 355.75 C 529.30 368.06 531.76 384.07 529.96 398.98 C 527.92 418.52 518.09 436.15 507.01 451.98 C 489.30 476.95 468.15 499.18 448.72 522.78 C 478.62 521.46 508.55 521.56 538.48 521.52 C 538.50 528.84 538.48 536.17 538.48 543.49 C 499.07 543.48 459.66 543.51 420.25 543.47 C 420.29 537.62 420.19 531.77 420.27 525.92 C 420.26 524.92 420.63 524.07 421.38 523.37 C 435.31 507.28 449.16 491.11 463.05 474.99 C 475.17 460.54 487.18 445.77 495.99 429.01 C 502.55 416.47 506.25 402.18 504.96 387.99 C 504.18 378.62 500.27 369.19 492.88 363.12 C 485.22 356.67 474.85 354.57 465.06 354.89 C 451.18 355.45 437.83 360.45 425.92 367.39 C 424.62 360.39 423.38 353.38 422.20 346.36 Z" />
<path fill="#feffff" d=" M 304.03 349.98 C 307.04 351.62 310.13 353.12 313.04 354.96 C 314.78 355.90 315.43 358.54 314.02 360.05 C 311.38 362.77 308.25 364.93 305.34 367.33 C 303.86 365.50 302.37 363.69 300.87 361.88 C 302.20 360.79 303.49 359.64 304.83 358.57 C 303.42 357.79 302.06 356.91 300.65 356.13 C 301.76 354.07 302.89 352.02 304.03 349.98 Z" />
<path fill="#c6ddcd" d=" M 209.12 364.92 C 230.70 380.12 252.21 395.42 273.63 410.84 C 262.65 416.83 251.58 422.66 240.60 428.64 C 238.22 429.88 235.82 431.57 233.00 431.29 C 217.11 431.22 201.22 431.27 185.33 431.26 C 178.35 424.18 171.26 417.21 164.27 410.14 C 179.13 394.98 194.47 380.29 209.12 364.92 Z" />
<path fill="#feffff" d=" M 281.85 377.95 C 284.26 374.77 287.77 372.71 290.86 370.27 C 292.27 371.98 293.75 373.64 295.47 375.06 C 293.76 376.64 292.09 378.25 290.38 379.83 C 292.72 381.94 295.08 384.04 297.44 386.14 C 295.96 387.91 294.45 389.65 292.89 391.36 C 289.54 388.62 286.13 385.94 283.03 382.91 C 281.76 381.69 280.54 379.58 281.85 377.95 Z" />
<path fill="#ffffff" d=" M 308.22 404.71 C 309.74 402.97 311.28 401.25 312.84 399.55 C 316.39 402.53 319.96 405.48 323.33 408.65 C 325.03 409.97 324.89 412.83 323.14 414.03 C 320.36 416.22 317.35 418.08 314.42 420.04 C 313.11 418.18 311.80 416.32 310.49 414.47 C 311.81 413.12 314.14 412.38 314.68 410.49 C 312.58 408.50 310.29 406.73 308.22 404.71 Z" />
<path fill="#79b28f" d=" M 103.78 450.77 C 120.34 450.74 136.91 450.77 153.47 450.75 C 153.50 455.91 153.50 461.07 153.47 466.24 C 142.90 466.26 132.33 466.22 121.76 466.25 C 121.73 474.08 121.75 481.91 121.75 489.74 C 131.66 489.78 141.57 489.73 151.49 489.77 C 151.49 494.67 151.49 499.57 151.49 504.48 C 141.58 504.51 131.66 504.46 121.74 504.51 C 121.75 517.50 121.75 530.49 121.74 543.48 C 115.75 543.49 109.76 543.49 103.77 543.48 C 103.75 512.58 103.73 481.67 103.78 450.77 Z" />
<path fill="#79b28f" d=" M 183.47 478.73 C 192.03 476.47 201.69 477.11 209.39 481.72 C 216.05 485.69 220.01 493.04 221.38 500.51 C 223.40 511.33 222.22 523.43 215.45 532.47 C 206.69 544.71 188.80 547.63 175.61 541.41 C 168.67 538.12 164.04 531.26 162.34 523.90 C 159.99 513.78 160.30 502.55 165.37 493.27 C 169.08 486.22 175.81 480.87 183.47 478.73 Z" />
<path fill="#79b28f" d=" M 364.15 479.09 C 371.55 476.68 379.46 477.43 387.02 478.55 C 386.87 482.30 386.58 486.03 386.42 489.78 C 380.33 488.44 373.53 486.70 367.65 489.65 C 363.48 491.56 362.63 497.91 366.33 500.72 C 372.46 505.38 380.87 506.10 386.49 511.60 C 391.37 516.04 392.16 523.46 390.30 529.51 C 388.28 536.46 381.98 541.46 375.15 543.28 C 367.63 545.27 359.63 544.71 352.11 543.00 C 352.37 539.05 352.58 535.10 352.92 531.16 C 359.06 532.81 365.71 534.61 371.98 532.60 C 375.23 531.62 377.85 528.52 377.56 525.01 C 377.79 521.91 375.36 519.52 372.79 518.27 C 366.88 515.12 359.87 513.80 354.91 509.04 C 350.17 504.20 349.46 496.57 351.60 490.39 C 353.57 484.81 358.63 480.82 364.15 479.09 Z" />
<path fill="#79b28f" d=" M 231.76 478.52 C 236.00 478.50 240.24 478.51 244.48 478.52 C 244.52 488.20 244.44 497.89 244.51 507.57 C 251.46 497.91 258.37 488.23 265.29 478.55 C 270.48 478.49 275.67 478.51 280.87 478.52 C 272.99 489.01 265.01 499.42 257.12 509.91 C 265.35 521.12 273.70 532.25 281.88 543.49 C 276.31 543.49 270.75 543.49 265.19 543.49 C 258.14 533.37 251.61 522.88 244.47 512.82 C 244.50 523.04 244.49 533.26 244.48 543.49 C 240.24 543.49 236.00 543.49 231.77 543.48 C 231.75 521.83 231.75 500.18 231.76 478.52 Z" />
<path fill="#79b28f" d=" M 288.01 478.51 C 292.27 478.53 296.54 478.43 300.81 478.62 C 300.67 492.06 300.80 505.51 300.73 518.95 C 300.79 523.26 301.12 528.28 304.67 531.28 C 309.29 534.56 315.58 534.56 320.83 532.91 C 325.67 531.26 327.44 525.71 327.50 521.05 C 327.55 506.88 327.47 492.70 327.53 478.52 C 331.76 478.50 336.00 478.50 340.23 478.53 C 340.25 492.00 340.26 505.47 340.23 518.94 C 340.10 526.05 338.24 533.80 332.60 538.59 C 326.20 544.16 317.17 544.96 309.05 544.36 C 302.60 543.90 295.60 541.58 291.85 535.97 C 288.48 531.02 288.09 524.81 288.00 519.02 C 288.01 505.52 287.99 492.02 288.01 478.51 Z" />
<path fill="#ffffff" d=" M 187.43 489.49 C 192.73 488.20 198.90 489.18 202.86 493.17 C 207.30 497.49 208.45 503.97 208.70 509.92 C 208.85 516.73 207.24 524.22 201.96 528.94 C 195.55 534.84 184.06 534.31 178.84 527.08 C 174.77 521.36 174.16 513.90 174.66 507.10 C 175.19 499.53 179.66 491.48 187.43 489.49 Z" />
</svg>
