<?xml version="1.0" encoding="UTF-8" ?>
<!DOCTYPE svg PUBLIC "-//W3C//DTD SVG 1.1//EN" "http://www.w3.org/Graphics/SVG/1.1/DTD/svg11.dtd">
<svg width="615pt" height="615pt" viewBox="0 0 615 615" version="1.1" xmlns="http://www.w3.org/2000/svg">
<path fill="#ffffff" d=" M 0.00 0.00 L 615.00 0.00 L 615.00 615.00 L 0.00 615.00 L 0.00 0.00 Z" />
<path fill="#e7e938" d=" M 103.70 144.00 C 130.87 144.01 158.04 143.96 185.21 144.02 C 178.47 150.70 171.78 157.41 165.09 164.14 C 188.55 187.68 212.09 211.15 235.58 234.67 C 226.86 239.95 217.94 244.93 209.23 250.23 C 207.10 251.42 206.96 254.70 209.02 256.04 C 215.18 261.18 221.10 266.61 227.37 271.61 C 223.33 275.08 217.96 276.67 213.71 279.90 C 214.75 281.93 215.85 283.92 217.03 285.87 C 222.60 282.98 227.90 279.55 233.59 276.91 C 237.88 280.98 242.62 284.57 246.91 288.65 C 246.46 298.31 246.78 307.98 246.69 317.64 C 244.89 319.51 243.93 321.96 242.55 324.12 C 243.91 324.86 245.27 325.57 246.66 326.27 C 233.16 336.23 219.69 346.24 206.19 356.19 C 204.21 357.25 203.45 360.13 204.98 361.87 C 206.25 363.01 207.70 363.94 209.08 364.95 C 194.05 379.95 179.17 395.10 164.15 410.11 C 171.15 417.18 178.23 424.17 185.24 431.24 C 158.08 431.31 130.93 431.26 103.77 431.26 C 103.70 404.10 103.70 376.93 103.77 349.77 C 110.59 356.50 117.27 363.38 124.15 370.05 C 139.93 354.55 155.44 338.76 171.15 323.18 C 179.01 314.56 187.64 306.68 195.63 298.19 C 197.96 299.48 200.32 300.74 202.77 301.82 C 203.86 299.76 204.96 297.71 206.04 295.64 C 205.03 295.04 204.02 294.45 203.02 293.85 C 203.76 293.42 205.25 292.54 205.99 292.10 C 205.67 291.53 205.04 290.40 204.73 289.83 C 205.48 288.76 206.29 287.73 207.09 286.70 C 179.79 259.15 152.28 231.79 124.84 204.37 C 117.78 211.35 110.84 218.45 103.74 225.40 C 103.62 198.27 103.71 171.13 103.70 144.00 Z" />
<path fill="#f4f5bb" d=" M 185.21 144.02 C 207.18 144.01 229.15 143.94 251.11 144.05 C 239.37 154.71 227.01 164.66 215.16 175.19 C 213.23 176.69 212.97 179.53 214.82 181.20 C 227.21 194.14 239.66 207.02 252.16 219.86 C 253.16 220.98 254.42 221.99 254.89 223.48 C 248.36 227.06 242.08 231.05 235.58 234.67 C 212.09 211.15 188.55 187.68 165.09 164.14 C 171.78 157.41 178.47 150.70 185.21 144.02 Z" />
<path fill="#f4f5bb" d=" M 259.45 146.43 C 260.79 145.40 262.02 143.79 263.91 144.01 C 273.26 144.02 282.62 143.92 291.97 144.07 C 293.44 145.69 294.88 147.35 296.26 149.05 C 299.01 148.27 300.68 145.64 302.96 144.05 C 305.20 143.95 307.46 143.94 309.70 144.05 C 315.68 149.84 321.45 155.83 327.43 161.62 C 328.34 162.48 329.10 163.49 329.75 164.56 C 316.33 178.06 302.73 191.38 289.44 205.01 C 285.70 201.52 282.25 197.73 278.59 194.17 C 276.68 195.56 275.00 197.22 273.50 199.04 C 276.93 202.82 280.78 206.20 284.25 209.94 C 274.84 219.64 265.17 229.08 255.64 238.65 C 252.94 241.38 250.37 244.27 247.21 246.48 C 245.17 244.17 242.95 242.04 240.77 239.87 C 248.09 235.46 255.61 231.39 262.84 226.84 C 264.83 225.76 265.18 222.96 263.52 221.42 C 249.70 207.17 235.94 192.86 222.10 178.63 C 234.44 167.77 247.07 157.24 259.45 146.43 Z" />
<path fill="#ecef75" d=" M 309.70 144.05 C 336.79 144.09 363.87 144.07 390.95 144.06 C 390.91 171.14 390.93 198.21 390.94 225.29 C 384.00 218.31 377.18 211.20 370.00 204.48 C 342.42 231.50 315.34 259.05 287.97 286.28 C 288.87 287.61 289.95 288.81 291.12 289.92 C 317.82 316.35 344.16 343.16 370.94 369.50 C 377.92 363.22 384.33 356.34 390.96 349.70 C 391.05 376.91 390.98 404.13 391.00 431.34 C 363.87 431.32 336.73 431.47 309.61 431.26 C 316.09 424.49 322.90 418.04 329.39 411.28 C 331.15 409.82 328.92 408.23 327.94 407.14 C 316.95 396.55 306.59 385.28 295.30 375.02 C 293.62 373.63 292.21 371.98 290.83 370.31 C 278.20 356.96 264.62 344.52 252.14 331.04 L 253.59 330.17 C 255.92 331.29 258.13 332.65 260.42 333.85 C 261.57 331.84 262.71 329.82 263.85 327.81 C 262.47 327.04 261.13 326.23 259.82 325.37 C 266.15 320.83 272.35 316.12 278.61 311.51 C 280.39 309.96 279.95 307.11 278.08 305.83 C 267.42 296.97 257.16 287.66 246.46 278.86 C 247.25 276.13 247.13 273.25 246.87 270.46 L 245.78 269.81 C 251.54 266.92 257.12 263.69 262.75 260.54 C 262.84 258.20 260.73 256.22 259.78 254.12 C 255.44 256.24 251.29 258.74 247.07 261.08 C 247.01 256.22 246.84 251.34 247.21 246.48 C 250.37 244.27 252.94 241.38 255.64 238.65 C 265.17 229.08 274.84 219.64 284.25 209.94 C 285.79 211.54 287.39 213.09 289.01 214.62 C 290.76 212.99 292.55 211.36 293.98 209.42 C 292.46 207.95 290.96 206.47 289.44 205.01 C 302.73 191.38 316.33 178.06 329.75 164.56 C 329.10 163.49 328.34 162.48 327.43 161.62 C 321.45 155.83 315.68 149.84 309.70 144.05 Z" />
<path fill="#ffffff" d=" M 270.37 162.90 C 274.71 158.72 279.39 154.89 284.02 151.04 C 285.31 152.88 287.88 154.45 287.93 156.80 C 283.77 160.69 279.35 164.33 274.99 167.99 C 272.99 166.77 271.80 164.67 270.37 162.90 Z" />
<path fill="#ffffff" d=" M 254.99 176.00 C 257.21 173.85 259.55 171.83 262.05 170.02 C 263.66 171.60 265.14 173.30 266.48 175.11 C 265.35 176.25 264.19 177.35 262.99 178.41 C 264.21 180.38 266.03 181.85 267.69 183.43 C 266.52 185.49 264.65 186.99 262.92 188.55 C 260.33 186.34 258.02 183.83 255.55 181.49 C 254.03 180.14 253.45 177.55 254.99 176.00 Z" />
<path fill="#ffffff" d=" M 273.50 199.04 C 275.00 197.22 276.68 195.56 278.59 194.17 C 282.25 197.73 285.70 201.52 289.44 205.01 C 290.96 206.47 292.46 207.95 293.98 209.42 C 292.55 211.36 290.76 212.99 289.01 214.62 C 287.39 213.09 285.79 211.54 284.25 209.94 C 280.78 206.20 276.93 202.82 273.50 199.04 Z" />
<path fill="#f4f5bb" d=" M 103.74 225.40 C 110.84 218.45 117.78 211.35 124.84 204.37 C 152.28 231.79 179.79 259.15 207.09 286.70 C 206.29 287.73 205.48 288.76 204.73 289.83 C 204.00 288.48 203.15 287.21 202.25 285.99 C 198.82 287.92 195.08 289.49 192.18 292.22 C 191.05 295.04 193.39 297.03 195.63 298.19 C 187.64 306.68 179.01 314.56 171.15 323.18 C 155.44 338.76 139.93 354.55 124.15 370.05 C 117.27 363.38 110.59 356.50 103.77 349.77 C 103.71 308.32 103.75 266.86 103.74 225.40 Z" />
<path fill="#f4f5bb" d=" M 287.97 286.28 C 315.34 259.05 342.42 231.50 370.00 204.48 C 377.18 211.20 384.00 218.31 390.94 225.29 C 391.06 266.76 391.01 308.23 390.96 349.70 C 384.33 356.34 377.92 363.22 370.94 369.50 C 344.16 343.16 317.82 316.35 291.12 289.92 C 289.95 288.81 288.87 287.61 287.97 286.28 Z" />
<path fill="#ffffff" d=" M 304.42 219.90 C 307.24 222.33 309.74 225.10 312.39 227.71 C 314.36 229.27 313.60 232.53 311.46 233.51 C 308.61 235.11 305.77 236.70 302.88 238.22 C 301.68 236.17 300.47 234.13 299.48 231.98 C 300.98 231.13 302.48 230.28 303.98 229.42 C 302.49 227.98 301.02 226.51 299.59 225.01 C 301.21 223.32 302.84 221.63 304.42 219.90 Z" />
<path fill="#ffffff" d=" M 288.31 238.12 C 289.58 240.19 290.90 242.25 291.76 244.54 C 285.84 247.60 280.14 251.06 274.23 254.12 C 273.03 252.09 271.89 250.03 270.79 247.95 C 276.55 244.54 282.50 241.44 288.31 238.12 Z" />
<path fill="#e7e938" d=" M 217.25 253.77 C 224.98 248.96 232.95 244.53 240.77 239.87 C 242.95 242.04 245.17 244.17 247.21 246.48 C 246.84 251.34 247.01 256.22 247.07 261.08 C 245.44 262.00 243.82 262.93 242.21 263.88 C 243.41 265.83 244.16 268.13 245.78 269.81 L 246.87 270.46 C 247.13 273.25 247.25 276.13 246.46 278.86 C 236.81 270.40 226.97 262.16 217.25 253.77 Z" />
<path fill="#ffffff" d=" M 247.07 261.08 C 251.29 258.74 255.44 256.24 259.78 254.12 C 260.73 256.22 262.84 258.20 262.75 260.54 C 257.12 263.69 251.54 266.92 245.78 269.81 C 244.16 268.13 243.41 265.83 242.21 263.88 C 243.82 262.93 245.44 262.00 247.07 261.08 Z" />
<path fill="#ffffff" d=" M 192.18 292.22 C 195.08 289.49 198.82 287.92 202.25 285.99 C 203.15 287.21 204.00 288.48 204.73 289.83 C 205.04 290.40 205.67 291.53 205.99 292.10 C 205.25 292.54 203.76 293.42 203.02 293.85 C 204.02 294.45 205.03 295.04 206.04 295.64 C 204.96 297.71 203.86 299.76 202.77 301.82 C 200.32 300.74 197.96 299.48 195.63 298.19 C 193.39 297.03 191.05 295.04 192.18 292.22 Z" />
<path fill="#ecef75" d=" M 246.91 288.65 C 254.91 295.01 262.43 301.96 270.36 308.42 C 265.10 313.32 258.81 317.16 253.13 321.61 C 250.94 320.42 248.21 319.69 246.69 317.64 C 246.78 307.98 246.46 298.31 246.91 288.65 Z" />
<path fill="#ffffff" d=" M 217.20 301.75 C 223.13 305.09 229.14 308.30 235.02 311.72 C 233.90 313.78 232.76 315.83 231.63 317.89 C 225.52 314.87 219.62 311.39 213.69 308.03 C 214.87 305.94 216.03 303.84 217.20 301.75 Z" />
<path fill="#f4f5bb" d=" M 219.94 354.97 C 230.64 346.95 241.51 339.15 252.14 331.04 C 264.62 344.52 278.20 356.96 290.83 370.31 C 287.73 372.72 284.25 374.82 281.84 377.97 C 280.40 379.93 282.08 382.28 283.64 383.56 C 286.48 385.97 289.18 388.58 292.20 390.78 C 294.51 390.94 296.15 387.96 296.86 386.08 C 295.34 383.58 292.42 382.12 290.49 379.88 C 292.08 378.25 293.69 376.63 295.30 375.02 C 306.59 385.28 316.95 396.55 327.94 407.14 C 328.92 408.23 331.15 409.82 329.39 411.28 C 322.90 418.04 316.09 424.49 309.61 431.26 C 306.23 431.30 302.85 431.36 299.49 431.06 C 300.60 429.87 301.80 428.77 303.06 427.74 C 302.27 425.69 300.90 423.94 299.68 422.13 C 294.39 424.43 290.45 429.19 285.09 431.22 C 273.98 431.18 262.84 431.50 251.73 431.05 C 261.55 424.90 272.19 420.01 282.22 414.19 C 284.68 412.94 284.42 409.19 282.02 408.01 C 264.89 395.81 247.76 383.61 230.62 371.42 C 225.03 367.57 219.70 363.35 213.90 359.82 C 214.89 357.34 218.00 356.60 219.94 354.97 Z" />
<path fill="#ffffff" d=" M 275.11 333.96 C 280.97 337.28 286.92 340.45 292.77 343.79 C 291.68 345.87 290.54 347.92 289.29 349.91 C 283.52 346.53 277.53 343.53 271.81 340.09 C 272.87 338.03 273.96 335.98 275.11 333.96 Z" />
<path fill="#e7e938" d=" M 424.37 343.80 C 442.92 336.25 463.57 332.79 483.42 336.43 C 495.18 338.55 506.87 344.11 514.13 353.89 C 521.97 364.05 524.26 377.59 522.67 390.11 C 521.18 402.98 514.65 415.28 504.50 423.39 C 499.92 427.31 494.50 430.06 489.00 432.45 C 489.09 432.71 489.25 433.22 489.33 433.48 C 501.09 435.58 512.03 442.29 518.82 452.19 C 527.74 464.85 529.89 481.45 526.52 496.37 C 523.38 510.35 514.68 522.80 503.12 531.15 C 488.95 541.50 471.24 546.13 453.85 546.36 C 443.34 546.43 432.75 545.75 422.50 543.29 C 423.19 536.21 423.98 529.14 424.61 522.07 C 435.71 525.51 447.47 526.51 459.04 525.79 C 472.87 524.76 486.96 518.84 495.37 507.45 C 505.84 493.67 506.03 472.04 493.60 459.40 C 483.48 449.41 468.77 446.21 455.04 445.41 C 447.03 444.87 439.00 445.50 431.03 446.28 C 430.96 440.03 431.01 433.79 431.00 427.54 C 446.46 427.70 462.42 426.95 476.80 420.72 C 486.36 416.55 494.63 408.54 497.30 398.24 C 500.12 387.48 499.37 374.81 492.03 365.96 C 486.18 358.75 476.88 355.40 467.88 354.64 C 453.43 353.48 438.88 357.24 426.15 364.01 C 425.67 357.26 424.85 350.54 424.37 343.80 Z" />
<path fill="#ffffff" d=" M 300.81 356.05 C 301.99 354.17 302.60 351.37 304.51 350.25 C 307.36 351.87 310.29 353.35 313.10 355.06 C 314.94 356.17 315.35 359.08 313.61 360.49 C 310.89 362.78 308.24 365.19 305.25 367.14 C 303.81 365.38 302.35 363.63 300.91 361.87 C 302.16 360.76 303.47 359.70 304.81 358.69 C 303.46 357.82 302.13 356.94 300.81 356.05 Z" />
<path fill="#f4f5bb" d=" M 209.08 364.95 C 229.82 379.46 250.36 394.25 271.01 408.88 C 271.74 409.61 273.69 410.11 272.64 411.41 C 261.50 417.29 250.45 423.34 239.34 429.28 C 237.64 430.09 235.96 431.32 233.99 431.26 C 217.74 431.23 201.49 431.30 185.24 431.24 C 178.23 424.17 171.15 417.18 164.15 410.11 C 179.17 395.10 194.05 379.95 209.08 364.95 Z" />
<path fill="#ffffff" d=" M 281.84 377.97 C 284.25 374.82 287.73 372.72 290.83 370.31 C 292.21 371.98 293.62 373.63 295.30 375.02 C 293.69 376.63 292.08 378.25 290.49 379.88 C 292.42 382.12 295.34 383.58 296.86 386.08 C 296.15 387.96 294.51 390.94 292.20 390.78 C 289.18 388.58 286.48 385.97 283.64 383.56 C 282.08 382.28 280.40 379.93 281.84 377.97 Z" />
<path fill="#ffffff" d=" M 308.21 404.81 C 309.62 402.97 311.10 401.17 312.92 399.71 C 316.35 402.39 319.55 405.34 322.87 408.16 C 324.45 409.40 325.31 412.10 323.57 413.60 C 320.66 415.96 317.55 418.10 314.31 419.98 C 313.09 418.25 311.91 416.50 310.73 414.75 C 311.87 413.17 313.50 412.06 314.96 410.80 C 312.77 408.74 310.40 406.86 308.21 404.81 Z" />
<path fill="#e7e938" d=" M 103.82 450.78 C 120.36 450.76 136.90 450.77 153.44 450.78 C 153.49 455.92 153.47 461.07 153.44 466.22 C 142.89 466.23 132.34 466.22 121.79 466.22 C 121.72 474.08 121.60 481.94 121.85 489.79 C 131.71 489.75 141.58 489.77 151.44 489.78 C 151.49 494.67 151.45 499.56 151.47 504.45 C 141.55 504.57 131.61 504.28 121.69 504.59 C 121.67 517.57 121.88 530.56 121.59 543.54 C 115.66 543.37 109.72 543.51 103.79 543.46 C 103.78 512.56 103.72 481.67 103.82 450.78 Z" />
<path fill="#e7e938" d=" M 186.10 478.13 C 195.27 476.46 205.60 477.94 212.81 484.25 C 218.35 489.27 221.12 496.65 221.92 503.96 C 223.19 514.66 221.13 526.41 213.69 534.61 C 204.27 545.29 187.43 547.26 174.99 541.09 C 167.13 537.10 162.76 528.58 161.58 520.13 C 160.08 510.42 161.05 499.92 166.42 491.47 C 170.76 484.56 178.06 479.60 186.10 478.13 Z" />
<path fill="#e7e938" d=" M 364.15 479.10 C 371.51 476.73 379.39 477.42 386.90 478.57 C 387.09 482.31 386.38 486.03 386.41 489.78 C 380.31 488.41 373.46 486.69 367.56 489.67 C 364.02 491.41 362.72 496.56 365.30 499.63 C 367.71 502.52 371.47 503.64 374.80 505.11 C 380.21 507.25 386.12 509.71 389.19 515.00 C 392.27 520.73 391.69 528.05 388.49 533.62 C 384.63 540.09 377.21 543.54 369.92 544.28 C 363.98 544.80 357.95 544.41 352.15 542.98 C 352.36 539.04 352.63 535.11 352.93 531.18 C 359.42 532.91 366.64 534.90 373.13 532.14 C 377.91 530.27 379.29 523.01 375.15 519.79 C 369.52 515.60 362.09 514.82 356.56 510.42 C 350.61 506.12 349.32 497.68 351.41 491.01 C 353.18 485.13 358.44 480.90 364.15 479.10 Z" />
<path fill="#e7e938" d=" M 231.78 478.55 C 236.00 478.52 240.23 478.53 244.45 478.54 C 244.50 488.09 244.42 497.65 244.48 507.20 C 245.76 506.17 246.59 504.74 247.53 503.43 C 253.36 495.14 259.39 486.99 265.16 478.67 C 270.39 478.36 275.64 478.62 280.88 478.52 C 272.95 488.98 265.00 499.43 257.11 509.92 C 265.34 521.13 273.68 532.24 281.86 543.49 C 276.26 543.39 270.65 543.59 265.06 543.37 C 258.11 533.24 251.60 522.80 244.45 512.82 C 244.46 523.03 244.49 533.25 244.44 543.47 C 240.22 543.44 236.01 543.48 231.79 543.45 C 231.75 521.82 231.78 500.18 231.78 478.55 Z" />
<path fill="#e7e938" d=" M 288.00 478.55 C 292.15 478.48 296.31 478.62 300.46 478.45 C 301.16 492.89 300.39 507.45 300.84 521.93 C 301.04 525.80 302.27 530.27 306.00 532.16 C 310.55 534.51 316.12 534.44 320.92 532.90 C 325.73 531.21 327.44 525.69 327.53 521.05 C 327.55 506.88 327.53 492.71 327.53 478.55 C 331.76 478.52 335.99 478.53 340.22 478.54 C 340.24 492.02 340.23 505.50 340.22 518.98 C 340.12 526.31 338.02 534.32 332.03 539.06 C 325.65 544.20 316.98 544.90 309.10 544.35 C 302.65 543.90 295.66 541.59 291.89 536.00 C 288.67 531.35 288.21 525.50 288.01 520.03 C 287.99 506.20 288.00 492.38 288.00 478.55 Z" />
<path fill="#ffffff" d=" M 187.34 489.50 C 192.65 488.18 198.87 489.14 202.84 493.15 C 207.34 497.45 208.44 503.98 208.74 509.94 C 208.83 516.73 207.27 524.22 201.97 528.92 C 195.59 534.86 184.03 534.33 178.84 527.08 C 174.76 521.38 174.16 513.92 174.64 507.13 C 175.17 499.57 179.60 491.54 187.34 489.50 Z" />
</svg>
