<?xml version="1.0" encoding="UTF-8" ?>
<!DOCTYPE svg PUBLIC "-//W3C//DTD SVG 1.1//EN" "http://www.w3.org/Graphics/SVG/1.1/DTD/svg11.dtd">
<svg width="615pt" height="615pt" viewBox="0 0 615 615" version="1.1" xmlns="http://www.w3.org/2000/svg">
<path fill="#ffffff" d=" M 0.00 0.00 L 615.00 0.00 L 615.00 615.00 L 0.00 615.00 L 0.00 0.00 Z" />
<path fill="#a4c753" d=" M 103.70 144.00 C 130.84 144.00 157.99 143.99 185.13 144.01 C 178.39 150.69 171.69 157.41 164.99 164.14 C 188.51 187.66 212.02 211.19 235.56 234.69 C 227.39 239.49 219.22 244.29 211.02 249.03 C 209.52 250.00 207.56 251.00 207.47 253.04 C 207.45 255.03 209.25 256.20 210.54 257.43 C 216.22 262.20 221.81 267.08 227.48 271.88 C 222.89 274.61 218.16 277.08 213.54 279.76 C 214.68 281.82 215.84 283.88 216.99 285.94 C 222.48 282.95 227.89 279.82 233.40 276.89 C 237.08 280.14 240.85 283.27 244.52 286.53 C 232.04 286.92 219.53 287.09 207.05 286.46 C 179.66 259.06 152.26 231.67 124.86 204.26 C 117.80 211.29 110.77 218.35 103.71 225.39 C 103.68 198.26 103.70 171.13 103.70 144.00 Z" />
<path fill="#e0ecc8" d=" M 185.13 144.01 C 207.18 144.00 229.22 143.98 251.26 144.02 C 239.73 154.26 227.86 164.10 216.23 174.22 C 215.10 175.35 213.74 176.51 213.44 178.16 C 213.67 180.02 215.11 181.43 216.27 182.81 C 227.63 194.41 238.79 206.20 250.18 217.77 C 251.92 219.53 253.53 221.43 255.10 223.34 C 248.55 227.05 242.12 230.98 235.56 234.69 C 212.02 211.19 188.51 187.66 164.99 164.14 C 171.69 157.41 178.39 150.69 185.13 144.01 Z" />
<path fill="#e0ecc8" d=" M 258.35 147.33 C 260.23 145.72 262.19 143.66 264.92 143.99 C 273.94 143.98 282.96 143.98 291.98 144.04 C 293.58 145.66 294.83 147.98 296.97 148.88 C 299.15 147.53 300.87 145.54 303.10 144.25 C 305.23 143.82 307.43 143.98 309.60 143.97 C 315.65 150.42 322.28 156.30 328.24 162.82 C 330.17 164.17 328.13 165.92 327.15 167.14 C 314.50 179.69 301.82 192.22 289.34 204.95 C 285.68 201.28 282.02 197.61 278.28 194.03 C 276.65 195.69 275.02 197.35 273.39 199.01 C 277.00 202.64 280.63 206.27 284.26 209.90 C 277.24 217.00 270.12 224.01 263.09 231.11 C 257.81 236.24 252.87 241.74 247.21 246.47 C 245.09 244.26 242.94 242.07 240.78 239.90 C 248.20 235.20 256.21 231.42 263.36 226.31 C 265.66 224.67 264.17 221.88 262.54 220.44 C 249.04 206.52 235.66 192.50 222.06 178.69 C 234.01 168.07 246.35 157.89 258.35 147.33 Z" />
<path fill="#cee0a4" d=" M 309.60 143.97 C 336.73 144.04 363.86 143.97 391.00 144.01 C 391.00 171.13 391.00 198.25 391.00 225.36 C 383.92 218.53 377.22 211.31 369.97 204.67 C 353.66 220.47 337.81 236.76 321.67 252.74 C 310.39 264.11 298.92 275.27 287.82 286.81 C 277.28 287.21 266.74 286.86 256.21 287.08 C 253.13 284.50 250.09 281.88 247.06 279.25 C 247.06 276.32 247.05 273.38 247.05 270.45 C 246.63 270.28 245.80 269.96 245.39 269.80 C 251.53 267.01 257.31 263.52 263.19 260.23 C 262.01 258.18 260.84 256.14 259.67 254.10 C 255.46 256.42 251.26 258.75 247.07 261.09 C 247.04 256.22 247.03 251.34 247.21 246.47 C 252.87 241.74 257.81 236.24 263.09 231.11 C 270.12 224.01 277.24 217.00 284.26 209.90 C 285.83 211.47 287.42 213.03 289.02 214.60 C 290.68 212.95 292.34 211.30 294.01 209.65 C 292.45 208.08 290.90 206.51 289.34 204.95 C 301.82 192.22 314.50 179.69 327.15 167.14 C 328.13 165.92 330.17 164.17 328.24 162.82 C 322.28 156.30 315.65 150.42 309.60 143.97 Z" />
<path fill="#fffffe" d=" M 283.73 151.14 C 285.45 152.81 287.02 154.64 288.40 156.61 C 283.83 160.42 279.35 164.35 274.84 168.24 C 273.28 166.48 271.73 164.71 270.21 162.93 C 274.61 158.88 279.23 155.07 283.73 151.14 Z" />
<path fill="#fffffe" d=" M 253.97 178.05 C 255.58 174.44 259.20 172.39 262.04 169.86 C 263.52 171.58 265.00 173.31 266.48 175.03 C 265.29 176.28 264.10 177.52 262.92 178.76 C 264.55 180.38 266.19 182.00 267.83 183.61 C 266.22 185.32 264.60 187.01 262.96 188.70 C 259.91 185.26 255.14 182.75 253.97 178.05 Z" />
<path fill="#fffffe" d=" M 278.28 194.03 C 282.02 197.61 285.68 201.28 289.34 204.95 C 290.90 206.51 292.45 208.08 294.01 209.65 C 292.34 211.30 290.68 212.95 289.02 214.60 C 287.42 213.03 285.83 211.47 284.26 209.90 C 280.63 206.27 277.00 202.64 273.39 199.01 C 275.02 197.35 276.65 195.69 278.28 194.03 Z" />
<path fill="#e0ecc8" d=" M 103.71 225.39 C 110.77 218.35 117.80 211.29 124.86 204.26 C 152.26 231.67 179.66 259.06 207.05 286.46 C 206.23 287.55 205.40 288.63 204.63 289.76 C 203.91 288.47 203.15 287.20 202.41 285.94 C 198.89 287.88 195.04 289.45 192.14 292.32 C 191.13 295.10 193.54 296.95 195.67 298.13 C 171.90 322.16 148.12 346.18 124.13 369.99 C 117.31 363.23 110.56 356.39 103.73 349.63 C 103.74 308.22 103.78 266.80 103.71 225.39 Z" />
<path fill="#e0ecc8" d=" M 321.67 252.74 C 337.81 236.76 353.66 220.47 369.97 204.67 C 377.22 211.31 383.92 218.53 391.00 225.36 C 391.00 266.86 391.02 308.36 390.99 349.85 C 384.35 356.53 377.72 363.22 371.00 369.82 C 343.21 342.22 315.68 314.34 287.82 286.81 C 298.92 275.27 310.39 264.11 321.67 252.74 Z" />
<path fill="#fffffe" d=" M 299.67 224.98 C 301.30 223.29 302.93 221.59 304.57 219.90 C 307.25 222.76 310.33 225.27 312.78 228.37 C 314.15 229.76 313.50 232.04 311.98 233.02 C 309.12 235.03 305.91 236.47 302.88 238.20 C 301.73 236.14 300.59 234.09 299.45 232.03 C 300.95 231.17 302.46 230.32 303.97 229.46 C 302.53 227.97 301.10 226.48 299.67 224.98 Z" />
<path fill="#fffffe" d=" M 270.79 247.96 C 276.65 244.66 282.50 241.33 288.45 238.19 C 289.57 240.24 290.68 242.29 291.81 244.35 C 285.98 247.64 280.12 250.89 274.25 254.12 C 273.10 252.07 271.94 250.01 270.79 247.96 Z" />
<path fill="#a4c753" d=" M 217.25 253.71 C 225.07 249.07 232.94 244.51 240.78 239.90 C 242.94 242.07 245.09 244.26 247.21 246.47 C 247.03 251.34 247.04 256.22 247.07 261.09 C 245.43 262.00 243.80 262.92 242.17 263.83 C 243.24 265.82 244.32 267.81 245.39 269.80 C 245.80 269.96 246.63 270.28 247.05 270.45 C 247.05 273.38 247.06 276.32 247.06 279.25 C 237.14 270.72 227.16 262.26 217.25 253.71 Z" />
<path fill="#ffffff" d=" M 259.67 254.10 C 260.84 256.14 262.01 258.18 263.19 260.23 C 257.31 263.52 251.53 267.01 245.39 269.80 C 244.32 267.81 243.24 265.82 242.17 263.83 C 243.80 262.92 245.43 262.00 247.07 261.09 C 251.26 258.75 255.46 256.42 259.67 254.10 Z" />
<path fill="#fffffe" d=" M 192.14 292.32 C 195.04 289.45 198.89 287.88 202.41 285.94 C 203.15 287.20 203.91 288.47 204.63 289.76 C 204.94 290.34 205.56 291.49 205.87 292.07 C 205.10 292.52 203.58 293.42 202.82 293.87 C 203.62 294.30 205.21 295.16 206.00 295.59 C 204.86 297.68 203.72 299.76 202.57 301.84 C 200.26 300.61 197.93 299.44 195.67 298.13 C 193.54 296.95 191.13 295.10 192.14 292.32 Z" />
<path fill="#b1cf6d" d=" M 207.05 286.46 C 219.53 287.09 232.04 286.92 244.52 286.53 L 244.76 286.52 C 245.53 287.26 246.30 288.01 247.08 288.75 C 246.69 298.44 247.38 308.15 246.61 317.82 C 245.16 319.80 243.90 321.91 242.69 324.06 C 244.03 324.81 245.36 325.56 246.71 326.32 C 233.61 336.00 220.54 345.72 207.40 355.35 C 205.79 356.58 203.53 358.25 204.37 360.60 C 205.35 362.57 207.50 363.61 209.14 364.98 C 194.14 379.98 179.36 395.19 164.28 410.12 C 171.26 417.20 178.36 424.17 185.34 431.26 C 158.13 431.37 130.92 431.29 103.71 431.31 C 103.69 404.08 103.64 376.86 103.73 349.63 C 110.56 356.39 117.31 363.23 124.13 369.99 C 148.12 346.18 171.90 322.16 195.67 298.13 C 197.93 299.44 200.26 300.61 202.57 301.84 C 203.72 299.76 204.86 297.68 206.00 295.59 C 205.21 295.16 203.62 294.30 202.82 293.87 C 203.58 293.42 205.10 292.52 205.87 292.07 C 205.56 291.49 204.94 290.34 204.63 289.76 C 205.40 288.63 206.23 287.55 207.05 286.46 Z" />
<path fill="#c0d787" d=" M 256.21 287.08 C 266.74 286.86 277.28 287.21 287.82 286.81 C 315.68 314.34 343.21 342.22 371.00 369.82 C 377.72 363.22 384.35 356.53 390.99 349.85 C 390.99 377.01 390.99 404.18 390.99 431.34 C 363.87 431.29 336.75 431.36 309.63 431.30 C 316.63 424.14 323.84 417.18 330.83 410.00 C 318.98 398.32 307.54 386.20 295.33 374.89 C 293.69 373.38 292.14 371.77 290.65 370.12 C 278.07 356.77 264.76 344.13 251.92 331.03 C 255.03 329.68 257.74 332.83 260.47 333.87 C 261.62 331.83 262.76 329.79 263.92 327.76 C 262.55 326.99 261.19 326.22 259.83 325.46 C 265.34 321.40 270.82 317.30 276.37 313.30 C 277.76 312.12 279.75 311.06 279.81 309.00 C 279.91 307.17 278.25 306.05 277.10 304.91 C 270.13 298.98 263.12 293.07 256.21 287.08 Z" />
<path fill="#c0d787" d=" M 247.08 288.75 C 254.93 295.35 262.73 302.02 270.48 308.74 C 264.65 313.07 258.78 317.33 252.98 321.69 C 250.80 320.49 248.67 319.22 246.61 317.82 C 247.38 308.15 246.69 298.44 247.08 288.75 Z" />
<path fill="#ffffff" d=" M 217.23 301.84 C 223.13 305.15 229.07 308.41 234.98 311.72 C 233.81 313.79 232.64 315.86 231.48 317.93 C 225.61 314.60 219.68 311.36 213.78 308.09 C 214.93 306.00 216.08 303.92 217.23 301.84 Z" />
<path fill="#e0ecc8" d=" M 242.39 338.36 C 245.58 335.93 248.94 333.72 251.92 331.03 C 264.76 344.13 278.07 356.77 290.65 370.12 C 287.41 373.04 283.17 375.27 281.23 379.33 C 283.00 384.85 288.92 387.61 292.94 391.39 C 294.40 389.63 295.87 387.87 297.34 386.12 C 295.04 384.03 292.73 381.96 290.44 379.88 C 292.07 378.21 293.70 376.55 295.33 374.89 C 307.54 386.20 318.98 398.32 330.83 410.00 C 323.84 417.18 316.63 424.14 309.63 431.30 C 306.16 431.31 302.69 431.25 299.22 431.11 C 300.55 429.94 301.89 428.77 303.23 427.61 C 301.98 425.69 300.70 423.80 299.38 421.93 C 295.31 424.64 291.45 427.66 287.30 430.26 C 284.47 431.87 281.04 431.15 277.94 431.30 C 269.14 431.10 260.33 431.52 251.54 431.06 C 261.43 424.87 272.18 420.17 282.17 414.17 C 284.72 412.92 284.39 409.33 282.05 408.05 C 259.24 391.77 236.38 375.55 213.54 359.30 C 223.41 352.67 232.78 345.35 242.39 338.36 Z" />
<path fill="#fffffe" d=" M 275.08 333.92 C 281.01 337.20 286.96 340.46 292.87 343.78 C 291.70 345.84 290.53 347.90 289.35 349.96 C 283.47 346.65 277.54 343.45 271.67 340.14 C 272.80 338.06 273.94 335.99 275.08 333.92 Z" />
<path fill="#b9d37a" d=" M 511.10 335.76 C 521.27 334.58 531.53 334.90 541.72 335.58 C 541.76 342.54 541.67 349.50 541.79 356.46 C 522.53 353.67 501.67 354.39 484.50 364.50 C 469.63 373.07 459.62 388.08 453.99 404.00 C 449.55 415.60 448.16 428.00 445.49 440.05 C 453.34 427.97 465.88 419.17 479.94 415.97 C 499.41 411.54 521.26 414.35 537.53 426.46 C 550.72 436.13 558.90 451.86 560.13 468.09 C 561.30 484.21 558.21 500.94 549.74 514.85 C 541.75 528.22 528.53 538.10 513.72 542.69 C 499.29 547.06 483.58 547.73 468.98 543.87 C 455.27 540.26 443.26 531.13 435.83 519.09 C 425.75 503.02 422.63 483.66 422.26 464.98 C 422.03 441.41 424.58 417.41 433.34 395.36 C 440.03 378.33 451.11 362.75 466.17 352.16 C 479.33 342.79 495.11 337.50 511.10 335.76 Z" />
<path fill="#fffffe" d=" M 304.03 349.99 C 307.21 351.77 310.63 353.21 313.54 355.45 C 314.98 356.46 315.21 358.71 314.03 360.00 C 311.45 362.78 308.27 364.91 305.32 367.28 C 303.83 365.48 302.34 363.68 300.86 361.89 C 302.16 360.74 303.47 359.60 304.78 358.47 C 303.39 357.69 302.00 356.92 300.61 356.14 C 301.74 354.08 302.88 352.04 304.03 349.99 Z" />
<path fill="#e0ecc8" d=" M 209.14 364.98 C 230.66 380.01 251.98 395.36 273.36 410.59 C 269.21 413.59 264.52 415.68 260.05 418.14 C 252.67 422.06 245.36 426.11 237.97 430.00 C 235.85 431.21 233.38 431.33 231.00 431.31 C 215.78 431.18 200.56 431.29 185.34 431.26 C 178.36 424.17 171.26 417.20 164.28 410.12 C 179.36 395.19 194.14 379.98 209.14 364.98 Z" />
<path fill="#fffffe" d=" M 290.65 370.12 C 292.14 371.77 293.69 373.38 295.33 374.89 C 293.70 376.55 292.07 378.21 290.44 379.88 C 292.73 381.96 295.04 384.03 297.34 386.12 C 295.87 387.87 294.40 389.63 292.94 391.39 C 288.92 387.61 283.00 384.85 281.23 379.33 C 283.17 375.27 287.41 373.04 290.65 370.12 Z" />
<path fill="#ffffff" d=" M 308.14 404.73 C 309.71 403.01 311.30 401.30 312.89 399.60 C 316.36 402.64 320.09 405.41 323.31 408.73 C 324.68 409.89 325.12 412.25 323.60 413.48 C 320.83 416.11 317.46 417.97 314.32 420.10 C 313.07 418.15 311.83 416.20 310.60 414.24 C 312.08 413.13 313.56 412.02 315.04 410.92 C 312.74 408.85 310.44 406.79 308.14 404.73 Z" />
<path fill="#ffffff" d=" M 483.22 434.31 C 496.31 432.03 510.79 434.21 521.43 442.57 C 530.44 449.66 535.35 460.89 536.40 472.13 C 537.51 484.84 535.22 498.33 527.91 508.99 C 522.33 517.27 513.51 523.10 503.89 525.54 C 492.93 528.33 480.69 528.01 470.67 522.31 C 459.06 515.97 451.52 503.76 449.01 490.97 C 446.18 477.74 448.07 463.15 455.83 451.86 C 462.01 442.54 472.27 436.27 483.22 434.31 Z" />
<path fill="#b9d37a" d=" M 103.77 450.76 C 120.33 450.75 136.89 450.75 153.45 450.76 C 153.48 455.91 153.48 461.07 153.46 466.23 C 142.89 466.24 132.32 466.23 121.75 466.23 C 121.73 474.07 121.72 481.92 121.75 489.77 C 131.66 489.77 141.57 489.75 151.48 489.78 C 151.47 494.67 151.47 499.56 151.48 504.46 C 141.55 504.52 131.63 504.40 121.71 504.53 C 121.75 517.51 121.74 530.50 121.72 543.48 C 115.75 543.46 109.77 543.48 103.79 543.47 C 103.74 512.56 103.77 481.66 103.77 450.76 Z" />
<path fill="#b9d37a" d=" M 184.40 478.48 C 193.38 476.43 203.53 477.37 211.14 482.91 C 217.79 487.79 221.08 496.00 221.92 504.00 C 223.26 514.95 220.98 527.00 213.16 535.21 C 204.14 544.87 188.94 546.85 176.99 542.04 C 169.37 539.03 164.17 531.77 162.37 523.95 C 159.90 513.59 160.35 502.05 165.71 492.63 C 169.63 485.60 176.61 480.42 184.40 478.48 Z" />
<path fill="#b9d37a" d=" M 364.08 479.13 C 371.48 476.67 379.42 477.49 387.00 478.52 C 386.82 482.28 386.60 486.03 386.41 489.80 C 380.32 488.44 373.47 486.67 367.59 489.67 C 363.50 491.61 362.65 497.85 366.28 500.66 C 372.38 505.39 380.82 506.08 386.46 511.58 C 391.73 516.39 392.26 524.55 389.82 530.92 C 387.30 537.44 381.03 541.87 374.40 543.48 C 367.07 545.23 359.40 544.58 352.10 543.03 C 352.37 539.09 352.64 535.16 352.87 531.22 C 359.40 532.78 366.58 534.92 373.08 532.16 C 377.85 530.31 379.30 523.08 375.19 519.85 C 368.99 515.28 360.61 514.56 354.97 509.08 C 350.34 504.45 349.57 497.16 351.36 491.10 C 353.12 485.22 358.35 480.92 364.08 479.13 Z" />
<path fill="#b9d37a" d=" M 231.78 478.54 C 236.01 478.52 240.24 478.52 244.47 478.53 C 244.50 488.21 244.42 497.89 244.50 507.57 C 251.45 497.94 258.37 488.29 265.22 478.60 C 270.43 478.47 275.63 478.51 280.84 478.53 C 272.96 489.02 265.01 499.45 257.10 509.90 C 265.34 521.11 273.68 532.24 281.87 543.48 C 276.30 543.48 270.73 543.46 265.17 543.48 C 258.16 533.33 251.58 522.89 244.50 512.80 C 244.43 523.03 244.51 533.25 244.46 543.48 C 240.24 543.47 236.01 543.47 231.79 543.47 C 231.74 521.82 231.77 500.18 231.78 478.54 Z" />
<path fill="#b9d37a" d=" M 288.00 478.53 C 292.25 478.52 296.50 478.52 300.75 478.55 C 300.72 492.06 300.74 505.57 300.73 519.09 C 300.82 523.56 301.21 528.99 305.31 531.74 C 309.92 534.56 315.88 534.49 320.91 532.89 C 325.71 531.20 327.43 525.69 327.50 521.05 C 327.59 506.88 327.48 492.70 327.54 478.53 C 331.77 478.52 336.00 478.52 340.23 478.54 C 340.22 492.02 340.27 505.51 340.21 518.99 C 340.12 526.32 338.06 534.32 332.06 539.05 C 325.67 544.19 317.00 544.92 309.12 544.35 C 302.64 543.89 295.62 541.59 291.84 535.96 C 288.09 530.40 288.05 523.39 287.98 516.93 C 288.02 504.13 287.99 491.33 288.00 478.53 Z" />
<path fill="#ffffff" d=" M 187.38 489.49 C 192.71 488.18 198.90 489.18 202.89 493.19 C 207.28 497.53 208.49 503.99 208.71 509.94 C 208.88 516.96 207.11 524.74 201.42 529.38 C 194.80 535.02 183.36 534.00 178.47 526.57 C 174.59 520.58 174.04 513.00 174.78 506.07 C 175.52 498.84 180.03 491.45 187.38 489.49 Z" />
</svg>
