<?xml version="1.0" encoding="UTF-8" ?>
<!DOCTYPE svg PUBLIC "-//W3C//DTD SVG 1.1//EN" "http://www.w3.org/Graphics/SVG/1.1/DTD/svg11.dtd">
<svg width="615pt" height="615pt" viewBox="0 0 615 615" version="1.1" xmlns="http://www.w3.org/2000/svg">
<path fill="#ffffff" d=" M 0.00 0.00 L 615.00 0.00 L 615.00 615.00 L 0.00 615.00 L 0.00 0.00 Z" />
<path fill="#4899ce" d=" M 103.71 144.00 C 130.85 144.01 157.99 143.97 185.14 144.02 C 178.38 150.68 171.70 157.42 165.00 164.12 C 188.49 187.67 212.04 211.16 235.54 234.70 C 226.99 239.77 218.36 244.70 209.83 249.79 C 207.65 250.76 206.56 253.84 208.55 255.57 C 214.65 261.22 221.29 266.28 227.36 271.98 C 222.80 274.68 218.06 277.04 213.56 279.84 C 214.70 281.86 215.83 283.90 216.97 285.93 C 222.51 282.99 227.90 279.76 233.48 276.90 C 237.05 280.18 240.84 283.21 244.44 286.48 C 232.00 287.01 219.50 287.06 207.06 286.47 C 179.70 259.02 152.26 231.67 124.88 204.25 C 117.81 211.25 110.83 218.35 103.74 225.33 C 103.66 198.22 103.72 171.11 103.71 144.00 Z" />
<path fill="#c8daee" d=" M 185.14 144.02 C 207.14 144.03 229.14 143.90 251.14 144.08 C 239.66 154.31 227.82 164.14 216.20 174.22 C 214.99 175.42 213.37 176.81 213.49 178.68 C 214.06 180.50 215.43 181.90 216.68 183.28 C 225.98 192.63 234.98 202.28 244.23 211.68 C 247.81 215.60 251.86 219.11 255.06 223.38 C 248.50 227.06 242.06 230.95 235.54 234.70 C 212.04 211.16 188.49 187.67 165.00 164.12 C 171.70 157.42 178.38 150.68 185.14 144.02 Z" />
<path fill="#c8daee" d=" M 259.44 146.43 C 260.97 145.06 262.74 143.74 264.93 143.99 C 273.94 144.01 282.96 143.94 291.98 144.05 C 293.47 145.78 294.97 147.49 296.44 149.22 C 298.75 147.72 300.76 145.82 303.01 144.23 C 305.21 143.83 307.46 143.99 309.69 144.00 C 316.29 150.92 323.39 157.37 329.81 164.46 C 316.36 177.99 302.74 191.36 289.42 205.01 C 285.72 201.34 282.09 197.61 278.29 194.06 C 276.66 195.72 275.03 197.38 273.40 199.03 C 277.09 202.82 280.88 206.52 284.64 210.24 C 271.52 221.63 260.28 235.06 247.20 246.50 C 245.10 244.26 242.94 242.07 240.77 239.89 C 247.48 235.89 254.28 232.06 261.00 228.08 C 262.61 227.00 265.01 225.67 264.57 223.37 C 263.92 221.55 262.37 220.26 261.11 218.86 C 248.00 205.54 235.16 191.96 222.06 178.63 C 234.45 167.82 247.03 157.22 259.44 146.43 Z" />
<path fill="#a4c5e4" d=" M 309.69 144.00 C 336.79 144.01 363.89 143.99 391.00 144.01 C 390.99 171.10 391.03 198.19 390.97 225.28 C 383.90 218.46 377.18 211.28 370.00 204.56 C 351.53 222.58 333.47 241.02 315.15 259.20 C 306.08 268.45 296.69 277.40 287.77 286.79 C 277.29 287.30 266.80 286.78 256.33 287.15 C 253.19 284.56 250.12 281.90 247.05 279.24 C 247.05 276.28 247.05 273.33 247.04 270.38 C 246.62 270.22 245.77 269.91 245.35 269.76 C 251.55 267.06 257.35 263.56 263.19 260.18 C 262.06 258.15 260.93 256.14 259.80 254.12 C 255.52 256.35 251.31 258.71 247.10 261.07 C 247.03 256.21 247.00 251.35 247.20 246.50 C 260.28 235.06 271.52 221.63 284.64 210.24 C 286.10 211.68 287.55 213.13 289.01 214.57 C 290.67 212.93 292.34 211.30 294.02 209.67 C 292.49 208.11 290.96 206.55 289.42 205.01 C 302.74 191.36 316.36 177.99 329.81 164.46 C 323.39 157.37 316.29 150.92 309.69 144.00 Z" />
<path fill="#fffffe" d=" M 283.62 151.13 C 285.17 152.81 287.84 154.27 287.90 156.76 C 283.83 160.70 279.49 164.43 274.98 167.86 C 272.92 166.79 271.79 164.57 270.28 162.89 C 274.57 158.79 279.29 155.19 283.62 151.13 Z" />
<path fill="#fffffe" d=" M 254.10 178.95 C 254.41 174.61 259.29 172.66 262.09 169.93 C 263.58 171.65 265.07 173.38 266.55 175.12 C 265.33 176.24 264.12 177.37 262.91 178.49 C 264.48 180.23 266.09 181.92 267.77 183.56 C 266.24 185.33 264.64 187.03 262.97 188.67 C 260.01 185.47 255.91 183.02 254.10 178.95 Z" />
<path fill="#ffffff" d=" M 278.29 194.06 C 282.09 197.61 285.72 201.34 289.42 205.01 C 290.96 206.55 292.49 208.11 294.02 209.67 C 292.34 211.30 290.67 212.93 289.01 214.57 C 287.55 213.13 286.10 211.68 284.64 210.24 C 280.88 206.52 277.09 202.82 273.40 199.03 C 275.03 197.38 276.66 195.72 278.29 194.06 Z" />
<path fill="#c8daee" d=" M 103.74 225.33 C 110.83 218.35 117.81 211.25 124.88 204.25 C 152.26 231.67 179.70 259.02 207.06 286.47 C 206.25 287.57 205.43 288.67 204.68 289.81 C 204.01 288.53 203.30 287.26 202.61 286.00 C 198.99 287.83 195.05 289.36 192.15 292.30 C 190.89 295.59 194.11 297.25 196.51 298.50 C 194.74 299.27 193.21 300.48 191.90 301.89 C 169.47 324.74 146.83 347.39 124.15 369.99 C 117.29 363.29 110.62 356.41 103.75 349.72 C 103.72 308.25 103.75 266.79 103.74 225.33 Z" />
<path fill="#c8daee" d=" M 315.15 259.20 C 333.47 241.02 351.53 222.58 370.00 204.56 C 377.18 211.28 383.90 218.46 390.97 225.28 C 391.01 266.78 391.03 308.27 390.96 349.76 C 384.39 356.50 377.74 363.17 371.01 369.75 C 343.15 342.22 315.71 314.25 287.77 286.79 C 296.69 277.40 306.08 268.45 315.15 259.20 Z" />
<path fill="#ffffff" d=" M 304.45 219.92 C 307.24 222.71 310.30 225.28 312.79 228.37 C 314.17 229.74 313.46 232.08 311.98 233.05 C 309.11 235.04 305.90 236.49 302.86 238.19 C 301.71 236.14 300.57 234.08 299.48 231.99 C 300.96 231.19 302.45 230.39 303.93 229.59 C 302.53 228.05 301.14 226.51 299.74 224.97 C 301.31 223.29 302.88 221.60 304.45 219.92 Z" />
<path fill="#ffffff" d=" M 271.02 247.99 C 276.62 244.35 282.66 241.41 288.51 238.18 C 289.60 240.27 290.69 242.37 291.77 244.47 C 285.86 247.60 280.09 250.97 274.19 254.12 C 273.06 252.12 271.86 250.14 271.02 247.99 Z" />
<path fill="#4899ce" d=" M 217.25 253.72 C 225.07 249.07 232.95 244.54 240.77 239.89 C 242.94 242.07 245.10 244.26 247.20 246.50 C 247.00 251.35 247.03 256.21 247.10 261.07 C 245.45 261.98 243.80 262.90 242.15 263.82 C 243.22 265.80 244.29 267.77 245.35 269.76 C 245.77 269.91 246.62 270.22 247.04 270.38 C 247.05 273.33 247.05 276.28 247.05 279.24 C 237.12 270.73 227.17 262.24 217.25 253.72 Z" />
<path fill="#fffffe" d=" M 247.10 261.07 C 251.31 258.71 255.52 256.35 259.80 254.12 C 260.93 256.14 262.06 258.15 263.19 260.18 C 257.35 263.56 251.55 267.06 245.35 269.76 C 244.29 267.77 243.22 265.80 242.15 263.82 C 243.80 262.90 245.45 261.98 247.10 261.07 Z" />
<path fill="#fefffe" d=" M 192.15 292.30 C 195.05 289.36 198.99 287.83 202.61 286.00 C 203.30 287.26 204.01 288.53 204.68 289.81 C 204.97 290.39 205.54 291.54 205.83 292.12 C 204.84 292.70 203.85 293.28 202.86 293.86 C 203.90 294.41 204.95 294.96 205.99 295.52 C 204.87 297.64 203.75 299.75 202.63 301.88 C 200.60 300.74 198.56 299.59 196.51 298.50 C 194.11 297.25 190.89 295.59 192.15 292.30 Z" />
<path fill="#69a6d5" d=" M 207.06 286.47 C 219.50 287.06 232.00 287.01 244.44 286.48 L 244.70 286.46 C 245.50 287.24 246.32 288.02 247.13 288.81 C 246.82 298.37 246.99 307.94 246.89 317.51 C 245.23 319.52 243.92 321.77 242.76 324.09 C 244.06 324.83 245.36 325.56 246.67 326.29 C 233.42 336.20 220.08 345.99 206.78 355.83 C 205.04 356.95 203.37 359.13 204.61 361.23 C 205.89 362.72 207.57 363.81 209.14 364.99 C 194.12 379.97 179.33 395.19 164.26 410.13 C 171.24 417.21 178.35 424.15 185.29 431.25 C 158.10 431.39 130.90 431.28 103.70 431.30 C 103.71 404.11 103.61 376.91 103.75 349.72 C 110.62 356.41 117.29 363.29 124.15 369.99 C 146.83 347.39 169.47 324.74 191.90 301.89 C 193.21 300.48 194.74 299.27 196.51 298.50 C 198.56 299.59 200.60 300.74 202.63 301.88 C 203.75 299.75 204.87 297.64 205.99 295.52 C 204.95 294.96 203.90 294.41 202.86 293.86 C 203.85 293.28 204.84 292.70 205.83 292.12 C 205.54 291.54 204.97 290.39 204.68 289.81 C 205.43 288.67 206.25 287.57 207.06 286.47 Z" />
<path fill="#89b5dc" d=" M 256.33 287.15 C 266.80 286.78 277.29 287.30 287.77 286.79 C 315.71 314.25 343.15 342.22 371.01 369.75 C 377.74 363.17 384.39 356.50 390.96 349.76 C 391.06 376.95 390.96 404.13 391.01 431.32 C 363.89 431.31 336.77 431.41 309.66 431.27 C 316.57 424.07 323.86 417.22 330.73 409.98 C 318.96 398.27 307.52 386.21 295.35 374.93 C 293.76 373.47 292.29 371.90 290.86 370.30 C 278.13 357.03 265.00 344.13 251.89 331.23 C 254.86 329.27 257.66 332.90 260.33 333.92 C 261.57 331.88 262.76 329.82 263.96 327.75 C 262.58 327.02 261.21 326.29 259.84 325.56 C 265.96 320.69 272.49 316.36 278.59 311.47 C 280.45 310.06 279.98 307.15 278.17 305.91 C 270.95 299.58 263.52 293.50 256.33 287.15 Z" />
<path fill="#89b5dc" d=" M 247.13 288.81 C 254.97 295.27 262.57 302.01 270.36 308.53 C 264.87 313.25 258.78 317.21 253.04 321.63 C 251.01 320.31 248.08 319.75 246.89 317.51 C 246.99 307.94 246.82 298.37 247.13 288.81 Z" />
<path fill="#fffffe" d=" M 217.21 301.85 C 223.15 305.13 229.09 308.40 234.99 311.74 C 233.81 313.81 232.63 315.88 231.45 317.95 C 225.59 314.58 219.64 311.39 213.78 308.05 C 214.92 305.98 216.06 303.91 217.21 301.85 Z" />
<path fill="#c8daee" d=" M 213.57 359.27 C 226.64 350.35 239.21 340.69 251.89 331.23 C 265.00 344.13 278.13 357.03 290.86 370.30 C 287.50 373.18 282.33 375.27 281.28 379.93 C 283.46 384.94 288.92 387.48 292.58 391.35 C 294.26 389.69 295.86 387.96 297.40 386.17 C 295.10 384.09 292.82 382.00 290.52 379.92 C 292.13 378.26 293.74 376.59 295.35 374.93 C 307.52 386.21 318.96 398.27 330.73 409.98 C 323.86 417.22 316.57 424.07 309.66 431.27 C 306.24 431.32 302.83 431.25 299.42 431.06 C 300.66 429.93 301.90 428.81 303.14 427.69 C 302.03 425.77 300.88 423.87 299.70 422.00 C 294.50 424.53 290.46 429.20 285.04 431.15 C 273.94 431.31 262.81 431.48 251.71 430.99 C 261.58 424.87 272.20 420.05 282.22 414.19 C 284.73 412.93 284.40 409.21 282.02 408.00 C 259.24 391.71 236.33 375.58 213.57 359.27 Z" />
<path fill="#ffffff" d=" M 275.06 333.92 C 281.00 337.20 286.97 340.44 292.87 343.80 C 291.70 345.86 290.52 347.91 289.33 349.96 C 283.50 346.60 277.51 343.52 271.72 340.09 C 272.83 338.04 273.94 335.98 275.06 333.92 Z" />
<path fill="#7baed9" d=" M 408.26 344.02 C 448.66 343.97 489.06 344.01 529.47 344.00 C 529.47 349.67 529.48 355.33 529.51 361.00 C 529.82 365.01 527.38 368.41 525.89 371.94 C 509.94 407.39 496.63 443.98 484.92 481.02 C 477.82 503.77 471.36 526.73 466.13 549.98 C 457.38 550.02 448.64 550.00 439.90 550.00 C 450.79 506.17 464.94 463.20 480.82 420.95 C 487.72 402.38 495.48 384.16 503.28 365.96 C 471.59 366.23 439.91 366.56 408.22 366.40 C 408.31 358.94 408.26 351.48 408.26 344.02 Z" />
<path fill="#fffffe" d=" M 304.04 349.99 C 307.21 351.80 310.64 353.23 313.56 355.46 C 314.95 356.48 315.21 358.77 314.00 360.03 C 311.41 362.79 308.25 364.93 305.28 367.25 C 303.83 365.49 302.38 363.73 300.92 361.99 C 302.16 360.78 303.42 359.59 304.67 358.39 C 303.33 357.62 301.99 356.86 300.65 356.09 C 301.77 354.05 302.90 352.02 304.04 349.99 Z" />
<path fill="#c8daee" d=" M 209.14 364.99 C 229.30 379.06 249.21 393.51 269.33 407.64 C 270.76 408.66 272.07 409.83 273.41 410.97 C 262.94 416.64 252.41 422.18 241.96 427.88 C 239.12 429.38 236.31 431.47 232.93 431.28 C 217.05 431.24 201.17 431.27 185.29 431.25 C 178.35 424.15 171.24 417.21 164.26 410.13 C 179.33 395.19 194.12 379.97 209.14 364.99 Z" />
<path fill="#fefffe" d=" M 281.28 379.93 C 282.33 375.27 287.50 373.18 290.86 370.30 C 292.29 371.90 293.76 373.47 295.35 374.93 C 293.74 376.59 292.13 378.26 290.52 379.92 C 292.82 382.00 295.10 384.09 297.40 386.17 C 295.86 387.96 294.26 389.69 292.58 391.35 C 288.92 387.48 283.46 384.94 281.28 379.93 Z" />
<path fill="#ffffff" d=" M 308.19 404.70 C 309.71 402.96 311.27 401.25 312.90 399.60 C 316.34 402.63 320.02 405.41 323.28 408.66 C 324.76 409.82 325.08 412.29 323.58 413.57 C 320.81 416.13 317.46 417.93 314.34 420.02 C 313.19 418.11 311.25 416.41 311.01 414.13 C 312.21 412.89 313.61 411.87 314.96 410.80 C 312.68 408.80 310.43 406.75 308.19 404.70 Z" />
<path fill="#7baed9" d=" M 103.78 450.78 C 120.34 450.75 136.90 450.78 153.46 450.76 C 153.48 455.91 153.49 461.07 153.46 466.22 C 142.92 466.23 132.38 466.27 121.83 466.20 C 121.65 474.06 121.70 481.93 121.80 489.79 C 131.69 489.74 141.57 489.76 151.46 489.77 C 151.49 494.67 151.48 499.56 151.48 504.46 C 141.73 504.60 131.96 504.26 122.23 504.61 L 121.84 504.92 C 121.59 517.73 121.75 530.56 121.80 543.38 C 115.79 543.56 109.78 543.46 103.77 543.47 C 103.78 512.57 103.75 481.67 103.78 450.78 Z" />
<path fill="#7baed9" d=" M 183.54 478.71 C 192.32 476.44 202.26 477.15 210.01 482.13 C 216.40 486.22 220.12 493.45 221.43 500.76 C 223.57 512.42 221.86 525.61 213.65 534.67 C 204.73 544.80 189.16 546.94 176.98 542.05 C 169.64 539.08 164.42 532.22 162.55 524.64 C 159.87 514.10 160.23 502.28 165.70 492.66 C 169.49 485.88 176.07 480.79 183.54 478.71 Z" />
<path fill="#7baed9" d=" M 351.58 490.41 C 353.87 483.90 360.26 479.71 366.80 478.37 C 373.44 476.83 380.27 477.66 386.94 478.47 C 386.82 482.24 386.65 486.01 386.40 489.78 C 380.30 488.44 373.47 486.69 367.58 489.68 C 364.05 491.40 362.71 496.52 365.29 499.60 C 367.90 502.69 372.00 503.83 375.59 505.41 C 380.95 507.51 386.73 510.21 389.51 515.58 C 393.21 523.39 390.74 533.57 383.90 538.86 C 374.97 545.90 362.63 545.24 352.11 543.03 C 352.39 539.10 352.65 535.18 352.83 531.25 C 358.99 532.66 365.54 534.62 371.80 532.68 C 375.10 531.70 377.81 528.63 377.58 525.07 C 377.77 522.24 375.76 519.88 373.41 518.62 C 367.37 515.19 360.04 513.99 354.92 509.03 C 350.15 504.22 349.52 496.59 351.58 490.41 Z" />
<path fill="#7baed9" d=" M 231.77 478.54 C 236.01 478.51 240.24 478.51 244.48 478.54 C 244.51 488.11 244.41 497.67 244.53 507.24 C 251.73 497.93 258.34 488.17 265.20 478.60 C 270.40 478.46 275.60 478.52 280.80 478.53 C 273.02 489.08 264.93 499.42 257.12 509.95 C 265.37 521.11 273.68 532.23 281.84 543.47 C 276.27 543.49 270.70 543.49 265.13 543.45 C 258.13 533.32 251.63 522.86 244.46 512.87 C 244.49 523.07 244.49 533.28 244.46 543.48 C 240.23 543.48 236.00 543.48 231.77 543.47 C 231.76 521.83 231.76 500.19 231.77 478.54 Z" />
<path fill="#7baed9" d=" M 288.00 478.55 C 292.27 478.48 296.54 478.49 300.81 478.65 C 300.64 492.11 300.78 505.57 300.72 519.04 C 300.80 523.53 301.20 528.99 305.31 531.75 C 309.93 534.54 315.88 534.52 320.90 532.87 C 325.69 531.20 327.47 525.71 327.49 521.07 C 327.58 506.89 327.49 492.72 327.52 478.54 C 331.75 478.51 335.99 478.51 340.22 478.53 C 340.23 492.00 340.26 505.48 340.22 518.95 C 340.13 526.31 338.03 534.35 332.01 539.10 C 325.61 544.21 316.96 544.91 309.09 544.36 C 302.88 543.90 296.23 541.80 292.34 536.65 C 288.52 531.62 288.09 525.02 288.00 518.93 C 287.99 505.47 288.00 492.01 288.00 478.55 Z" />
<path fill="#ffffff" d=" M 187.35 489.50 C 192.68 488.17 198.87 489.17 202.85 493.17 C 207.30 497.49 208.48 504.00 208.71 509.95 C 208.87 516.96 207.12 524.71 201.46 529.36 C 194.97 534.82 183.90 534.13 178.83 527.07 C 174.62 521.07 174.04 513.24 174.77 506.16 C 175.50 498.92 179.98 491.46 187.35 489.50 Z" />
</svg>
