<?xml version="1.0" encoding="UTF-8" ?>
<!DOCTYPE svg PUBLIC "-//W3C//DTD SVG 1.1//EN" "http://www.w3.org/Graphics/SVG/1.1/DTD/svg11.dtd">
<svg width="615pt" height="615pt" viewBox="0 0 615 615" version="1.1" xmlns="http://www.w3.org/2000/svg">
<path fill="#ffffff" d=" M 0.00 0.00 L 615.00 0.00 L 615.00 615.00 L 0.00 615.00 L 0.00 0.00 Z" />
<path fill="#75ae50" d=" M 103.67 76.50 C 137.22 76.40 170.77 76.40 204.31 76.50 C 196.00 84.92 187.58 93.24 179.24 101.63 C 203.50 125.75 227.49 150.13 251.94 174.06 C 256.79 178.94 261.68 183.78 266.50 188.69 C 256.22 194.71 245.94 200.74 235.65 206.74 C 234.11 207.76 231.96 208.78 231.99 210.93 C 231.51 213.21 233.45 214.79 234.95 216.11 C 242.23 222.24 249.39 228.51 256.67 234.63 C 250.87 237.87 244.99 240.97 239.29 244.40 C 240.76 246.86 242.16 249.38 243.59 251.87 C 250.31 248.14 256.98 244.32 263.77 240.71 C 268.29 244.66 272.94 248.48 277.39 252.51 C 262.12 253.06 246.82 252.88 231.54 252.61 C 197.47 218.89 163.96 184.60 129.63 151.14 C 121.10 159.80 112.53 168.43 103.82 176.92 C 103.53 143.45 103.82 109.97 103.67 76.50 Z" />
<path fill="#d3e2c3" d=" M 349.87 76.57 C 386.17 75.70 422.49 76.41 458.79 76.17 C 458.86 107.13 458.78 138.09 458.83 169.04 C 458.12 196.68 458.63 224.34 458.47 251.99 C 458.49 278.19 458.44 304.39 458.50 330.59 C 450.33 338.92 442.02 347.11 433.77 355.37 C 422.27 344.50 411.34 333.03 400.06 321.94 C 376.99 298.89 353.97 275.78 330.86 252.77 C 364.74 218.93 398.47 184.94 432.37 151.11 C 441.17 159.31 449.27 168.23 458.09 176.41 C 458.72 155.96 458.15 135.48 458.37 115.02 C 458.31 102.28 458.50 89.54 458.19 76.80 C 433.80 76.46 409.39 76.74 384.99 76.65 C 376.18 76.70 367.36 76.51 358.55 76.85 C 366.39 85.40 375.02 93.17 382.93 101.66 C 366.22 118.41 349.35 135.01 332.78 151.90 C 328.27 147.47 323.92 142.86 319.15 138.70 C 317.14 140.72 315.12 142.73 313.09 144.74 C 317.58 149.10 322.11 153.42 326.48 157.90 C 311.48 173.16 296.37 188.32 281.08 203.29 C 278.45 200.61 275.90 197.85 273.15 195.31 C 281.90 189.09 291.74 184.58 300.63 178.57 C 303.10 176.90 302.34 173.39 300.32 171.68 C 283.52 154.27 266.70 136.87 249.86 119.50 C 266.28 104.89 283.15 90.78 299.83 76.46 C 311.90 76.61 323.98 76.47 336.06 76.53 C 337.99 78.81 339.94 81.06 341.94 83.27 C 344.59 81.04 347.24 78.81 349.87 76.57 Z" />
<path fill="#d3e2c3" d=" M 204.31 76.50 C 231.43 76.68 258.55 76.25 285.66 76.72 C 273.39 88.16 260.23 98.61 247.68 109.74 C 245.04 112.10 242.03 114.10 239.77 116.85 C 238.48 118.87 239.41 121.46 241.09 122.93 C 257.68 140.01 274.20 157.17 290.76 174.28 C 282.86 179.40 274.56 183.84 266.50 188.69 C 261.68 183.78 256.79 178.94 251.94 174.06 C 227.49 150.13 203.50 125.75 179.24 101.63 C 187.58 93.24 196.00 84.92 204.31 76.50 Z" />
<path fill="#b5cf9f" d=" M 358.55 76.85 C 367.36 76.51 376.18 76.70 384.99 76.65 C 409.39 76.74 433.80 76.46 458.19 76.80 C 458.50 89.54 458.31 102.28 458.37 115.02 C 458.15 135.48 458.72 155.96 458.09 176.41 C 449.27 168.23 441.17 159.31 432.37 151.11 C 398.47 184.94 364.74 218.93 330.86 252.77 C 317.99 253.24 305.05 251.99 292.25 253.45 L 291.94 253.49 C 288.23 250.20 284.45 246.99 280.69 243.77 C 280.96 239.60 281.08 235.42 280.99 231.24 L 279.53 231.75 C 286.62 228.05 293.57 224.11 300.52 220.16 C 299.10 217.66 297.69 215.15 296.28 212.64 C 291.22 215.45 286.14 218.24 281.07 221.04 C 280.97 215.12 280.95 209.21 281.08 203.29 C 296.37 188.32 311.48 173.16 326.48 157.90 C 328.48 159.91 330.52 161.89 332.56 163.86 C 334.57 161.83 336.59 159.80 338.61 157.78 C 336.67 155.81 334.74 153.84 332.78 151.90 C 349.35 135.01 366.22 118.41 382.93 101.66 C 375.02 93.17 366.39 85.40 358.55 76.85 Z" />
<path fill="#ffffff" d=" M 309.28 99.99 C 314.86 95.14 320.44 90.28 326.12 85.53 C 328.04 87.64 329.92 89.79 331.77 91.97 C 326.24 96.94 320.56 101.74 314.88 106.53 C 312.98 104.38 311.11 102.20 309.28 99.99 Z" />
<path fill="#ffffff" d=" M 290.33 116.36 C 293.00 113.54 296.17 111.26 299.09 108.71 C 300.97 110.82 302.80 112.96 304.61 115.13 C 303.05 116.57 301.51 118.01 299.98 119.48 C 302.03 121.53 304.09 123.56 306.11 125.65 C 304.18 127.68 302.28 129.74 300.43 131.84 C 296.80 128.70 293.19 125.48 290.13 121.76 C 288.79 120.28 288.81 117.71 290.33 116.36 Z" />
<path fill="#ffffff" d=" M 313.09 144.74 C 315.12 142.73 317.14 140.72 319.15 138.70 C 323.92 142.86 328.27 147.47 332.78 151.90 C 334.74 153.84 336.67 155.81 338.61 157.78 C 336.59 159.80 334.57 161.83 332.56 163.86 C 330.52 161.89 328.48 159.91 326.48 157.90 C 322.11 153.42 317.58 149.10 313.09 144.74 Z" />
<path fill="#d3e2c3" d=" M 129.63 151.14 C 163.96 184.60 197.47 218.89 231.54 252.61 C 230.40 253.84 229.25 255.06 228.10 256.29 C 227.31 254.84 226.52 253.39 225.73 251.95 C 221.90 254.04 217.79 255.71 214.31 258.39 C 212.53 259.51 212.41 261.95 213.07 263.76 C 214.29 265.08 215.83 266.03 217.35 266.97 C 187.84 296.54 158.52 326.30 128.85 355.72 C 120.47 347.39 112.17 338.97 103.75 330.68 C 103.70 279.49 103.92 228.29 103.64 177.09 L 103.82 176.92 C 112.53 168.43 121.10 159.80 129.63 151.14 Z" />
<path fill="#ffffff" d=" M 345.57 176.75 C 347.50 174.55 349.58 172.49 351.76 170.53 C 354.73 173.80 358.08 176.69 361.13 179.87 C 363.11 181.62 363.16 185.34 360.68 186.68 C 357.20 189.04 353.34 190.76 349.74 192.92 C 348.31 190.61 346.72 188.35 345.76 185.79 C 346.77 183.96 349.32 183.36 351.00 182.16 C 349.18 180.36 347.38 178.55 345.57 176.75 Z" />
<path fill="#fffffe" d=" M 310.31 205.11 C 317.19 200.67 324.60 197.06 331.72 193.01 C 333.10 195.55 334.48 198.10 335.83 200.66 C 328.57 204.57 321.47 208.74 314.17 212.57 C 312.83 210.11 311.33 207.72 310.31 205.11 Z" />
<path fill="#75ae50" d=" M 270.48 196.45 C 271.32 196.12 272.27 195.18 273.15 195.31 C 275.90 197.85 278.45 200.61 281.08 203.29 C 280.95 209.21 280.97 215.12 281.07 221.04 C 278.94 222.24 276.81 223.45 274.69 224.66 C 276.04 227.12 277.39 229.58 278.73 232.05 C 278.93 231.98 279.33 231.82 279.53 231.75 L 280.99 231.24 C 281.08 235.42 280.96 239.60 280.69 243.77 C 268.42 233.17 256.06 222.67 243.75 212.12 C 252.67 206.92 261.56 201.67 270.48 196.45 Z" />
<path fill="#fffffe" d=" M 281.07 221.04 C 286.14 218.24 291.22 215.45 296.28 212.64 C 297.69 215.15 299.10 217.66 300.52 220.16 C 293.57 224.11 286.62 228.05 279.53 231.75 C 279.33 231.82 278.93 231.98 278.73 232.05 C 277.39 229.58 276.04 227.12 274.69 224.66 C 276.81 223.45 278.94 222.24 281.07 221.04 Z" />
<path fill="#ffffff" d=" M 214.31 258.39 C 217.79 255.71 221.90 254.04 225.73 251.95 C 226.52 253.39 227.31 254.84 228.10 256.29 C 228.67 257.33 229.24 258.37 229.81 259.42 C 228.52 260.17 227.24 260.92 225.96 261.67 C 227.29 262.44 228.61 263.20 229.95 263.97 C 228.54 266.48 227.14 269.00 225.75 271.52 C 222.96 269.98 220.13 268.52 217.35 266.97 C 215.83 266.03 214.29 265.08 213.07 263.76 C 212.41 261.95 212.53 259.51 214.31 258.39 Z" />
<path fill="#8ab667" d=" M 231.54 252.61 C 246.82 252.88 262.12 253.06 277.39 252.51 L 277.68 252.49 C 278.87 253.60 280.07 254.70 281.27 255.80 C 280.65 267.12 281.28 278.46 280.86 289.78 C 280.45 290.40 280.04 291.01 279.64 291.64 C 278.07 294.01 276.66 296.49 275.34 299.01 C 276.98 299.94 278.62 300.86 280.26 301.78 C 265.00 313.05 249.78 324.38 234.49 335.62 C 232.31 337.29 229.82 338.71 228.15 340.95 C 226.65 345.26 231.24 347.38 233.99 349.51 C 215.32 367.94 196.85 386.59 178.28 405.13 C 186.92 413.87 195.69 422.48 204.31 431.25 C 170.77 431.40 137.24 431.27 103.70 431.32 C 103.71 397.77 103.61 364.23 103.75 330.68 C 112.17 338.97 120.47 347.39 128.85 355.72 C 158.52 326.30 187.84 296.54 217.35 266.97 C 220.13 268.52 222.96 269.98 225.75 271.52 C 227.14 269.00 228.54 266.48 229.95 263.97 C 228.61 263.20 227.29 262.44 225.96 261.67 C 227.24 260.92 228.52 260.17 229.81 259.42 C 229.24 258.37 228.67 257.33 228.10 256.29 C 229.25 255.06 230.40 253.84 231.54 252.61 Z" />
<path fill="#a1c482" d=" M 292.25 253.45 C 305.05 251.99 317.99 253.24 330.86 252.77 C 353.97 275.78 376.99 298.89 400.06 321.94 C 411.34 333.03 422.27 344.50 433.77 355.37 C 442.02 347.11 450.33 338.92 458.50 330.59 C 458.68 364.18 458.66 397.78 458.51 431.37 C 425.07 431.23 391.62 431.48 358.18 431.24 C 366.53 422.21 375.57 413.86 384.09 404.99 C 353.14 373.93 322.10 342.96 291.10 311.96 C 289.67 310.42 288.36 308.77 287.09 307.10 C 290.96 306.65 293.96 309.54 297.19 311.14 C 298.66 308.59 300.00 305.97 301.25 303.32 C 299.62 302.47 297.99 301.62 296.37 300.77 C 303.48 295.40 310.65 290.11 317.86 284.86 C 319.41 283.67 321.35 282.16 320.98 279.92 C 320.93 278.08 319.32 276.94 318.14 275.77 C 309.51 268.34 300.71 261.08 292.25 253.45 Z" />
<path fill="#a1c482" d=" M 281.27 255.80 C 290.78 263.81 300.21 271.92 309.66 280.02 C 302.44 285.36 295.23 290.71 288.00 296.04 C 285.24 294.51 282.46 293.03 279.64 291.64 C 280.04 291.01 280.45 290.40 280.86 289.78 C 281.28 278.46 280.65 267.12 281.27 255.80 Z" />
<path fill="#fefffe" d=" M 239.61 279.19 C 241.04 276.68 242.45 274.16 243.87 271.65 C 251.15 275.63 258.40 279.68 265.65 283.72 C 264.28 286.22 262.92 288.73 261.57 291.25 C 254.15 287.43 246.90 283.27 239.61 279.19 Z" />
<path fill="#d3e2c3" d=" M 279.31 313.29 C 282.00 311.35 284.68 309.39 287.09 307.10 C 288.36 308.77 289.67 310.42 291.10 311.96 C 322.10 342.96 353.14 373.93 384.09 404.99 C 375.57 413.86 366.53 422.21 358.18 431.24 C 353.69 431.35 349.21 431.25 344.72 431.04 C 346.49 429.72 348.24 428.38 349.79 426.82 C 348.86 424.16 346.80 422.12 345.14 419.91 C 340.34 423.15 335.66 426.58 330.87 429.84 C 328.32 431.75 324.98 431.19 322.02 431.28 C 310.16 431.03 298.29 431.55 286.45 431.01 C 289.09 429.02 291.95 427.36 294.94 425.95 C 304.49 420.84 314.03 415.72 323.54 410.55 C 325.84 409.57 327.14 406.43 325.49 404.33 C 323.29 401.83 320.32 400.21 317.66 398.26 C 294.69 381.90 271.69 365.58 248.72 349.22 C 245.93 347.17 242.76 345.52 240.54 342.80 L 240.53 342.32 C 241.91 339.85 244.86 338.82 247.02 337.11 C 257.86 329.27 268.57 321.26 279.31 313.29 Z" />
<path fill="#ffffff" d=" M 315.31 311.21 C 322.59 315.21 329.84 319.25 337.11 323.28 C 335.73 325.82 334.33 328.36 332.91 330.89 C 325.62 326.89 318.34 322.86 311.09 318.79 C 312.48 316.26 313.89 313.73 315.31 311.21 Z" />
<path fill="#ffffff" d=" M 351.01 330.97 C 354.82 333.23 358.92 335.02 362.57 337.55 C 364.33 338.62 364.26 340.98 363.76 342.74 C 360.54 346.48 356.31 349.17 352.52 352.28 C 350.75 350.05 348.95 347.84 347.15 345.64 C 348.79 344.23 350.43 342.82 352.08 341.42 C 350.32 340.50 348.57 339.59 346.82 338.68 C 348.18 336.09 349.58 333.52 351.01 330.97 Z" />
<path fill="#a1c27d" d=" M 240.54 342.80 C 240.54 342.68 240.53 342.44 240.53 342.32 L 240.54 342.80 Z" />
<path fill="#96be77" d=" M 480.23 348.24 C 483.92 346.51 488.99 348.84 489.45 353.07 C 490.67 357.96 485.06 362.66 480.50 360.40 C 475.50 358.46 475.38 350.43 480.23 348.24 Z" />
<path fill="#96be77" d=" M 498.27 349.27 C 516.23 349.22 534.20 349.29 552.16 349.24 C 552.23 352.57 552.24 355.90 552.25 359.23 C 534.24 359.19 516.23 359.34 498.22 359.16 C 498.25 355.86 498.25 352.57 498.27 349.27 Z" />
<path fill="#d3e2c3" d=" M 178.28 405.13 C 196.85 386.59 215.32 367.94 233.99 349.51 C 255.43 364.48 276.62 379.83 297.98 394.92 C 303.12 398.63 308.39 402.16 313.39 406.07 C 300.05 413.58 286.41 420.54 273.00 427.91 C 270.19 429.44 267.35 431.36 264.01 431.25 C 244.11 431.24 224.21 431.22 204.31 431.25 C 195.69 422.48 186.92 413.87 178.28 405.13 Z" />
<path fill="#ffffff" d=" M 323.02 366.03 C 325.98 362.01 330.51 359.52 334.22 356.25 C 336.13 358.39 337.97 360.60 339.72 362.88 C 337.80 364.43 335.88 366.00 333.97 367.57 C 336.83 370.32 339.76 373.01 342.78 375.60 C 340.98 377.76 339.30 380.09 337.02 381.79 C 333.35 379.24 330.24 375.99 326.75 373.20 C 324.72 371.41 321.70 369.14 323.02 366.03 Z" />
<path fill="#96be77" d=" M 498.25 369.05 C 516.26 375.95 534.29 382.77 552.27 389.75 C 552.24 393.17 552.23 396.59 552.24 400.02 C 534.24 406.73 516.33 413.68 498.27 420.22 C 498.25 416.51 498.25 412.81 498.25 409.11 C 512.21 404.18 526.07 398.96 540.19 394.52 C 525.95 390.42 512.25 384.70 498.25 379.88 C 498.25 376.27 498.25 372.66 498.25 369.05 Z" />
<path fill="#ffffff" d=" M 356.13 398.67 C 358.01 396.48 359.94 394.33 361.91 392.21 C 366.18 395.93 370.63 399.46 374.71 403.38 C 376.61 404.94 376.83 408.17 374.78 409.71 C 371.43 412.64 367.51 414.83 363.88 417.38 C 362.18 415.08 360.55 412.74 358.99 410.36 C 360.89 408.95 362.82 407.55 364.74 406.16 C 361.89 403.64 359.03 401.13 356.13 398.67 Z" />
<path fill="#96be77" d=" M 498.61 438.38 C 500.14 433.38 504.78 429.80 509.90 429.11 C 515.91 428.36 522.00 428.92 528.05 428.76 C 536.11 428.91 544.17 428.53 552.24 428.49 C 552.23 431.74 552.23 434.98 552.23 438.23 C 549.10 438.12 545.97 438.03 542.85 437.97 C 552.49 442.99 556.32 456.36 550.73 465.66 C 545.77 473.27 533.60 472.45 528.08 465.88 C 521.64 458.45 520.59 448.09 520.38 438.66 C 515.52 438.71 508.95 438.16 506.49 443.43 C 503.41 451.09 506.13 459.67 509.51 466.77 C 506.66 467.07 503.82 467.39 500.98 467.75 C 497.40 458.51 495.54 448.01 498.61 438.38 Z" />
<path fill="#ffffff" d=" M 527.42 438.49 C 532.64 438.80 538.10 440.31 541.71 444.32 C 545.18 448.01 546.78 454.27 543.66 458.62 C 540.79 462.43 534.51 461.97 531.83 458.17 C 527.73 452.53 527.70 445.17 527.42 438.49 Z" />
<path fill="#96be77" d=" M 202.35 464.49 C 213.15 464.49 223.97 463.43 234.76 464.33 C 243.90 465.15 253.45 468.24 259.54 475.47 C 266.33 483.24 268.03 494.04 267.78 504.05 C 267.76 515.17 263.75 526.76 255.07 534.09 C 246.27 541.62 234.31 544.09 222.99 543.97 C 216.07 543.78 209.15 543.66 202.24 543.25 C 202.34 517.00 202.12 490.74 202.35 464.49 Z" />
<path fill="#96be77" d=" M 104.20 543.37 C 104.41 517.07 104.06 490.76 104.38 464.45 C 109.41 464.51 114.45 464.52 119.48 464.51 C 119.50 490.83 119.50 517.15 119.48 543.47 C 114.39 543.53 109.29 543.54 104.20 543.37 Z" />
<path fill="#96be77" d=" M 339.98 464.51 C 345.15 464.50 350.32 464.50 355.49 464.52 C 355.53 476.10 355.42 487.69 355.54 499.27 C 364.34 487.94 372.22 475.93 380.83 464.45 C 387.04 464.55 393.26 464.46 399.48 464.55 C 389.90 477.29 380.19 489.93 370.65 502.69 C 380.77 516.23 390.82 529.83 400.80 543.47 C 393.98 543.47 387.16 543.58 380.34 543.39 C 372.20 531.06 364.13 518.66 355.57 506.61 C 355.38 518.90 355.54 531.19 355.50 543.47 C 350.32 543.50 345.15 543.50 339.98 543.49 C 340.01 517.16 340.01 490.84 339.98 464.51 Z" />
<path fill="#ffffff" d=" M 217.76 477.24 C 225.92 476.87 234.91 476.09 242.06 480.85 C 248.38 485.01 250.74 492.84 251.15 500.03 C 251.84 508.91 250.19 518.97 243.09 525.06 C 236.17 531.05 226.39 531.35 217.75 530.24 C 217.74 512.57 217.72 494.90 217.76 477.24 Z" />
<path fill="#96be77" d=" M 163.67 484.42 C 169.79 483.38 177.05 483.75 181.63 488.50 C 185.64 492.55 186.21 498.59 186.26 504.00 C 186.23 517.16 186.24 530.33 186.25 543.49 C 181.29 543.47 176.33 543.48 171.37 543.56 C 171.07 531.38 171.41 519.19 171.21 507.01 C 170.98 503.81 171.10 499.88 168.22 497.77 C 165.04 495.83 160.75 496.63 157.91 498.87 C 153.03 502.61 150.84 508.95 150.76 514.94 C 150.65 524.47 150.86 534.00 150.67 543.54 C 145.62 543.48 140.58 543.48 135.53 543.50 C 135.44 524.12 135.59 504.74 135.45 485.36 C 140.31 485.24 145.17 485.21 150.03 485.25 C 149.86 488.49 149.62 491.73 149.24 494.95 C 152.38 489.67 157.52 485.49 163.67 484.42 Z" />
<path fill="#96be77" d=" M 281.54 494.54 C 289.17 483.22 306.09 480.84 317.43 487.69 C 326.75 493.68 329.09 506.47 326.95 516.62 C 314.99 516.97 303.00 516.58 291.03 516.79 C 291.38 522.16 292.80 528.50 298.25 530.91 C 306.56 534.53 316.07 532.23 324.17 529.09 C 324.69 533.07 325.10 537.07 325.52 541.07 C 315.10 544.51 303.63 545.93 292.92 543.06 C 284.98 540.92 278.88 534.07 277.15 526.10 C 274.73 515.61 275.31 503.65 281.54 494.54 Z" />
<path fill="#96be77" d=" M 424.50 484.66 C 432.90 483.16 442.41 484.20 449.21 489.75 C 455.94 495.37 458.08 504.61 458.04 513.02 C 458.19 522.19 454.77 531.68 447.73 537.77 C 441.05 543.61 431.74 545.40 423.12 544.30 C 415.25 543.63 407.51 539.14 404.25 531.75 C 400.49 523.10 400.08 513.00 402.82 504.00 C 405.74 494.19 414.36 486.36 424.50 484.66 Z" />
<path fill="#96be77" d=" M 478.99 485.00 C 503.40 485.01 527.81 484.99 552.23 485.01 C 552.23 489.41 552.24 493.81 552.26 498.22 C 536.83 507.81 521.30 517.26 505.84 526.80 C 501.67 529.41 497.28 531.63 492.97 534.00 C 512.72 533.39 532.47 533.47 552.23 533.52 C 552.23 536.84 552.24 540.16 552.25 543.48 C 527.83 543.51 503.41 543.48 478.99 543.50 C 478.99 539.02 479.00 534.55 478.99 530.08 C 498.70 518.09 517.87 505.18 538.17 494.20 C 518.45 494.83 498.73 495.07 479.00 495.00 C 478.99 491.66 478.99 488.33 478.99 485.00 Z" />
<path fill="#ffffff" d=" M 295.23 498.23 C 299.15 494.09 306.83 494.00 310.39 498.63 C 312.25 500.81 312.28 503.80 312.79 506.48 C 305.62 506.51 298.45 506.53 291.28 506.48 C 292.24 503.60 292.94 500.40 295.23 498.23 Z" />
<path fill="#ffffff" d=" M 427.07 497.20 C 431.11 496.46 435.80 497.19 438.61 500.44 C 441.57 503.91 442.22 508.67 442.40 513.07 C 442.47 518.30 441.65 524.02 437.98 528.03 C 433.97 532.50 426.53 532.80 421.87 529.20 C 418.87 526.73 417.60 522.82 417.08 519.10 C 416.45 514.47 416.51 509.58 418.25 505.19 C 419.75 501.38 423.00 498.10 427.07 497.20 Z" />
</svg>
