<?xml version="1.0" standalone="no"?>
<!DOCTYPE svg PUBLIC "-//W3C//DTD SVG 1.1//EN" "http://www.w3.org/Graphics/SVG/1.1/DTD/svg11.dtd">
<svg width="100%" height="100%" viewBox="0 0 445 462" version="1.1" xmlns="http://www.w3.org/2000/svg" xmlns:xlink="http://www.w3.org/1999/xlink" xml:space="preserve" style="fill-rule:evenodd;clip-rule:evenodd;stroke-linejoin:round;stroke-miterlimit:1.41421;">
    <g>
        <path d="M441.958,404.056L369.944,404.056L369.944,413.542L390.431,413.542C402.375,413.542 420.083,413.222 428.944,412.806C423.819,415.472 418.375,418.444 413.153,421.653L369.944,448.431L369.944,461.333L441.958,461.333L441.958,451.736L418.806,451.736C407.389,451.736 390.111,452.056 382.431,452.486C387.222,450.139 392.139,447.583 397.361,444.264L441.958,416.861L441.958,404.056ZM441.958,348.361C437.375,348.472 431.708,348.569 426.708,348.569L405.569,348.569C395.014,348.569 387.861,352.958 387.861,368.208C387.861,375.25 389.569,381.653 391.708,386.764L399.917,385.806C397.153,381.222 395.542,374.819 395.542,369.806C395.542,361.056 399.5,358.181 406.861,358.181L410.806,358.181C410.806,378.236 418.167,390.069 429.792,390.069C438.222,390.069 442.917,384.097 442.917,375.347C442.917,366.611 437.903,359.875 431.389,357.319L431.389,357.111C434.375,357.639 438.222,357.639 441.958,357.639L441.958,348.361ZM418.486,358.181C426.806,358.181 435.333,363.944 435.333,372.583C435.333,377.486 432.458,380.681 427.972,380.681C423.181,380.681 417.528,376.639 417.528,358.181L418.486,358.181ZM388.931,289.917L388.931,300.264L420.833,311.792C424.028,312.972 427.444,313.931 430.542,314.778L430.542,314.986C427.236,315.847 423.931,316.917 420.514,318.083L388.931,329.292L388.931,340.069L441.958,320.111L441.958,310.194L388.931,289.917ZM373.889,268.792C370.375,268.792 367.708,271.681 367.708,275.194C367.708,278.722 370.472,281.597 373.889,281.597C377.417,281.597 380.181,278.722 380.181,275.194C380.181,271.681 377.306,268.792 373.889,268.792ZM441.958,270.389L388.931,270.389L388.931,280L441.958,280L441.958,270.389Z" style="fill:rgb(4,121,59);fill-rule:nonzero;"/>
        <path d="M15.2917,383.833L0.361111,383.833L0.361111,461.347L15.2917,461.347L15.2917,383.833ZM80.8611,461.347L80.8611,421.264C80.8611,411.278 76.7361,403.014 63.875,403.014C54.5694,403.014 47.9028,407.722 44.4583,414.5L44.3472,414.375C44.9167,411.389 45.1528,406.917 45.1528,404.264L31.25,404.264L31.25,461.347L45.9444,461.347L45.9444,433.792C45.9444,423.792 51.8056,415.292 59.2778,415.292C64.6667,415.292 66.2778,418.861 66.2778,424.833L66.2778,461.347L80.8611,461.347ZM161.264,421.264C161.264,394.056 145.986,383.375 121.986,383.375C112.444,383.375 103.028,383.722 96.9444,383.944L96.9444,461.236C103.486,461.472 110.5,461.819 118.542,461.819C143.806,461.819 161.264,447.917 161.264,421.264ZM145.181,422.417C145.181,440.792 134.611,449.069 120.028,449.069C117.042,449.069 113.944,448.833 111.875,448.486L111.875,396.236C114.292,396 117.5,395.889 120.944,395.889C138.639,395.889 145.181,405.764 145.181,422.417ZM220.181,428.5C220.181,414.375 212.833,403.014 196.181,403.014C179.069,403.014 169.417,415.875 169.417,433.333C169.417,453.431 179.528,462.5 197.667,462.5C204.792,462.5 212.028,461.236 218.111,458.833L216.736,447.458C211.792,449.75 205.708,451.014 200.083,451.014C189.514,451.014 184.236,445.847 184.347,435.167L219.722,435.167C220.069,432.75 220.181,430.458 220.181,428.5ZM205.597,425.167L184.569,425.167C185.375,418.278 189.625,413.806 195.708,413.806C201.917,413.806 205.819,418.056 205.597,425.167ZM292.083,461.347L262.444,421.264L290.819,383.833L272.667,383.833L247.514,418.972L247.514,383.833L232.583,383.833L232.583,461.347L247.514,461.347L247.514,424.139L272.431,461.347L292.083,461.347ZM348.569,431.722C348.569,412.083 338.111,403.125 321.917,403.125C304.583,403.125 292.75,415.986 292.75,433.792C292.75,454.125 303.194,462.5 319.403,462.5C336.5,462.5 348.569,449.639 348.569,431.722ZM333.403,432.528C333.403,444.125 327.903,449.986 320.653,449.986C312.167,449.986 307.903,444 307.903,432.292C307.903,420.583 314.333,415.528 320.889,415.528C329.5,415.528 333.403,421.5 333.403,432.528Z" style="fill:rgb(4,121,59);fill-rule:nonzero;"/>
        <path d="M250.472,350.819L0,350.819L0,1.88888L250.486,1.88888L274.958,26.375L174.403,127.083L174.403,126.708L73.9444,26.3889L98.4444,1.88888L0,1.88888L0,100.347L25.4861,74.8472L126.181,175.389L174.403,175.375L174.403,175.319L223.069,175.319L323.431,74.8194L348.931,100.333L348.931,252.361L324.667,276.611L223.333,175.444L174.472,175.444L174.472,223.472L276.208,325.083L250.472,350.819ZM0,252.347L0,350.806L98.4444,350.806L72.9722,325.333L174.472,223.667L174.458,175.444L125.792,175.444L24.5139,276.861L0,252.347Z" style="fill:rgb(197,218,201);fill-rule:nonzero;"/>
        <path d="M73.9444,26.3889L98.4444,1.88888L0,1.88888L0,100.347L25.4861,74.8472L126.181,175.389L174.403,175.375L174.403,126.708L73.9444,26.3889Z" style="fill:rgb(4,121,59);fill-rule:nonzero;"/>
        <path d="M348.931,100.333L348.931,1.88888L250.486,1.88888L250.472,1.87499L348.931,1.87499L348.931,100.333Z" style="fill:rgb(150,188,157);fill-rule:nonzero;"/>
        <path d="M223.069,175.319L174.403,175.319L174.403,127.083L274.958,26.375L250.486,1.88888L348.931,1.88888L348.931,100.333L323.431,74.8194L223.069,175.319Z" style="fill:rgb(125,173,135);fill-rule:nonzero;"/>
        <path d="M174.403,175.319L174.389,127.097L174.403,127.083L174.403,175.319Z" style="fill:rgb(4,121,59);fill-rule:nonzero;"/>
        <path d="M98.4444,350.806L0,350.806L0,252.347L24.5139,276.861L125.792,175.444L174.458,175.444L174.472,223.667L72.9722,325.333L98.4444,350.806Z" style="fill:rgb(54,136,82);fill-rule:nonzero;"/>
        <path d="M348.931,350.819L250.472,350.819L348.931,350.819L348.931,252.361L348.931,350.819Z" style="fill:rgb(108,163,121);fill-rule:nonzero;"/>
        <path d="M348.931,350.819L250.472,350.819L276.208,325.083L174.472,223.472L174.472,175.444L223.333,175.444L324.667,276.611L348.931,252.361L348.931,350.819Z" style="fill:rgb(91,154,108);fill-rule:nonzero;"/>
        <g>
            <path d="M207.736,31.0139L202.389,24.7917L218.806,10.6944L224.153,16.9167L207.736,31.0139Z" style="fill:white;fill-rule:nonzero;"/>
            <path d="M225.111,87.4305L206.236,68.7916L212,62.9583L230.875,81.5833L225.111,87.4305Z" style="fill:white;fill-rule:nonzero;"/>
            <path d="M137.542,174.097L133.556,166.917L154.556,155.264L158.542,162.431L137.542,174.097ZM172.347,154.764L168.375,147.583L189.361,135.931L193.347,143.097L172.347,154.764ZM207.167,135.431L203.181,128.25L224.167,116.597L228.153,123.764L207.167,135.431Z" style="fill:white;fill-rule:nonzero;"/>
            <path d="M236.375,350.819L242.292,346.708L237.611,339.958L221.972,350.819L236.375,350.819Z" style="fill:white;fill-rule:nonzero;"/>
            <path d="M216.972,323.347L133.25,263.806L211.903,205.611C212.917,204.861 213.528,203.694 213.569,202.458C213.611,201.208 213.083,200 212.139,199.194L137.347,135.167L193.028,102.542C194.111,101.917 194.847,100.806 195.014,99.5556C195.194,98.3194 194.778,97.0556 193.903,96.1528L143.333,43.8472L192.194,1.88888L179.597,1.88888L134.681,40.4583C133.833,41.1944 133.306,42.2361 133.25,43.375C133.208,44.5 133.625,45.5972 134.403,46.4167L184.375,98.0972L128.222,131C127.083,131.667 126.333,132.861 126.208,134.167C126.097,135.5 126.625,136.792 127.625,137.653L202.889,202.069L123.833,260.569C122.778,261.347 122.153,262.597 122.167,263.917C122.181,265.222 122.819,266.444 123.889,267.208L206.833,326.194L160.972,350.819L178.319,350.819L216.528,330.306C217.792,329.639 218.597,328.361 218.694,326.944C218.778,325.528 218.139,324.167 216.972,323.347Z" style="fill:white;fill-rule:nonzero;"/>
            <path d="M192.708,43.9167L197.542,39.7639L192.194,33.5416L183.972,40.5833C183.111,41.3333 182.583,42.4167 182.542,43.5555C182.5,44.7083 182.944,45.8194 183.764,46.625L193.208,55.9444L198.972,50.0972L192.708,43.9167Z" style="fill:white;fill-rule:nonzero;"/>
            <path d="M123.736,181.764L119.75,174.597L109.264,180.417C107.958,181.153 107.153,182.528 107.153,184C107.153,185.5 107.958,186.875 109.264,187.597L119.847,193.458L123.833,186.292L119.708,184L123.736,181.764Z" style="fill:white;fill-rule:nonzero;"/>
            <path d="M241.681,1.87499L229.083,1.87499L229.014,1.94445L234.361,8.16666L241.681,1.87499Z" style="fill:white;fill-rule:nonzero;"/>
            <path d="M253.986,312.694L248.611,318.875L257.222,326.361L251.319,330.444L256,337.194L266.222,330.097C267.264,329.361 267.917,328.208 267.986,326.944C268.056,325.681 267.542,324.458 266.583,323.625L253.986,312.694Z" style="fill:white;fill-rule:nonzero;"/>
            <path d="M256.056,261.569C255.944,260.222 255.153,259.014 253.958,258.361L243.375,252.486L239.403,259.681L244.681,262.611L239.722,266.667L244.917,273.014L254.569,265.111C255.625,264.25 256.181,262.931 256.056,261.569Z" style="fill:white;fill-rule:nonzero;"/>
            <path d="M241.958,116.097L252.458,110.264C253.597,109.639 254.361,108.514 254.542,107.236C254.708,105.958 254.278,104.667 253.347,103.764L243.917,94.4444L238.153,100.292L243.694,105.75L237.986,108.917L241.958,116.097Z" style="fill:white;fill-rule:nonzero;"/>
            <path d="M231.972,283.625L226.764,277.278L217.125,285.181C216.181,285.944 215.639,287.083 215.625,288.292C215.597,289.5 216.111,290.653 217.028,291.444L229.625,302.389L235,296.194L226.083,288.444L231.972,283.625Z" style="fill:white;fill-rule:nonzero;"/>
            <path d="M225.403,251.917L204.222,240.194L208.194,233.014L229.375,244.736L225.403,251.917ZM190.222,232.431L169.042,220.708L173.014,213.528L194.194,225.25L190.222,232.431ZM155.042,212.944L133.861,201.222L137.833,194.042L159.014,205.764L155.042,212.944Z" style="fill:white;fill-rule:nonzero;"/>
        </g>
    </g>
</svg>
