<?xml version="1.0" encoding="UTF-8" ?>
<!DOCTYPE svg PUBLIC "-//W3C//DTD SVG 1.1//EN" "http://www.w3.org/Graphics/SVG/1.1/DTD/svg11.dtd">
<svg width="615pt" height="615pt" viewBox="0 0 615 615" version="1.1" xmlns="http://www.w3.org/2000/svg">
<path fill="#ffffff" d=" M 0.00 0.00 L 615.00 0.00 L 615.00 615.00 L 0.00 615.00 L 0.00 0.00 Z" />
<path fill="#8ac0a2" d=" M 103.67 144.00 C 130.86 144.01 158.06 143.98 185.25 144.02 C 178.55 150.73 171.78 157.37 165.15 164.15 C 188.56 187.73 212.18 211.11 235.59 234.71 C 226.87 239.98 217.93 244.91 209.27 250.27 C 207.10 251.37 207.08 254.64 209.02 255.99 C 215.11 261.23 221.17 266.51 227.37 271.62 C 223.24 275.08 217.99 276.77 213.66 279.96 C 214.78 281.93 215.92 283.88 217.08 285.83 C 222.59 282.88 227.93 279.62 233.53 276.85 C 238.01 280.99 242.81 284.78 247.29 288.92 C 246.71 298.41 247.23 307.90 247.08 317.39 C 245.21 319.33 243.90 321.69 242.72 324.09 C 243.92 324.78 245.12 325.48 246.33 326.18 C 243.39 329.02 239.94 331.23 236.69 333.69 C 226.53 341.22 216.34 348.72 206.18 356.25 C 204.47 357.25 203.66 359.46 204.58 361.27 C 205.86 362.75 207.53 363.81 209.09 364.98 C 194.07 379.96 179.24 395.13 164.22 410.10 C 171.15 417.23 178.29 424.16 185.26 431.25 C 158.08 431.36 130.89 431.29 103.71 431.29 C 103.73 404.12 103.60 376.95 103.78 349.78 C 110.70 356.31 116.97 363.54 124.17 369.75 C 126.57 368.01 128.49 365.72 130.58 363.65 C 144.24 349.94 157.97 336.28 171.63 322.57 C 179.37 314.21 187.83 306.57 195.51 298.15 C 197.81 299.41 200.17 300.59 202.47 301.86 C 203.68 299.93 204.96 298.03 205.77 295.89 C 204.97 295.10 204.08 294.43 203.22 293.72 C 204.11 293.17 205.00 292.62 205.89 292.08 C 205.64 291.55 205.13 290.48 204.87 289.95 C 205.51 288.71 206.21 287.51 206.91 286.30 C 179.42 259.17 152.32 231.66 124.88 204.48 C 117.71 211.32 110.92 218.53 103.76 225.38 C 103.54 198.25 103.71 171.13 103.67 144.00 Z" />
<path fill="#d6e8dc" d=" M 185.25 144.02 C 207.19 144.06 229.14 143.85 251.09 144.10 C 239.65 154.35 227.81 164.15 216.21 174.21 C 214.44 175.72 212.25 178.44 214.43 180.59 C 218.44 185.53 223.31 189.70 227.59 194.39 C 236.30 203.96 245.77 212.83 254.42 222.44 C 255.55 223.53 253.33 224.19 252.72 224.76 C 246.99 228.04 241.28 231.36 235.59 234.71 C 212.18 211.11 188.56 187.73 165.15 164.15 C 171.78 157.37 178.55 150.73 185.25 144.02 Z" />
<path fill="#d6e8dc" d=" M 262.26 144.39 C 264.42 143.74 266.73 144.02 268.96 143.96 C 276.64 144.12 284.31 143.85 291.98 144.09 C 293.47 145.77 294.95 147.47 296.40 149.19 C 298.81 147.80 300.72 145.76 302.99 144.19 C 305.22 143.80 307.51 144.01 309.77 144.07 C 316.52 150.76 323.26 157.47 329.97 164.21 C 316.88 178.17 302.92 191.32 289.58 205.05 C 285.77 201.44 282.19 197.61 278.29 194.11 C 276.66 195.74 275.04 197.38 273.43 199.03 C 277.10 202.89 281.00 206.53 284.70 210.37 C 280.00 214.08 276.09 218.65 271.77 222.77 C 265.09 229.42 258.43 236.09 251.82 242.81 C 250.40 244.18 248.82 245.36 247.22 246.51 C 245.16 244.22 243.01 242.02 240.84 239.84 C 247.69 235.66 254.73 231.79 261.59 227.63 C 262.88 226.77 264.53 225.80 264.48 224.01 C 264.49 222.02 262.85 220.71 261.63 219.38 C 248.31 205.92 235.35 192.12 222.06 178.64 C 233.87 168.24 245.97 158.18 257.82 147.82 C 259.24 146.61 260.61 145.31 262.26 144.39 Z" />
<path fill="#b2d4c0" d=" M 309.77 144.07 C 336.82 144.18 363.87 144.11 390.91 144.10 C 390.86 171.14 390.82 198.17 390.94 225.21 C 383.96 218.27 377.14 211.18 370.01 204.42 C 342.46 231.50 315.34 259.02 287.94 286.25 C 303.75 302.70 320.18 318.56 336.20 334.80 C 347.84 346.31 359.20 358.11 371.04 369.41 C 377.83 362.99 384.25 356.20 390.97 349.71 C 391.05 376.92 390.96 404.13 391.01 431.34 C 363.88 431.34 336.76 431.49 309.63 431.26 C 316.30 423.91 323.66 417.23 330.43 409.99 C 323.88 403.06 316.98 396.46 310.25 389.69 C 305.27 384.81 300.54 379.66 295.29 375.05 C 293.70 373.57 292.22 371.98 290.77 370.37 C 277.99 357.26 264.98 344.36 251.96 331.48 C 252.29 331.11 252.95 330.37 253.28 330.00 C 255.67 331.23 258.03 332.51 260.38 333.82 C 261.59 331.82 262.73 329.77 263.79 327.68 C 262.46 327.00 261.15 326.31 259.83 325.63 C 265.81 320.58 272.44 316.36 278.53 311.45 C 280.49 310.06 279.87 307.09 278.04 305.87 C 267.62 297.07 257.39 288.02 247.00 279.19 C 247.01 276.22 246.99 273.25 246.96 270.29 C 246.54 270.13 245.71 269.81 245.29 269.65 C 251.63 267.46 257.08 263.42 263.09 260.53 C 262.11 258.32 261.04 256.16 259.90 254.04 C 255.54 256.21 251.30 258.62 247.08 261.07 C 246.98 256.22 246.88 251.36 247.22 246.51 C 248.82 245.36 250.40 244.18 251.82 242.81 C 258.43 236.09 265.09 229.42 271.77 222.77 C 276.09 218.65 280.00 214.08 284.70 210.37 C 286.12 211.82 287.55 213.28 288.99 214.73 C 290.69 213.06 292.39 211.39 294.09 209.72 C 292.61 208.14 291.12 206.57 289.58 205.05 C 302.92 191.32 316.88 178.17 329.97 164.21 C 323.26 157.47 316.52 150.76 309.77 144.07 Z" />
<path fill="#ffffff" d=" M 283.54 151.16 C 285.49 152.65 287.18 154.47 288.24 156.71 C 283.74 160.46 279.34 164.32 274.91 168.16 C 273.26 166.53 271.76 164.76 270.40 162.89 C 274.50 158.67 279.36 155.29 283.54 151.16 Z" />
<path fill="#ffffff" d=" M 255.08 176.03 C 257.10 173.68 259.67 171.88 262.07 169.94 C 263.56 171.63 265.02 173.35 266.45 175.10 C 265.30 176.24 264.16 177.37 263.02 178.50 C 264.48 180.27 266.07 181.94 267.78 183.48 C 266.34 185.32 264.71 187.01 262.96 188.56 C 260.34 186.02 257.54 183.66 255.14 180.92 C 253.78 179.61 253.82 177.39 255.08 176.03 Z" />
<path fill="#ffffff" d=" M 278.29 194.11 C 282.19 197.61 285.77 201.44 289.58 205.05 C 291.12 206.57 292.61 208.14 294.09 209.72 C 292.39 211.39 290.69 213.06 288.99 214.73 C 287.55 213.28 286.12 211.82 284.70 210.37 C 281.00 206.53 277.10 202.89 273.43 199.03 C 275.04 197.38 276.66 195.74 278.29 194.11 Z" />
<path fill="#d6e8dc" d=" M 103.76 225.38 C 110.92 218.53 117.71 211.32 124.88 204.48 C 152.32 231.66 179.42 259.17 206.91 286.30 C 206.21 287.51 205.51 288.71 204.87 289.95 C 204.16 288.69 203.40 287.46 202.51 286.33 C 198.70 287.43 195.21 289.68 192.20 292.22 C 191.03 294.95 193.39 296.96 195.51 298.15 C 187.83 306.57 179.37 314.21 171.63 322.57 C 157.97 336.28 144.24 349.94 130.58 363.65 C 128.49 365.72 126.57 368.01 124.17 369.75 C 116.97 363.54 110.70 356.31 103.78 349.78 C 103.67 308.31 103.71 266.84 103.76 225.38 Z" />
<path fill="#d6e8dc" d=" M 287.94 286.25 C 315.34 259.02 342.46 231.50 370.01 204.42 C 377.14 211.18 383.96 218.27 390.94 225.21 C 391.04 266.70 391.02 308.21 390.97 349.71 C 384.25 356.20 377.83 362.99 371.04 369.41 C 359.20 358.11 347.84 346.31 336.20 334.80 C 320.18 318.56 303.75 302.70 287.94 286.25 Z" />
<path fill="#ffffff" d=" M 304.38 219.85 C 307.32 222.53 310.31 225.20 312.86 228.27 C 314.21 229.71 313.58 232.16 311.98 233.11 C 309.12 234.94 306.17 236.71 303.01 237.96 C 301.25 236.37 300.55 233.97 299.43 231.95 C 300.90 231.16 302.38 230.38 303.87 229.59 C 302.48 228.13 301.00 226.73 299.94 225.01 C 301.12 223.05 302.82 221.50 304.38 219.85 Z" />
<path fill="#ffffff" d=" M 270.78 248.01 C 276.60 244.54 282.49 241.18 288.56 238.16 C 289.65 240.20 290.76 242.24 291.88 244.27 C 286.10 247.78 280.14 250.99 274.16 254.15 C 273.01 252.12 271.88 250.07 270.78 248.01 Z" />
<path fill="#8ac0a2" d=" M 217.19 253.72 C 225.03 249.03 232.93 244.43 240.84 239.84 C 243.01 242.02 245.16 244.22 247.22 246.51 C 246.88 251.36 246.98 256.22 247.08 261.07 C 245.48 262.00 243.88 262.93 242.28 263.87 C 243.29 265.79 244.29 267.71 245.29 269.65 C 245.71 269.81 246.54 270.13 246.96 270.29 C 246.99 273.25 247.01 276.22 247.00 279.19 C 236.99 270.78 227.10 262.24 217.19 253.72 Z" />
<path fill="#ffffff" d=" M 247.08 261.07 C 251.30 258.62 255.54 256.21 259.90 254.04 C 261.04 256.16 262.11 258.32 263.09 260.53 C 257.08 263.42 251.63 267.46 245.29 269.65 C 244.29 267.71 243.29 265.79 242.28 263.87 C 243.88 262.93 245.48 262.00 247.08 261.07 Z" />
<path fill="#ffffff" d=" M 192.20 292.22 C 195.21 289.68 198.70 287.43 202.51 286.33 C 203.40 287.46 204.16 288.69 204.87 289.95 C 205.13 290.48 205.64 291.55 205.89 292.08 C 205.00 292.62 204.11 293.17 203.22 293.72 C 204.08 294.43 204.97 295.10 205.77 295.89 C 204.96 298.03 203.68 299.93 202.47 301.86 C 200.17 300.59 197.81 299.41 195.51 298.15 C 193.39 296.96 191.03 294.95 192.20 292.22 Z" />
<path fill="#b2d4c0" d=" M 247.29 288.92 C 255.12 295.42 262.96 301.95 270.47 308.82 C 264.68 313.09 258.88 317.37 253.10 321.66 C 251.08 320.65 249.06 319.62 247.06 318.58 L 247.08 317.39 C 247.23 307.90 246.71 298.41 247.29 288.92 Z" />
<path fill="#ffffff" d=" M 217.18 301.82 C 223.15 305.08 229.11 308.37 235.03 311.74 C 233.86 313.83 232.67 315.90 231.45 317.96 C 225.59 314.65 219.69 311.41 213.81 308.13 C 214.88 306.00 216.01 303.90 217.18 301.82 Z" />
<path fill="#d6e8dc" d=" M 213.61 359.23 C 226.76 350.50 238.95 340.42 251.96 331.48 C 264.98 344.36 277.99 357.26 290.77 370.37 C 287.42 373.27 282.35 375.35 281.26 380.01 C 282.40 382.87 285.05 384.72 287.23 386.75 C 289.07 388.21 290.75 390.06 293.01 390.83 C 294.88 389.73 295.92 387.71 297.24 386.06 C 295.00 384.05 292.80 382.00 290.63 379.92 C 292.18 378.29 293.73 376.67 295.29 375.05 C 300.54 379.66 305.27 384.81 310.25 389.69 C 316.98 396.46 323.88 403.06 330.43 409.99 C 323.66 417.23 316.30 423.91 309.63 431.26 C 306.31 431.36 302.97 431.33 299.66 431.07 C 300.79 429.94 301.94 428.83 303.10 427.73 C 302.04 425.74 300.86 423.81 299.58 421.95 C 294.85 424.68 290.74 428.36 285.97 431.00 C 281.34 431.69 276.62 431.11 271.95 431.27 C 265.21 431.13 258.45 431.63 251.73 430.98 C 261.55 424.81 272.20 420.07 282.17 414.18 C 284.72 412.96 284.23 409.37 282.03 408.07 C 259.31 391.67 236.28 375.70 213.61 359.23 Z" />
<path fill="#8ac0a2" d=" M 428.03 333.02 C 458.83 333.02 489.64 333.04 520.45 333.01 C 520.49 340.41 520.48 347.82 520.45 355.23 C 496.98 355.22 473.51 355.25 450.04 355.21 C 449.92 374.48 449.98 393.75 450.01 413.02 C 468.23 412.84 487.30 416.06 502.61 426.51 C 513.72 433.94 521.57 445.93 524.08 459.05 C 527.13 475.21 524.51 492.64 515.67 506.63 C 507.20 520.32 493.41 530.11 478.41 535.50 C 460.32 542.10 440.60 542.67 421.68 540.14 C 422.31 532.91 423.34 525.73 424.04 518.52 C 439.33 522.22 455.82 521.80 470.68 516.48 C 482.52 512.33 493.11 503.55 497.79 491.72 C 502.09 480.91 502.20 468.31 497.45 457.63 C 493.21 448.19 484.43 441.48 474.87 438.03 C 459.96 432.36 443.72 432.71 428.04 433.25 C 428.01 399.84 428.03 366.43 428.03 333.02 Z" />
<path fill="#ffffff" d=" M 275.12 334.00 C 280.97 337.31 286.92 340.45 292.72 343.84 C 291.63 345.84 290.53 347.84 289.41 349.83 C 283.51 346.63 277.58 343.45 271.79 340.06 C 272.89 338.03 274.00 336.01 275.12 334.00 Z" />
<path fill="#ffffff" d=" M 304.11 350.07 C 307.25 351.90 310.63 353.34 313.55 355.53 C 314.87 356.50 315.18 358.77 313.98 359.96 C 311.37 362.69 308.27 364.90 305.26 367.15 C 303.85 365.41 302.44 363.69 301.02 361.97 C 302.25 360.78 303.46 359.57 304.68 358.37 C 303.50 357.52 301.79 357.20 301.01 355.90 C 301.74 353.81 302.98 351.96 304.11 350.07 Z" />
<path fill="#d6e8dc" d=" M 209.09 364.98 C 228.91 378.70 248.39 392.91 268.14 406.74 C 269.96 407.97 271.68 409.37 273.32 410.86 C 262.83 416.99 251.91 422.35 241.30 428.26 C 238.70 429.65 236.11 431.47 233.02 431.29 C 217.10 431.25 201.18 431.32 185.26 431.25 C 178.29 424.16 171.15 417.23 164.22 410.10 C 179.24 395.13 194.07 379.96 209.09 364.98 Z" />
<path fill="#ffffff" d=" M 281.26 380.01 C 282.35 375.35 287.42 373.27 290.77 370.37 C 292.22 371.98 293.70 373.57 295.29 375.05 C 293.73 376.67 292.18 378.29 290.63 379.92 C 292.80 382.00 295.00 384.05 297.24 386.06 C 295.92 387.71 294.88 389.73 293.01 390.83 C 290.75 390.06 289.07 388.21 287.23 386.75 C 285.05 384.72 282.40 382.87 281.26 380.01 Z" />
<path fill="#ffffff" d=" M 308.17 404.71 C 309.68 402.96 311.26 401.26 312.90 399.63 C 316.22 402.49 319.66 405.21 322.87 408.19 C 324.36 409.42 325.35 412.02 323.64 413.51 C 320.85 416.08 317.54 417.99 314.34 419.98 C 313.14 418.24 311.95 416.51 310.75 414.77 C 312.12 413.35 313.49 411.92 314.84 410.48 C 312.54 408.65 310.32 406.72 308.17 404.71 Z" />
<path fill="#8ac0a2" d=" M 103.80 450.78 C 120.35 450.75 136.91 450.79 153.46 450.76 C 153.48 455.92 153.49 461.08 153.46 466.24 C 142.91 466.20 132.37 466.26 121.82 466.20 C 121.63 474.06 121.74 481.92 121.77 489.78 C 131.66 489.78 141.56 489.78 151.45 489.78 C 151.50 494.67 151.48 499.57 151.46 504.46 C 141.52 504.59 131.59 504.26 121.66 504.63 C 121.74 517.60 121.84 530.57 121.61 543.54 C 115.67 543.41 109.72 543.50 103.78 543.46 C 103.79 512.57 103.74 481.67 103.80 450.78 Z" />
<path fill="#8ac0a2" d=" M 183.51 478.72 C 192.30 476.45 202.25 477.16 210.01 482.14 C 216.48 486.26 220.18 493.62 221.47 501.01 C 223.43 512.13 221.96 524.59 214.60 533.55 C 205.71 544.77 188.93 547.28 176.22 541.70 C 168.74 538.39 163.80 531.00 162.18 523.15 C 159.99 513.02 160.46 501.81 165.71 492.65 C 169.49 485.88 176.07 480.82 183.51 478.72 Z" />
<path fill="#8ac0a2" d=" M 365.04 478.84 C 372.16 476.72 379.67 477.57 386.90 478.48 C 386.85 482.24 386.60 485.99 386.42 489.75 C 380.31 488.47 373.46 486.65 367.58 489.68 C 363.49 491.63 362.62 497.88 366.29 500.68 C 372.38 505.37 380.76 506.08 386.39 511.52 C 390.97 515.62 392.04 522.41 390.63 528.18 C 389.20 535.07 383.51 540.49 376.97 542.69 C 368.98 545.42 360.25 544.77 352.13 543.00 C 352.39 539.10 352.65 535.20 352.82 531.30 C 358.98 532.61 365.50 534.65 371.75 532.70 C 375.09 531.74 377.88 528.62 377.57 525.00 C 377.74 522.20 375.75 519.86 373.41 518.61 C 367.41 515.18 360.11 514.00 354.98 509.09 C 350.18 504.26 349.48 496.59 351.61 490.37 C 353.70 484.51 359.18 480.44 365.04 478.84 Z" />
<path fill="#8ac0a2" d=" M 231.79 478.54 C 236.01 478.52 240.24 478.51 244.46 478.53 C 244.52 488.09 244.40 497.65 244.52 507.21 C 251.73 497.96 258.34 488.22 265.13 478.65 C 270.34 478.41 275.55 478.54 280.75 478.56 C 273.01 489.11 264.93 499.41 257.12 509.91 C 265.29 521.13 273.71 532.16 281.79 543.45 C 276.21 543.46 270.63 543.55 265.06 543.39 C 258.11 533.28 251.67 522.80 244.44 512.89 C 244.50 523.08 244.48 533.28 244.45 543.47 C 240.22 543.48 236.00 543.48 231.77 543.45 C 231.79 521.81 231.75 500.18 231.79 478.54 Z" />
<path fill="#8ac0a2" d=" M 288.01 478.54 C 292.20 478.53 296.39 478.55 300.58 478.45 C 300.96 492.60 300.54 506.77 300.78 520.92 C 300.96 524.84 301.76 529.42 305.30 531.75 C 309.95 534.54 315.91 534.54 320.95 532.87 C 325.69 531.16 327.46 525.73 327.50 521.11 C 327.58 506.92 327.49 492.73 327.54 478.54 C 331.77 478.51 336.00 478.51 340.24 478.56 C 340.19 492.03 340.26 505.51 340.21 518.98 C 340.10 526.09 338.20 533.81 332.58 538.60 C 326.20 544.13 317.22 544.94 309.14 544.35 C 302.66 543.93 295.67 541.59 291.88 536.00 C 288.48 531.06 288.11 524.86 288.02 519.06 C 288.01 505.56 288.04 492.05 288.01 478.54 Z" />
<path fill="#ffffff" d=" M 187.41 489.48 C 192.72 488.18 198.90 489.18 202.87 493.17 C 207.32 497.53 208.50 504.05 208.72 510.03 C 208.83 516.80 207.24 524.23 201.99 528.92 C 195.58 534.85 184.06 534.33 178.84 527.09 C 174.59 521.09 174.04 513.24 174.77 506.15 C 175.49 498.89 180.01 491.41 187.41 489.48 Z" />
</svg>
