<?xml version="1.0" encoding="UTF-8" standalone="no"?>
<!-- Created with Inkscape (http://www.inkscape.org/) -->

<svg
   xmlns:dc="http://purl.org/dc/elements/1.1/"
   xmlns:cc="http://creativecommons.org/ns#"
   xmlns:rdf="http://www.w3.org/1999/02/22-rdf-syntax-ns#"
   xmlns:svg="http://www.w3.org/2000/svg"
   xmlns="http://www.w3.org/2000/svg"
   xmlns:sodipodi="http://sodipodi.sourceforge.net/DTD/sodipodi-0.dtd"
   xmlns:inkscape="http://www.inkscape.org/namespaces/inkscape"
   width="1052.3622"
   height="744.09448"
   id="svg2"
   version="1.1"
   inkscape:version="0.48.5 r10040"
   sodipodi:docname="navigrafik1.svg"
   inkscape:export-filename="D:\kram\indekonavi\einpaardateien\navigrafik1.png"
   inkscape:export-xdpi="299"
   inkscape:export-ydpi="299">
  <defs
     id="defs4">
    <clipPath
       id="clipPath2999"
       clipPathUnits="userSpaceOnUse">
      <path
         id="path3001"
         clip-rule="evenodd"
         d="M 0,0 960,0 960,540 0,540 0,0 z"
         inkscape:connector-curvature="0" />
    </clipPath>
  </defs>
  <sodipodi:namedview
     id="base"
     pagecolor="#ffffff"
     bordercolor="#666666"
     borderopacity="1.0"
     inkscape:pageopacity="0.0"
     inkscape:pageshadow="2"
     inkscape:zoom="1"
     inkscape:cx="687.26743"
     inkscape:cy="344.76583"
     inkscape:document-units="px"
     inkscape:current-layer="layer1"
     showgrid="false"
     inkscape:window-width="1366"
     inkscape:window-height="705"
     inkscape:window-x="-8"
     inkscape:window-y="-8"
     inkscape:window-maximized="1" />
  <metadata
     id="metadata7">
    <rdf:RDF>
      <cc:Work
         rdf:about="">
        <dc:format>image/svg+xml</dc:format>
        <dc:type
           rdf:resource="http://purl.org/dc/dcmitype/StillImage" />
        <dc:title />
      </cc:Work>
    </rdf:RDF>
  </metadata>
  <g
     inkscape:label="Ebene 1"
     inkscape:groupmode="layer"
     id="layer1"
     transform="translate(0,-308.2677)">
    <rect
       style="fill:#ebebeb;fill-opacity:1;fill-rule:nonzero;stroke:none"
       id="rect4660"
       width="746.375"
       height="158.68433"
       x="98.6577"
       y="773.59039"
       ry="2"
       rx="2"
       inkscape:export-filename="D:\kram\indekonavi\einpaardateien\indekomaingrafik.png"
       inkscape:export-xdpi="150"
       inkscape:export-ydpi="150" />
    <rect
       style="fill:#ebebeb;fill-opacity:1;fill-rule:nonzero;stroke:none"
       id="rect4713"
       width="746.375"
       height="312.57928"
       x="98.6577"
       y="420.23529"
       rx="2"
       ry="2"
       inkscape:export-filename="D:\kram\indekonavi\einpaardateien\indekomaingrafik.png"
       inkscape:export-xdpi="150"
       inkscape:export-ydpi="150" />
    <g
       id="g3015"
       transform="matrix(1.25,0,0,-1.25,-81.217297,992.14353)" />
    <g
       id="g3117"
       transform="matrix(1.25,0,0,-1.25,-81.217297,992.14353)" />
    <g
       id="g3123"
       transform="matrix(1.25,0,0,-1.25,-81.217297,992.14353)" />
    <g
       id="g4568"
       style="stroke:none"
       transform="translate(168.7827,162.28135)"
       inkscape:export-filename="D:\kram\indekonavi\einpaardateien\indekomaingrafik.png"
       inkscape:export-xdpi="150"
       inkscape:export-ydpi="150">
      <g
         transform="matrix(1.25,0,0,-1.25,-250,869.86218)"
         id="g3113"
         style="stroke:none" />
      <g
         transform="matrix(1.25,0,0,-1.25,-250,869.86218)"
         id="g3131"
         style="stroke:none" />
      <g
         transform="matrix(1.25,0,0,-1.25,-250,869.86218)"
         id="g3149"
         style="stroke:none">
        <path
           id="path3151"
           style="fill:none;stroke:none"
           d="m 458.3,196.7 c -5,0 -9.9,-4.9 -9.9,-9.9 l 0,-39.7 c 0,-4.9 4.9,-9.9 9.9,-9.9 l 109.3,0 c 4.9,0 9.9,5 9.9,9.9 l 0,39.7 c 0,5 -5,9.9 -9.9,9.9 l -109.3,0 z"
           inkscape:connector-curvature="0" />
      </g>
      <g
         transform="matrix(1.25,0,0,-1.25,-250,869.86218)"
         id="g3167"
         style="stroke:none" />
    </g>
    <path
       inkscape:connector-curvature="0"
       d="m 865.1577,630.14353 c 5.60976,0 10,4.21769 10,9.93197 0,5.71429 -4.39024,10.06803 -10,10.06803 -5.73171,0 -10,-4.35374 -10,-10.06803 0,-5.71428 4.26829,-9.93197 10,-9.93197 z"
       style="fill:#ffb933;fill-opacity:1;fill-rule:evenodd;stroke:none"
       id="path3189"
       inkscape:export-filename="D:\kram\indekonavi\einpaardateien\indekomaingrafik.png"
       inkscape:export-xdpi="150"
       inkscape:export-ydpi="150" />
    <path
       inkscape:connector-curvature="0"
       d="m 865.1577,567.01853 c 5.60976,0 10,4.35374 10,10.06803 0,5.57823 -4.39024,9.93197 -10,9.93197 -5.73171,0 -10,-4.35374 -10,-9.93197 0,-5.71429 4.26829,-10.06803 10,-10.06803 z"
       style="fill:#606060;fill-opacity:1;fill-rule:evenodd;stroke:none"
       id="path3191"
       inkscape:export-filename="D:\kram\indekonavi\einpaardateien\indekomaingrafik.png"
       inkscape:export-xdpi="150"
       inkscape:export-ydpi="150" />
    <path
       sodipodi:nodetypes="ccsssscccc"
       inkscape:connector-curvature="0"
       id="rect3121"
       d="m 509.0327,503.65635 0,23 -303.25,0 c -1.108,0 -2,0.892 -2,2 l 0,149 c 0,1.108 0.89202,2.00731 2,2 l 303.25,0 0,25.75 103.25,-100.875 z"
       style="fill:#009020;fill-opacity:1;fill-rule:nonzero;stroke:none" />
    <path
       id="path4722"
       style="fill:#48c064;fill-opacity:1;fill-rule:evenodd;stroke:none"
       d="m -555.2173,604.51853 304.25,0 0,-100.875 103.25,100.875 -103.25,100.875 0,-100.875 -304.25,0 0,0 z"
       inkscape:connector-curvature="0" />
    <rect
       style="fill:#d3d3d3;fill-opacity:1;fill-rule:nonzero;stroke:none"
       id="rect4715"
       width="187.97015"
       height="167.29344"
       x="630.24945"
       y="-686.98126"
       rx="2"
       ry="2"
       inkscape:export-filename="D:\kram\indekonavi\einpaardateien\indekomaingrafik.png"
       inkscape:export-xdpi="150"
       inkscape:export-ydpi="150"
       transform="scale(1,-1)" />
    <path
       id="path3147"
       style="fill:#d3d3d3;fill-opacity:1;fill-rule:evenodd;stroke:none"
       d="m 491.6577,786.26853 c -6.25,0 -12.375,6.125 -12.375,12.375 l 0,49.625 c 0,6.125 6.125,12.375 12.375,12.375 l 136.625,0 c 6.125,0 12.375,-6.25 12.375,-12.375 l 0,-49.625 c 0,-6.25 -6.25,-12.375 -12.375,-12.375 l -136.625,0 z"
       inkscape:connector-curvature="0"
       inkscape:export-filename="D:\kram\indekonavi\einpaardateien\indekomaingrafik.png"
       inkscape:export-xdpi="150"
       inkscape:export-ydpi="150" />
    <path
       inkscape:connector-curvature="0"
       d="m 130.7827,786.51853 c -6.125,0 -12.375,6.125 -12.375,12.375 l 0,49.625 c 0,6.125 6.25,12.375 12.375,12.375 l 136.625,0 c 6.25,0 12.5,-6.25 12.5,-12.375 l 0,-49.625 c 0,-6.25 -6.25,-12.375 -12.5,-12.375 l -136.625,0 z"
       style="fill:#d3d3d3;fill-opacity:1;stroke:none"
       id="path3115"
       inkscape:export-filename="D:\kram\indekonavi\einpaardateien\indekomaingrafik.png"
       inkscape:export-xdpi="150"
       inkscape:export-ydpi="150" />
    <path
       inkscape:connector-curvature="0"
       d="m 313.2827,786.26853 c -6.25,0 -12.375,6.125 -12.375,12.375 l 0,49.625 c 0,6.125 6.125,12.375 12.375,12.375 l 136.625,0 c 6.125,0 12.375,-6.25 12.375,-12.375 l 0,-49.625 c 0,-6.25 -6.25,-12.375 -12.375,-12.375 l -136.625,0 z"
       style="fill:#d3d3d3;fill-opacity:1;stroke:none"
       id="path3133"
       inkscape:export-filename="D:\kram\indekonavi\einpaardateien\indekomaingrafik.png"
       inkscape:export-xdpi="150"
       inkscape:export-ydpi="150" />
    <path
       inkscape:connector-curvature="0"
       d="m 670.0327,786.26853 c -6.125,0 -12.375,6.125 -12.375,12.375 l 0,49.625 c 0,6.125 6.25,12.375 12.375,12.375 l 136.625,0 c 6.25,0 12.5,-6.25 12.5,-12.375 l 0,-49.625 c 0,-6.25 -6.25,-12.375 -12.5,-12.375 l -136.625,0 z"
       style="fill:#d3d3d3;fill-opacity:1;stroke:none"
       id="path3169"
       inkscape:export-filename="D:\kram\indekonavi\einpaardateien\indekomaingrafik.png"
       inkscape:export-xdpi="150"
       inkscape:export-ydpi="150" />
    <g
       id="g4725"
       transform="translate(168.7827,121.69335)"
       inkscape:export-filename="D:\kram\indekonavi\einpaardateien\indekomaingrafik.png"
       inkscape:export-xdpi="150"
       inkscape:export-ydpi="150">
      <path
         id="path3227"
         style="fill:#ebebeb;fill-opacity:1;fill-rule:evenodd;stroke:none"
         d="m 55.75,414.36218 c -5.25,0 -10.375,5.125 -10.375,10.375 l 0,41.375 c 0,5.125 5.125,10.25 10.375,10.25 l 120.375,0 c 5.25,0 10.375,-5.125 10.375,-10.25 l 0,-41.375 c 0,-5.25 -5.125,-10.375 -10.375,-10.375 l -120.375,0 z"
         inkscape:connector-curvature="0" />
      <path
         id="path3229"
         style="fill:#ebebeb;fill-opacity:1;fill-rule:evenodd;stroke:none"
         d="m 202.75,415.11218 c -5.125,0 -10.25,5.125 -10.25,10.375 l 0,41.375 c 0,5.125 5.125,10.375 10.25,10.375 l 121.25,0 c 5.25,0 10.375,-5.25 10.375,-10.375 l 0,-41.375 c 0,-5.25 -5.125,-10.375 -10.375,-10.375 l -121.25,0 z"
         inkscape:connector-curvature="0" />
      <path
         id="path3231"
         style="fill:#ebebeb;fill-opacity:1;fill-rule:evenodd;stroke:none"
         d="m 55.875,486.48718 c -5.25,0 -10.375,5.25 -10.375,10.375 l 0,41.375 c 0,5.125 5.125,10.375 10.375,10.375 l 120.375,0 c 5.125,0 10.25,-5.25 10.25,-10.375 l 0,-41.375 c 0,-5.125 -5.125,-10.375 -10.25,-10.375 l -120.375,0 z"
         inkscape:connector-curvature="0" />
      <path
         id="path3233"
         style="fill:#ebebeb;fill-opacity:1;fill-rule:evenodd;stroke:none"
         d="m 203.625,485.98718 c -5.125,0 -10.25,5.125 -10.25,10.375 l 0,41.375 c 0,5.125 5.125,10.375 10.25,10.375 l 118.875,0 c 5.125,0 10.25,-5.25 10.25,-10.375 l 0,-41.375 c 0,-5.25 -5.125,-10.375 -10.25,-10.375 l -118.875,0 z"
         inkscape:connector-curvature="0" />
    </g>
    <path
       inkscape:connector-curvature="0"
       d="m 255.5327,564.89353 c 5.73171,0 10,4.32432 10,10 0,5.67568 -4.26829,10 -10,10 -5.60976,0 -10,-4.32432 -10,-10 0,-5.67568 4.39024,-10 10,-10 z"
       style="fill:#ffb933;fill-opacity:1;fill-rule:evenodd;stroke:none"
       id="path3237" />
    <path
       inkscape:connector-curvature="0"
       d="m 312.09635,640.39353 c 5.76687,0 10.06135,4.35374 10.06135,10.06803 0,5.57823 -4.29448,9.93197 -10.06135,9.93197 -5.64417,0 -9.93865,-4.35374 -9.93865,-9.93197 0,-5.71429 4.29448,-10.06803 9.93865,-10.06803 z"
       style="fill:#ffb933;fill-opacity:1;fill-rule:evenodd;stroke:none"
       id="path3241" />
    <path
       inkscape:connector-curvature="0"
       d="m 390.47135,549.01853 c 5.76687,0 10.06135,4.35374 10.06135,9.93197 0,5.71429 -4.29448,10.06803 -10.06135,10.06803 -5.64417,0 -9.93865,-4.35374 -9.93865,-10.06803 0,-5.57823 4.29448,-9.93197 9.93865,-9.93197 z"
       style="fill:#ffb933;fill-opacity:1;fill-rule:evenodd;stroke:none"
       id="path3245" />
    <path
       inkscape:connector-curvature="0"
       d="m 441.9077,621.76853 c 5.73171,0 10,4.21769 10,9.93197 0,5.71429 -4.26829,10.06803 -10,10.06803 -5.60976,0 -10,-4.35374 -10,-10.06803 0,-5.71428 4.39024,-9.93197 10,-9.93197 z"
       style="fill:#ffb933;fill-opacity:1;fill-rule:evenodd;stroke:none"
       id="path3247" />
    <path
       inkscape:connector-curvature="0"
       d="m 406.9077,641.89353 c 5.60976,0 10,4.35374 10,10.06803 0,5.57823 -4.39024,9.93197 -10,9.93197 -5.73171,0 -10,-4.35374 -10,-9.93197 0,-5.71429 4.26829,-10.06803 10,-10.06803 z"
       style="fill:#ffb933;fill-opacity:1;fill-rule:evenodd;stroke:none"
       id="path3249" />
    <path
       inkscape:connector-curvature="0"
       d="m 389.84405,613.14353 c 5.64417,0 9.93865,4.35374 9.93865,9.93197 0,5.71429 -4.29448,10.06803 -9.93865,10.06803 -5.76687,0 -10.06135,-4.35374 -10.06135,-10.06803 0,-5.57823 4.29448,-9.93197 10.06135,-9.93197 z"
       style="fill:#ffb933;fill-opacity:1;fill-rule:evenodd;stroke:none"
       id="path3251" />
    <path
       inkscape:connector-curvature="0"
       d="m 312.09635,543.89353 c 5.76687,0 10.06135,4.35374 10.06135,9.93197 0,5.71429 -4.29448,10.06803 -10.06135,10.06803 -5.64417,0 -9.93865,-4.35374 -9.93865,-10.06803 0,-5.57823 4.29448,-9.93197 9.93865,-9.93197 z"
       style="fill:#606060;fill-opacity:1;fill-rule:evenodd;stroke:none"
       id="path3235" />
    <path
       inkscape:connector-curvature="0"
       d="m 272.0327,617.64353 c 5.60976,0 10,4.35374 10,10.06803 0,5.57823 -4.39024,9.93197 -10,9.93197 -5.73171,0 -10,-4.35374 -10,-9.93197 0,-5.71429 4.26829,-10.06803 10,-10.06803 z"
       style="fill:#606060;fill-opacity:1;fill-rule:evenodd;stroke:none"
       id="path3239" />
    <path
       inkscape:connector-curvature="0"
       d="m 447.5327,570.76853 c 5.60976,0 10,4.21769 10,9.93197 0,5.71429 -4.39024,10.06803 -10,10.06803 -5.73171,0 -10,-4.35374 -10,-10.06803 0,-5.71428 4.26829,-9.93197 10,-9.93197 z"
       style="fill:#606060;fill-opacity:1;fill-rule:evenodd;stroke:none"
       id="path3243" />
    <path
       inkscape:connector-curvature="0"
       d="m 466.9077,643.76853 c 5.60976,0 10,4.35374 10,9.93197 0,5.71429 -4.39024,10.06803 -10,10.06803 -5.73171,0 -10,-4.35374 -10,-10.06803 0,-5.57823 4.26829,-9.93197 10,-9.93197 z"
       style="fill:#606060;fill-opacity:1;fill-rule:evenodd;stroke:none"
       id="path3253" />
    <g
       id="g4479"
       style="fill:#2d2d2d;fill-opacity:1"
       inkscape:export-filename="D:\kram\indekonavi\einpaardateien\indekomaingrafik.png"
       inkscape:export-xdpi="150"
       inkscape:export-ydpi="150"
       transform="translate(168.7827,122.28135)">
      <g
         transform="matrix(1.25,0,0,-1.25,-250,861.86218)"
         id="g3051"
         style="fill:#2d2d2d;fill-opacity:1">
        <text
           style="fill:#2d2d2d;fill-opacity:1"
           id="text3053"
           transform="matrix(1,0,0,-1,257.6,379.6)">
          <tspan
             id="tspan3055"
             sodipodi:role="line"
             y="0"
             x="0 5.796 8.5799999 14.964 19.464001 25.452 28.236 33.936001 38.627998 45.012001 51 56.400002 60.299999"
             style="font-size:12px;font-variant:normal;font-weight:normal;writing-mode:lr-tb;fill:#2d2d2d;fill-opacity:1;fill-rule:nonzero;stroke:none;font-family:Calibri;-inkscape-font-specification:Calibri">Einzelaspekte</tspan>
        </text>
      </g>
      <g
         transform="matrix(1.25,0,0,-1.25,-250,861.86218)"
         id="g3057"
         style="fill:#2d2d2d;fill-opacity:1">
        <text
           style="fill:#2d2d2d;fill-opacity:1"
           id="text3059"
           transform="matrix(1,0,0,-1,369,379)">
          <tspan
             id="tspan3061"
             sodipodi:role="line"
             y="0"
             x="0 7.5840001 13.368 19.667999 24.455999 30.84 36.827999 39.528 43.619999 46.403999 49.188 54.192001 60.492001 65.592003 71.580002 74.363998"
             style="font-size:12px;font-variant:normal;font-weight:normal;writing-mode:lr-tb;fill:#2d2d2d;fill-opacity:1;fill-rule:nonzero;stroke:none;font-family:Calibri;-inkscape-font-specification:Calibri">Ganzheitlichkeit</tspan>
        </text>
      </g>
      <g
         transform="matrix(1.25,0,0,-1.25,-260,869.86218)"
         id="g3063"
         style="fill:#2d2d2d;fill-opacity:1">
        <text
           style="fill:#2d2d2d;fill-opacity:1"
           id="text3065"
           transform="matrix(1,0,0,-1,186,334.3)">
          <tspan
             id="tspan3067"
             sodipodi:role="line"
             y="0"
             x="0 6.3959999 12.3 16.392 20.58 23.364 29.268"
             style="font-size:12px;font-variant:normal;font-weight:normal;writing-mode:lr-tb;fill:#2d2d2d;fill-opacity:1;fill-rule:nonzero;stroke:none;font-family:Calibri;-inkscape-font-specification:Calibri">Betrieb</tspan>
        </text>
      </g>
      <g
         transform="matrix(1.25,0,0,-1.25,-260,869.86218)"
         id="g3069"
         style="fill:#2d2d2d;fill-opacity:1">
        <text
           style="fill:#2d2d2d;fill-opacity:1"
           id="text3071"
           transform="matrix(1,0,0,-1,165.6,278)">
          <tspan
             id="tspan3073"
             sodipodi:role="line"
             y="0"
             x="0 3 9.3839998 15.768 18.468 23.868 26.652 32.952 39.335999 45.720001"
             style="font-size:12px;font-variant:normal;font-weight:normal;writing-mode:lr-tb;fill:#2d2d2d;fill-opacity:1;fill-rule:nonzero;stroke:none;font-family:Calibri;-inkscape-font-specification:Calibri">Individuum</tspan>
        </text>
      </g>
      <g
         id="g4415"
         style="fill:#2d2d2d;fill-opacity:1">
        <g
           id="g4293"
           style="fill:#2d2d2d;fill-opacity:1">
          <g
             transform="matrix(1.25,0,0,-1.25,-250,869.86218)"
             id="g3075"
             style="fill:#2d2d2d;fill-opacity:1">
            <text
               id="text3077"
               transform="matrix(1,0,0,-1,773.1,333.5)"
               style="fill:#2d2d2d;fill-opacity:1">
              <tspan
                 id="tspan3079"
                 sodipodi:role="line"
                 y="0"
                 x="0 5.4959998 11.796 15.792 20.483999 25.488001 31.872 38.172001 44.556 50.16 54.852001 61.152 67.536003 72.227997 75.012001 79.008003 81.792 88.176003 94.475998 100.464 106.848"
                 style="font-size:12px;font-variant:normal;font-weight:normal;writing-mode:lr-tb;fill:#2d2d2d;fill-opacity:1;fill-rule:nonzero;stroke:none;font-family:Calibri;-inkscape-font-specification:Calibri">Forschungspositionen</tspan>
            </text>
          </g>
          <g
             transform="matrix(1.25,0,0,-1.25,-250,869.86218)"
             id="g3081"
             style="fill:#2d2d2d;fill-opacity:1">
            <text
               id="text3083"
               transform="matrix(1,0,0,-1,773.1,319.1)"
               style="fill:#2d2d2d;fill-opacity:1">
              <tspan
                 id="tspan3085"
                 sodipodi:role="line"
                 y="0"
                 x="0 2.7839999 12.372 15.156 20.556 26.856001 30.959999 37.344002 43.332001 47.231998 51.924 57.012001 63.216 71.615997 77.603996 81.792 88.176003 94.475998 100.86 106.26"
                 style="font-size:12px;font-variant:normal;font-weight:normal;writing-mode:lr-tb;fill:#2d2d2d;fill-opacity:1;fill-rule:nonzero;stroke:none;font-family:Calibri;-inkscape-font-specification:Calibri">im Förderschwerpunkt</tspan>
            </text>
          </g>
        </g>
        <g
           id="g4301"
           style="fill:#2d2d2d;fill-opacity:1">
          <g
             transform="matrix(1.25,0,0,-1.25,-250,869.86218)"
             id="g3087"
             style="fill:#2d2d2d;fill-opacity:1">
            <text
               id="text3089"
               transform="matrix(1,0,0,-1,773.1,294.7)"
               style="fill:#2d2d2d;fill-opacity:1">
              <tspan
                 id="tspan3091"
                 sodipodi:role="line"
                 y="0"
                 x="0 5.4959998 11.796 15.792 20.483999 25.488001 31.872 38.172001 44.556 50.16 54.852001 61.152 67.536003 72.227997 75.012001 79.008003 81.792 88.176003 94.475998 100.464 106.848"
                 style="font-size:12px;font-variant:normal;font-weight:normal;writing-mode:lr-tb;fill:#2d2d2d;fill-opacity:1;fill-rule:nonzero;stroke:none;font-family:Calibri;-inkscape-font-specification:Calibri">Forschungspositionen</tspan>
            </text>
          </g>
          <g
             transform="matrix(1.25,0,0,-1.25,-250,869.86218)"
             id="g3093"
             style="fill:#2d2d2d;fill-opacity:1">
            <text
               id="text3095"
               transform="matrix(1,0,0,-1,773.1,280.3)"
               style="fill:#2d2d2d;fill-opacity:1">
              <tspan
                 id="tspan3097"
                 sodipodi:role="line"
                 y="0"
                 x="0 5.796 10.992 14.892 20.879999 25.068001 31.452 37.439999 40.535999 43.523998 46.307999 52.608002 58.307999 62.304001 65.087997 71.472 77.772003 83.556 86.255997 92.339996 96.528"
                 style="font-size:12px;font-variant:normal;font-weight:normal;writing-mode:lr-tb;fill:#2d2d2d;fill-opacity:1;fill-rule:nonzero;stroke:none;font-family:Calibri;-inkscape-font-specification:Calibri">externer, nationaler</tspan>
            </text>
          </g>
          <g
             transform="matrix(1.25,0,0,-1.25,-250,869.86218)"
             id="g3099"
             style="fill:#2d2d2d;fill-opacity:1">
            <text
               id="text3101"
               transform="matrix(1,0,0,-1,773.1,266)"
               style="fill:#2d2d2d;fill-opacity:1">
              <tspan
                 id="tspan3103"
                 sodipodi:role="line"
                 y="0"
                 x="0 6.3839998 12.768 19.068001 21.851999 24.636 30.84 34.835999 40.740002 45.023998 51.324001 57.023998 61.02 63.804001 70.188004 76.487999 82.272003 84.972 90.959999 95.148003"
                 style="font-size:12px;font-variant:normal;font-weight:normal;writing-mode:lr-tb;fill:#2d2d2d;fill-opacity:1;fill-rule:nonzero;stroke:none;font-family:Calibri;-inkscape-font-specification:Calibri">und internationaler</tspan>
            </text>
          </g>
          <g
             transform="matrix(1.25,0,0,-1.25,-250,869.86218)"
             id="g3105"
             style="fill:#2d2d2d;fill-opacity:1">
            <text
               id="text3107"
               transform="matrix(1,0,0,-1,773.1,251.6)"
               style="fill:#2d2d2d;fill-opacity:1">
              <tspan
                 id="tspan3109"
                 sodipodi:role="line"
                 y="0"
                 x="0 6.2880001 10.284 16.584 19.476 25.464001 30.864 34.860001"
                 style="font-size:12px;font-variant:normal;font-weight:normal;writing-mode:lr-tb;fill:#2d2d2d;fill-opacity:1;fill-rule:nonzero;stroke:none;font-family:Calibri;-inkscape-font-specification:Calibri">Projekte</tspan>
            </text>
          </g>
        </g>
        <g
           style="fill:#2d2d2d;fill-opacity:1"
           id="g4363"
           transform="matrix(1.25,0,0,-1.25,-250,869.86218)">
          <g
             style="fill:#2d2d2d;fill-opacity:1"
             id="g3021">
            <text
               style="fill:#2d2d2d;fill-opacity:1"
               transform="matrix(1,0,0,-1,599.3,334.2)"
               id="text3023">
              <tspan
                 style="font-size:12px;font-variant:normal;font-weight:normal;writing-mode:lr-tb;fill:#2d2d2d;fill-opacity:1;fill-rule:nonzero;stroke:none;font-family:Calibri;-inkscape-font-specification:Calibri"
                 x="0 6 12.384 18.684 23.375999 29.364 35.748001 42.048 48.035999 54.419998 58.919998 64.907997 71.292 74.075996 80.375999 86.363998 90.552002"
                 y="0"
                 sodipodi:role="line"
                 id="tspan3025">Konsequenzen der</tspan>
            </text>
          </g>
          <g
             style="fill:#2d2d2d;fill-opacity:1"
             id="g3027">
            <text
               style="fill:#2d2d2d;fill-opacity:1"
               transform="matrix(1,0,0,-1,601.7,319.8)"
               id="text3029">
              <tspan
                 style="font-size:12px;font-variant:normal;font-weight:normal;writing-mode:lr-tb;fill:#2d2d2d;fill-opacity:1;fill-rule:nonzero;stroke:none;font-family:Calibri;-inkscape-font-specification:Calibri"
                 x="0 6 12.384 17.076 19.860001 23.856001 26.639999 32.939999 39.324001 42.108002 48.096001 52.284 58.584 64.968002 70.571999 73.356003 76.056 85.643997"
                 y="0"
                 sodipodi:role="line"
                 id="tspan3031">Positionierung im</tspan>
            </text>
          </g>
          <g
             style="fill:#2d2d2d;fill-opacity:1"
             id="g3033">
            <text
               style="fill:#2d2d2d;fill-opacity:1"
               transform="matrix(1,0,0,-1,598.1,305.4)"
               id="text3035">
              <tspan
                 style="font-size:12px;font-variant:normal;font-weight:normal;writing-mode:lr-tb;fill:#2d2d2d;fill-opacity:1;fill-rule:nonzero;stroke:none;font-family:Calibri;-inkscape-font-specification:Calibri"
                 x="0 5.4000001 11.7 15.696 20.388 25.392 31.775999 38.076 44.459999 50.147999 54.647999 58.152 64.139999 66.839996 73.223999 76.008003 82.307999 88.295998 92.987999"
                 y="0"
                 sodipodi:role="line"
                 id="tspan3037">Forschungsfeld des</tspan>
            </text>
          </g>
          <g
             style="fill:#2d2d2d;fill-opacity:1"
             id="g3039">
            <text
               style="fill:#2d2d2d;fill-opacity:1"
               transform="matrix(1,0,0,-1,593.7,291.1)"
               id="text3041">
              <tspan
                 style="font-size:12px;font-variant:normal;font-weight:normal;writing-mode:lr-tb;fill:#2d2d2d;fill-opacity:1;fill-rule:nonzero;stroke:none;font-family:Calibri;-inkscape-font-specification:Calibri"
                 x="0 6.3000002 12.288 21.875999 28.26 33.863998 37.860001 43.464001 47.147999 49.931999 55.919998 60.612 66.599998 72.900002 77.592003 80.375999 86.676003 89.459999 95.447998 101.832"
                 y="0"
                 sodipodi:role="line"
                 id="tspan3043">demografiesensiblen</tspan>
            </text>
          </g>
          <g
             style="fill:#2d2d2d;fill-opacity:1"
             id="g3045">
            <text
               style="fill:#2d2d2d;fill-opacity:1"
               transform="matrix(1,0,0,-1,582.2,276.7)"
               id="text3047">
              <tspan
                 style="font-size:12px;font-variant:normal;font-weight:normal;writing-mode:lr-tb;fill:#2d2d2d;fill-opacity:1;fill-rule:nonzero;stroke:none;font-family:Calibri;-inkscape-font-specification:Calibri"
                 x="0 6 12.3 21.888 28.271999 34.175999 38.076 44.063999 50.448002 55.236 64.823997 70.524002 76.907997 82.692001 88.188004 94.176003 103.764 109.752 115.956 120.048"
                 y="0"
                 sodipodi:role="line"
                 id="tspan3049">Kompetenzmanagements</tspan>
            </text>
          </g>
          <g
             id="g4749"
             transform="translate(0,-6.4)"
             style="fill:#2d2d2d;fill-opacity:1">
            <text
               y="-146.69998"
               x="195"
               id="text3119"
               transform="scale(1,-1)"
               style="fill:#2d2d2d;fill-opacity:1">
              <tspan
                 id="tspan3121"
                 sodipodi:role="line"
                 y="-146.69998"
                 x="195 201.98399 208.284 214.06799 216.76801 222.07201 226.76401 232.752 235.536 240.73199 247.116 253.5"
                 style="font-size:12px;font-variant:normal;font-weight:normal;writing-mode:lr-tb;fill:#2d2d2d;fill-opacity:1;fill-rule:nonzero;stroke:none;font-family:Calibri;-inkscape-font-specification:Calibri">Analyse von</tspan>
            </text>
            <text
               y="-132.39998"
               x="180.3"
               id="text3125"
               transform="scale(1,-1)"
               style="fill:#2d2d2d;fill-opacity:1">
              <tspan
                 id="tspan3127"
                 sodipodi:role="line"
                 y="-132.39998"
                 x="180.3 187.692 193.67999 200.064 204.15601 210.45599 216.84 222.444 227.136 236.724 243.108 247.608 251.604 257.59201 261.78"
                 style="font-size:12px;font-variant:normal;font-weight:normal;writing-mode:lr-tb;fill:#2d2d2d;fill-opacity:1;fill-rule:nonzero;stroke:none;font-family:Calibri;-inkscape-font-specification:Calibri">Deutungsmustern</tspan>
            </text>
            <g
               transform="translate(0,-22.4)"
               id="g3135"
               style="fill:#2d2d2d;fill-opacity:1">
              <text
                 y="-169.3"
                 x="341.33337"
                 id="text3137"
                 transform="scale(1,-1)"
                 style="fill:#2d2d2d;fill-opacity:1">
                <tspan
                   id="tspan3139"
                   sodipodi:role="line"
                   y="-169.3"
                   x="341.33337 348.23337 354.61737 360.31735 363.10138 368.40536 373.09738 379.08536 381.78537 387.08936 393.47336 399.77338"
                   style="font-size:12px;font-variant:normal;font-weight:normal;writing-mode:lr-tb;fill:#2d2d2d;fill-opacity:1;fill-rule:nonzero;stroke:none;font-family:Calibri;-inkscape-font-specification:Calibri">Analyse von</tspan>
              </text>
            </g>
            <g
               transform="translate(0,-22.4)"
               id="g3141"
               style="fill:#2d2d2d;fill-opacity:1">
              <text
                 id="text3143"
                 transform="matrix(1,0,0,-1,321.3,155)"
                 style="fill:#2d2d2d;fill-opacity:1">
                <tspan
                   id="tspan3145"
                   sodipodi:role="line"
                   y="0"
                   x="0 7.7880001 13.692 17.784 22.488001 30.888 36.875999 41.063999 46.368 50.868 54.959999 59.147999 65.447998 70.931999 74.928001 81.311996 85.416 91.403999"
                   style="font-size:12px;font-variant:normal;font-weight:normal;writing-mode:lr-tb;fill:#2d2d2d;fill-opacity:1;fill-rule:nonzero;stroke:none;font-family:Calibri;-inkscape-font-specification:Calibri">Netzwerkstrukturen</tspan>
              </text>
            </g>
            <g
               transform="translate(0,-22.4)"
               id="g3153"
               style="fill:#2d2d2d;fill-opacity:1">
              <text
                 y="-169.3"
                 x="464.75967"
                 id="text3155"
                 transform="scale(1,-1)"
                 style="fill:#2d2d2d;fill-opacity:1">
                <tspan
                   id="tspan3157"
                   sodipodi:role="line"
                   y="-169.3"
                   x="464.75967 471.74365 478.12766 483.82767 486.61166 491.91565 496.51166 502.59567 505.29565 510.08368 516.46765 521.86768 528.16766 534.46765 538.15167 542.24365 544.94366 550.43964 556.52368 560.62769"
                   style="font-size:12px;font-variant:normal;font-weight:normal;writing-mode:lr-tb;fill:#2d2d2d;fill-opacity:1;fill-rule:nonzero;stroke:none;font-family:Calibri;-inkscape-font-specification:Calibri">Analyse zukünftiger</tspan>
              </text>
            </g>
            <g
               transform="translate(0,-22.4)"
               id="g3159"
               style="fill:#2d2d2d;fill-opacity:1">
              <text
                 id="text3161"
                 transform="matrix(1,0,0,-1,496.6,155)"
                 style="fill:#2d2d2d;fill-opacity:1">
                <tspan
                   id="tspan3163"
                   sodipodi:role="line"
                   y="0"
                   x="0 5.1960001 9.3000002 15.288 21.587999 27.972"
                   style="font-size:12px;font-variant:normal;font-weight:normal;writing-mode:lr-tb;fill:#2d2d2d;fill-opacity:1;fill-rule:nonzero;stroke:none;font-family:Calibri;-inkscape-font-specification:Calibri">Trends</tspan>
              </text>
            </g>
            <g
               transform="translate(0,-22.4)"
               id="g3171"
               style="fill:#2d2d2d;fill-opacity:1">
              <text
                 y="-176.5"
                 x="609.61859"
                 id="text3173"
                 transform="scale(1,-1)"
                 style="fill:#2d2d2d;fill-opacity:1">
                <tspan
                   id="tspan3175"
                   sodipodi:role="line"
                   y="-176.5"
                   x="609.61859 619.8186 625.80658 628.59058 632.4906 638.47858 642.58258 648.57056 654.7746 658.86658 667.36255 670.14661 675.15057 680.5506 683.33459 689.71857 696.01855 701.62256"
                   style="font-size:12px;font-variant:normal;font-weight:normal;writing-mode:lr-tb;fill:#2d2d2d;fill-opacity:1;fill-rule:nonzero;stroke:none;font-family:Calibri;-inkscape-font-specification:Calibri">Weiterentwicklung</tspan>
              </text>
            </g>
            <g
               transform="translate(0,-22.4)"
               id="g3177"
               style="fill:#2d2d2d;fill-opacity:1">
              <text
                 y="-162.10001"
                 x="613.72375"
                 id="text3179"
                 transform="scale(1,-1)"
                 style="fill:#2d2d2d;fill-opacity:1">
                <tspan
                   id="tspan3181"
                   sodipodi:role="line"
                   y="-162.10001"
                   x="613.72375 616.42377 622.72375 626.62378 632.61176 636.79974 643.18378 649.08777 653.17975 659.47974 665.26373 669.95575 672.65576 678.64374 682.83173 686.82776 692.81573 697.00372"
                   style="font-size:12px;font-variant:normal;font-weight:normal;writing-mode:lr-tb;fill:#2d2d2d;fill-opacity:1;fill-rule:nonzero;stroke:none;font-family:Calibri;-inkscape-font-specification:Calibri">internetbasierter</tspan>
              </text>
            </g>
            <g
               transform="translate(0,-22.4)"
               id="g3183"
               style="fill:#2d2d2d;fill-opacity:1">
              <text
                 id="text3185"
                 transform="matrix(1,0,0,-1,601.9,147.8)"
                 style="fill:#2d2d2d;fill-opacity:1">
                <tspan
                   id="tspan3187"
                   sodipodi:role="line"
                   y="0"
                   x="0 5.4000001 11.784 15.684 20.375999 25.379999 31.764 38.147999 44.448002 50.136002 54.827999 57.528 63.312 69.612 75.996002 81.096001 86.879997 91.068001 95.064003 101.052"
                   style="font-size:12px;font-variant:normal;font-weight:normal;writing-mode:lr-tb;fill:#2d2d2d;fill-opacity:1;fill-rule:nonzero;stroke:none;font-family:Calibri;-inkscape-font-specification:Calibri">Forschungslandkarten</tspan>
              </text>
            </g>
          </g>
        </g>
      </g>
    </g>
    <text
       xml:space="preserve"
       style="font-size:18px;font-style:normal;font-variant:normal;font-weight:bold;font-stretch:normal;text-align:center;line-height:943.99995804000002000%;letter-spacing:0.25000000000000000px;word-spacing:0px;text-anchor:middle;fill:#009020;fill-opacity:1;stroke:none;font-family:Arial;-inkscape-font-specification:Calibri Bold"
       x="471.24753"
       y="899.64355"
       id="text4407"
       sodipodi:linespacing="943.99996%"
       inkscape:export-filename="D:\kram\indekonavi\einpaardateien\indekomaingrafik.png"
       inkscape:export-xdpi="150"
       inkscape:export-ydpi="150"><tspan
         sodipodi:role="line"
         id="tspan4409"
         x="473.53659"
         y="899.64355"
         style="font-size:18px;font-style:normal;font-variant:normal;font-weight:bold;font-stretch:normal;letter-spacing:0.25000000000000000px;fill:#009020;fill-opacity:1;font-family:Calibri;-inkscape-font-specification:Calibri Bold">Konzept zur wissenschaftlichen Begleitforschung (x.Navi-Konzept) </tspan></text>
    <g
       id="g4731"
       transform="translate(168.7827,142.28135)"
       style="fill:#ffb933;fill-opacity:1"
       inkscape:export-filename="D:\kram\indekonavi\einpaardateien\indekomaingrafik.png"
       inkscape:export-xdpi="150"
       inkscape:export-ydpi="150">
      <g
         id="g4684"
         style="fill:#ffb933;fill-opacity:1">
        <path
           transform="translate(0,8)"
           id="path3221"
           style="fill:#ffb933;fill-opacity:1;fill-rule:evenodd;stroke:none"
           d="m 30.375,590.73718 3.75,7.5 -7.5,0 3.75,-7.5 z"
           inkscape:connector-curvature="0" />
        <path
           transform="translate(0,8)"
           id="path3223"
           style="fill:#ffb933;fill-opacity:1;fill-rule:evenodd;stroke:none"
           d="m 30.375,614.23718 -3.75,-7.375 7.5,0 -3.75,7.375 z"
           inkscape:connector-curvature="0" />
        <rect
           style="fill:#ffb933;fill-opacity:1;fill-rule:nonzero;stroke:none"
           id="rect4680"
           width="1.6663727"
           height="10.971681"
           x="29.541815"
           y="605.47266"
           rx="0"
           ry="0" />
      </g>
      <g
         transform="translate(182.40582,0)"
         id="g4689"
         style="fill:#ffb933;fill-opacity:1">
        <path
           inkscape:connector-curvature="0"
           d="m 30.375,590.73718 3.75,7.5 -7.5,0 3.75,-7.5 z"
           style="fill:#ffb933;fill-opacity:1;fill-rule:evenodd;stroke:none"
           id="path4691"
           transform="translate(0,8)" />
        <path
           inkscape:connector-curvature="0"
           d="m 30.375,614.23718 -3.75,-7.375 7.5,0 -3.75,7.375 z"
           style="fill:#ffb933;fill-opacity:1;fill-rule:evenodd;stroke:none"
           id="path4693"
           transform="translate(0,8)" />
        <rect
           ry="0"
           rx="0"
           y="605.47266"
           x="29.541815"
           height="10.971681"
           width="1.6663727"
           id="rect4695"
           style="fill:#ffb933;fill-opacity:1;fill-rule:nonzero;stroke:none" />
      </g>
      <g
         id="g4697"
         transform="translate(360.54183,0)"
         style="fill:#ffb933;fill-opacity:1">
        <path
           transform="translate(0,8)"
           id="path4699"
           style="fill:#ffb933;fill-opacity:1;fill-rule:evenodd;stroke:none"
           d="m 30.375,590.73718 3.75,7.5 -7.5,0 3.75,-7.5 z"
           inkscape:connector-curvature="0" />
        <path
           transform="translate(0,8)"
           id="path4701"
           style="fill:#ffb933;fill-opacity:1;fill-rule:evenodd;stroke:none"
           d="m 30.375,614.23718 -3.75,-7.375 7.5,0 -3.75,7.375 z"
           inkscape:connector-curvature="0" />
        <rect
           style="fill:#ffb933;fill-opacity:1;fill-rule:nonzero;stroke:none"
           id="rect4703"
           width="1.6663727"
           height="10.971681"
           x="29.541815"
           y="605.47266"
           rx="0"
           ry="0" />
      </g>
      <g
         transform="translate(539.18582,0)"
         id="g4705"
         style="fill:#ffb933;fill-opacity:1">
        <path
           inkscape:connector-curvature="0"
           d="m 30.375,590.73718 3.75,7.5 -7.5,0 3.75,-7.5 z"
           style="fill:#ffb933;fill-opacity:1;fill-rule:evenodd;stroke:none"
           id="path4707"
           transform="translate(0,8)" />
        <path
           inkscape:connector-curvature="0"
           d="m 30.375,614.23718 -3.75,-7.375 7.5,0 -3.75,7.375 z"
           style="fill:#ffb933;fill-opacity:1;fill-rule:evenodd;stroke:none"
           id="path4709"
           transform="translate(0,8)" />
        <rect
           ry="0"
           rx="0"
           y="605.47266"
           x="29.541815"
           height="10.971681"
           width="1.6663727"
           id="rect4711"
           style="fill:#ffb933;fill-opacity:1;fill-rule:nonzero;stroke:none" />
      </g>
    </g>
    <text
       sodipodi:linespacing="943.99996%"
       id="text4411"
       y="460.64352"
       x="471.24753"
       style="font-size:18px;font-style:normal;font-variant:normal;font-weight:bold;font-stretch:normal;text-align:center;line-height:943.99995804000002000%;letter-spacing:0.25000000000000000px;word-spacing:0px;text-anchor:middle;fill:#009020;fill-opacity:1;stroke:none;font-family:Arial;-inkscape-font-specification:Calibri Bold"
       xml:space="preserve"
       inkscape:export-filename="D:\kram\indekonavi\einpaardateien\indekomaingrafik.png"
       inkscape:export-xdpi="150"
       inkscape:export-ydpi="150"><tspan
         style="font-size:18px;font-style:normal;font-variant:normal;font-weight:bold;font-stretch:normal;letter-spacing:0.25000000000000000px;fill:#009020;fill-opacity:1;font-family:Calibri;-inkscape-font-specification:Calibri Bold"
         y="460.64352"
         x="471.37253"
         id="tspan4413"
         sodipodi:role="line">Modell des integrativen demografiesensiblen Kompetenzmanagements (InDeKo-Modell)</tspan></text>
  </g>
</svg>
